<svg width="183" height="89" viewBox="0 0 183 89" fill="none" xmlns="http://www.w3.org/2000/svg">
<path d="M39.5 2.09999H56.9L84.8 72H66.7L61.1 57.6H35.3L29.7 72H11.5L39.5 2.09999ZM56.7 44L48.2 20.5L39.6 44H56.7ZM89.2813 2.09999H106.281L126.481 45.4L146.781 2.09999H163.681V72H147.181V36.9L130.481 72H122.481L105.881 36.9V72H89.2813V2.09999Z" fill="#0E4056" fill-opacity="0.25"/>
<path d="M35.832 19.816H43.592V21.848H38.264V24.44H42.184V26.392H38.264V28.968H43.592V31H35.832V19.816ZM51.6871 31.24C51.1111 31.24 50.4925 31.176 49.8311 31.048C49.1805 30.9307 48.6685 30.76 48.2951 30.536V28.648C48.7218 28.904 49.2338 29.112 49.8311 29.272C50.4285 29.432 50.9831 29.512 51.4951 29.512C51.9325 29.512 52.2525 29.4747 52.4551 29.4C52.6578 29.3253 52.7591 29.1867 52.7591 28.984C52.7591 28.824 52.7005 28.696 52.5831 28.6C52.4658 28.4933 52.2845 28.4027 52.0391 28.328C51.8045 28.2427 51.4098 28.12 50.8551 27.96C50.2045 27.768 49.6925 27.576 49.3191 27.384C48.9565 27.1813 48.6791 26.9307 48.4871 26.632C48.3058 26.3333 48.2151 25.9493 48.2151 25.48C48.2151 24.68 48.5298 24.0827 49.1591 23.688C49.7991 23.2827 50.6631 23.08 51.7511 23.08C52.2845 23.08 52.8338 23.1387 53.3991 23.256C53.9751 23.3627 54.4178 23.5067 54.7271 23.688V25.528C54.4178 25.3253 54.0125 25.16 53.5111 25.032C53.0205 24.904 52.5405 24.84 52.0711 24.84C51.6338 24.84 51.2925 24.8827 51.0471 24.968C50.8125 25.0533 50.6951 25.2133 50.6951 25.448C50.6951 25.6507 50.8071 25.8053 51.0311 25.912C51.2658 26.0187 51.6978 26.152 52.3271 26.312L52.6471 26.392C53.3191 26.5733 53.8418 26.776 54.2151 27C54.5885 27.2133 54.8498 27.4747 54.9991 27.784C55.1591 28.0827 55.2391 28.4613 55.2391 28.92C55.2391 29.624 54.9351 30.1893 54.3271 30.616C53.7191 31.032 52.8391 31.24 51.6871 31.24ZM64.4154 31.24C63.0287 31.24 61.9247 30.888 61.1034 30.184C60.282 29.4693 59.8714 28.4667 59.8714 27.176C59.8714 25.8853 60.282 24.8827 61.1034 24.168C61.9354 23.4427 63.0447 23.08 64.4314 23.08C65.69 23.08 66.6927 23.3147 67.4394 23.784V25.688C67.098 25.4427 66.698 25.2613 66.2394 25.144C65.7914 25.0267 65.3167 24.968 64.8154 24.968C64.0687 24.968 63.4714 25.1493 63.0234 25.512C62.5754 25.8747 62.3514 26.4293 62.3514 27.176C62.3514 27.9227 62.57 28.4773 63.0074 28.84C63.4554 29.192 64.0527 29.368 64.7994 29.368C65.834 29.368 66.746 29.1173 67.5354 28.616V30.504C66.746 30.9947 65.706 31.24 64.4154 31.24ZM72.8789 23.32H75.2149V24.424C75.5242 24.0507 75.9562 23.768 76.5109 23.576C77.0655 23.3733 77.6949 23.272 78.3989 23.272V25.112C77.6629 25.112 77.0122 25.224 76.4469 25.448C75.8922 25.672 75.5082 26.0133 75.2949 26.472V31H72.8789V23.32ZM84.7538 22.136C84.3804 22.136 84.0658 22.0133 83.8098 21.768C83.5538 21.5227 83.4258 21.2133 83.4258 20.84C83.4258 20.4773 83.5538 20.1733 83.8098 19.928C84.0658 19.672 84.3804 19.544 84.7538 19.544C85.1271 19.544 85.4418 19.672 85.6978 19.928C85.9538 20.1733 86.0818 20.4773 86.0818 20.84C86.0818 21.2133 85.9538 21.5227 85.6978 21.768C85.4418 22.0133 85.1271 22.136 84.7538 22.136ZM83.5378 23.32H85.9698V31H83.5378V23.32ZM94.9543 31.24C94.0583 31.24 93.3756 30.9947 92.9062 30.504C92.4476 30.0027 92.2183 29.3093 92.2183 28.424V25.064H91.0983V23.32H92.2183V21.016H94.6343V23.32H96.4423V25.064H94.6343V28.104C94.6343 28.552 94.7196 28.8773 94.8903 29.08C95.0609 29.272 95.3649 29.368 95.8023 29.368C96.1543 29.368 96.4903 29.2827 96.8103 29.112V30.92C96.3196 31.1333 95.7009 31.24 94.9543 31.24ZM106.152 31.24C105.224 31.24 104.408 31.0747 103.704 30.744C103.01 30.4027 102.472 29.928 102.088 29.32C101.714 28.7013 101.528 27.9813 101.528 27.16C101.528 26.36 101.714 25.6507 102.088 25.032C102.472 24.4133 103.01 23.9333 103.704 23.592C104.408 23.2507 105.224 23.08 106.152 23.08C107.069 23.08 107.874 23.2507 108.568 23.592C109.272 23.9333 109.81 24.4133 110.184 25.032C110.568 25.6507 110.76 26.36 110.76 27.16C110.76 27.9813 110.568 28.7013 110.184 29.32C109.81 29.928 109.277 30.4027 108.584 30.744C107.89 31.0747 107.08 31.24 106.152 31.24ZM106.152 29.352C106.802 29.352 107.32 29.1547 107.704 28.76C108.088 28.3547 108.28 27.8213 108.28 27.16C108.28 26.4773 108.088 25.944 107.704 25.56C107.33 25.1653 106.813 24.968 106.152 24.968C105.49 24.968 104.968 25.1653 104.584 25.56C104.2 25.944 104.008 26.4773 104.008 27.16C104.008 27.8213 104.2 28.3547 104.584 28.76C104.978 29.1547 105.501 29.352 106.152 29.352ZM116.113 23.32H118.449V24.424C118.759 24.0507 119.191 23.768 119.745 23.576C120.3 23.3733 120.929 23.272 121.633 23.272V25.112C120.897 25.112 120.247 25.224 119.681 25.448C119.127 25.672 118.743 26.0133 118.529 26.472V31H116.113V23.32ZM127.988 22.136C127.615 22.136 127.3 22.0133 127.044 21.768C126.788 21.5227 126.66 21.2133 126.66 20.84C126.66 20.4773 126.788 20.1733 127.044 19.928C127.3 19.672 127.615 19.544 127.988 19.544C128.361 19.544 128.676 19.672 128.932 19.928C129.188 20.1733 129.316 20.4773 129.316 20.84C129.316 21.2133 129.188 21.5227 128.932 21.768C128.676 22.0133 128.361 22.136 127.988 22.136ZM126.772 23.32H129.204V31H126.772V23.32ZM139.277 31.24C138.349 31.24 137.533 31.0747 136.829 30.744C136.135 30.4027 135.597 29.928 135.213 29.32C134.839 28.7013 134.653 27.9813 134.653 27.16C134.653 26.36 134.839 25.6507 135.213 25.032C135.597 24.4133 136.135 23.9333 136.829 23.592C137.533 23.2507 138.349 23.08 139.277 23.08C140.194 23.08 140.999 23.2507 141.693 23.592C142.397 23.9333 142.935 24.4133 143.309 25.032C143.693 25.6507 143.885 26.36 143.885 27.16C143.885 27.9813 143.693 28.7013 143.309 29.32C142.935 29.928 142.402 30.4027 141.709 30.744C141.015 31.0747 140.205 31.24 139.277 31.24ZM139.277 29.352C139.927 29.352 140.445 29.1547 140.829 28.76C141.213 28.3547 141.405 27.8213 141.405 27.16C141.405 26.4773 141.213 25.944 140.829 25.56C140.455 25.1653 139.938 24.968 139.277 24.968C138.615 24.968 138.093 25.1653 137.709 25.56C137.325 25.944 137.133 26.4773 137.133 27.16C137.133 27.8213 137.325 28.3547 137.709 28.76C138.103 29.1547 138.626 29.352 139.277 29.352Z" fill="#0E4056"/>
<path d="M7.66 38.6H11.36L9.54 42.16H6.28L7.66 38.6ZM6.1 43.02H9.58L15.16 57H11.54L10.42 54.12H5.26L4.14 57H0.5L6.1 43.02ZM9.54 51.4L7.84 46.7L6.12 51.4H9.54ZM16.1641 43.02H19.7041V54.02H25.7841V57H16.1641V43.02ZM23.4891 43.02H27.2691L30.8291 52.32L34.3891 43.02H38.1491L32.5691 57H29.0891L23.4891 43.02ZM41.4625 43.02H44.9425L50.5225 57H46.9025L45.7825 54.12H40.6225L39.5025 57H35.8625L41.4625 43.02ZM44.9025 51.4L43.2025 46.7L41.4825 51.4H44.9025ZM51.5266 43.02H57.8066C59.4466 43.02 60.7266 43.4333 61.6466 44.26C62.5799 45.0867 63.0466 46.2733 63.0466 47.82C63.0466 48.86 62.8199 49.7467 62.3666 50.48C61.9132 51.2133 61.2732 51.76 60.4466 52.12L62.9266 57H59.2866L57.0666 52.62H55.0666V57H51.5266V43.02ZM57.1866 49.64C57.8932 49.64 58.4399 49.5067 58.8266 49.24C59.2132 48.96 59.4066 48.4867 59.4066 47.82C59.4066 47.1267 59.2132 46.6533 58.8266 46.4C58.4532 46.1333 57.9066 46 57.1866 46H55.0666V49.64H57.1866ZM64.0563 43.02H73.9763V46H67.5963V48.62H72.2563V51.4H67.5963V54.02H73.9763V57H64.0563V43.02ZM74.5844 54.6L80.9444 46H74.7444V43.02H85.3644V45.44L79.0444 54.02H85.8044V57H74.5844V54.6ZM93.2078 43.02H96.6078L100.648 51.68L104.708 43.02H108.088V57H104.788V49.98L101.448 57H99.8478L96.5278 49.98V57H93.2078V43.02ZM114.18 43.02H117.66L123.24 57H119.62L118.5 54.12H113.34L112.22 57H108.58L114.18 43.02ZM117.62 51.4L115.92 46.7L114.2 51.4H117.62ZM124.244 43.02H130.524C132.164 43.02 133.444 43.4333 134.364 44.26C135.297 45.0867 135.764 46.2733 135.764 47.82C135.764 48.86 135.537 49.7467 135.084 50.48C134.63 51.2133 133.99 51.76 133.164 52.12L135.644 57H132.004L129.784 52.62H127.784V57H124.244V43.02ZM129.904 49.64C130.61 49.64 131.157 49.5067 131.544 49.24C131.93 48.96 132.124 48.4867 132.124 47.82C132.124 47.1267 131.93 46.6533 131.544 46.4C131.17 46.1333 130.624 46 129.904 46H127.784V49.64H129.904ZM139.31 46H135.37V43.02H146.81V46H142.85V57H139.31V46ZM147.506 43.02H157.426V46H151.046V48.62H155.706V51.4H151.046V54.02H157.426V57H147.506V43.02ZM158.434 43.02H161.934L167.074 51.34V43.02H170.614V57H167.134L161.974 48.66V57H158.434V43.02ZM176.379 57.3C175.499 57.3 174.625 57.2133 173.759 57.04C172.892 56.88 172.179 56.6533 171.619 56.36V53.18C172.339 53.5533 173.085 53.8333 173.859 54.02C174.645 54.2067 175.392 54.3 176.099 54.3C176.752 54.3 177.245 54.2 177.579 54C177.912 53.8 178.079 53.5133 178.079 53.14C178.079 52.86 177.985 52.62 177.799 52.42C177.625 52.2067 177.365 52.0133 177.019 51.84C176.672 51.6667 176.132 51.4267 175.399 51.12C174.105 50.5733 173.165 49.9667 172.579 49.3C171.992 48.6333 171.699 47.8133 171.699 46.84C171.699 46.04 171.919 45.3267 172.359 44.7C172.812 44.0733 173.439 43.5867 174.239 43.24C175.039 42.8933 175.959 42.72 176.999 42.72C177.852 42.72 178.612 42.7867 179.279 42.92C179.945 43.0533 180.585 43.2667 181.199 43.56V46.66C180.025 46.0467 178.845 45.74 177.659 45.74C177.019 45.74 176.505 45.8467 176.119 46.06C175.745 46.26 175.559 46.5533 175.559 46.94C175.559 47.3267 175.752 47.64 176.139 47.88C176.525 48.12 177.239 48.4467 178.279 48.86C179.225 49.2467 179.959 49.6267 180.479 50C181.012 50.3733 181.399 50.8067 181.639 51.3C181.879 51.7933 181.999 52.42 181.999 53.18C181.999 54.4733 181.525 55.4867 180.579 56.22C179.645 56.94 178.245 57.3 176.379 57.3Z" fill="#0E4056"/>
<path d="M10.585 78.709H11.458L14.662 83.452V78.709H15.589V85H14.707L11.503 80.257V85H10.585V78.709ZM16.4399 78.709H20.5889V79.483H17.3579V81.472H19.7699V82.237H17.3579V84.235H20.5889V85H16.4399V78.709ZM24.2407 85.135C23.5927 85.135 23.0167 85 22.5127 84.73C22.0087 84.46 21.6157 84.079 21.3337 83.587C21.0517 83.089 20.9107 82.513 20.9107 81.859C20.9107 81.205 21.0517 80.629 21.3337 80.131C21.6157 79.633 22.0087 79.249 22.5127 78.979C23.0167 78.709 23.5927 78.574 24.2407 78.574C25.1107 78.574 25.8337 78.79 26.4097 79.222V80.104C25.8877 79.648 25.1917 79.42 24.3217 79.42C23.8477 79.42 23.4217 79.519 23.0437 79.717C22.6657 79.915 22.3687 80.2 22.1527 80.572C21.9427 80.938 21.8377 81.367 21.8377 81.859C21.8377 82.351 21.9427 82.783 22.1527 83.155C22.3627 83.527 22.6537 83.812 23.0257 84.01C23.3977 84.208 23.8177 84.307 24.2857 84.307C24.8317 84.307 25.2787 84.196 25.6267 83.974V82.327H24.4297V81.58H26.5447V84.46C26.2627 84.694 25.9297 84.865 25.5457 84.973C25.1677 85.081 24.7327 85.135 24.2407 85.135ZM30.3501 85.135C29.7261 85.135 29.1621 85 28.6581 84.73C28.1541 84.454 27.7581 84.067 27.4701 83.569C27.1821 83.071 27.0381 82.501 27.0381 81.859C27.0381 81.217 27.1821 80.647 27.4701 80.149C27.7581 79.651 28.1541 79.264 28.6581 78.988C29.1621 78.712 29.7261 78.574 30.3501 78.574C30.9741 78.574 31.5381 78.712 32.0421 78.988C32.5461 79.264 32.9421 79.651 33.2301 80.149C33.5181 80.647 33.6621 81.217 33.6621 81.859C33.6621 82.501 33.5181 83.071 33.2301 83.569C32.9421 84.067 32.5461 84.454 32.0421 84.73C31.5381 85 30.9741 85.135 30.3501 85.135ZM30.3501 84.307C30.7941 84.307 31.1961 84.208 31.5561 84.01C31.9221 83.806 32.2101 83.521 32.4201 83.155C32.6301 82.783 32.7351 82.351 32.7351 81.859C32.7351 81.373 32.6301 80.947 32.4201 80.581C32.2161 80.209 31.9341 79.924 31.5741 79.726C31.2141 79.522 30.8121 79.42 30.3681 79.42C29.9181 79.42 29.5101 79.519 29.1441 79.717C28.7841 79.915 28.4961 80.2 28.2801 80.572C28.0701 80.944 27.9651 81.373 27.9651 81.859C27.9651 82.351 28.0701 82.783 28.2801 83.155C28.4901 83.521 28.7751 83.806 29.1351 84.01C29.5011 84.208 29.9061 84.307 30.3501 84.307ZM37.3568 85.135C36.7088 85.135 36.1328 85 35.6288 84.73C35.1248 84.46 34.7318 84.079 34.4498 83.587C34.1678 83.089 34.0268 82.513 34.0268 81.859C34.0268 81.205 34.1678 80.629 34.4498 80.131C34.7318 79.633 35.1248 79.249 35.6288 78.979C36.1328 78.709 36.7088 78.574 37.3568 78.574C38.2208 78.574 38.9438 78.793 39.5258 79.231V80.113C39.0038 79.651 38.3078 79.42 37.4378 79.42C36.9518 79.42 36.5198 79.519 36.1418 79.717C35.7698 79.915 35.4788 80.2 35.2688 80.572C35.0588 80.938 34.9538 81.367 34.9538 81.859C34.9538 82.351 35.0588 82.783 35.2688 83.155C35.4848 83.527 35.7788 83.812 36.1508 84.01C36.5288 84.208 36.9578 84.307 37.4378 84.307C37.8818 84.307 38.2778 84.25 38.6258 84.136C38.9798 84.016 39.3068 83.827 39.6068 83.569V84.46C39.0668 84.91 38.3168 85.135 37.3568 85.135ZM40.2815 78.709H41.2085V85H40.2815V78.709ZM45.1991 85.135C44.5751 85.135 44.0111 85 43.5071 84.73C43.0031 84.454 42.6071 84.067 42.3191 83.569C42.0311 83.071 41.8871 82.501 41.8871 81.859C41.8871 81.217 42.0311 80.647 42.3191 80.149C42.6071 79.651 43.0031 79.264 43.5071 78.988C44.0111 78.712 44.5751 78.574 45.1991 78.574C45.8231 78.574 46.3871 78.712 46.8911 78.988C47.3951 79.264 47.7911 79.651 48.0791 80.149C48.3671 80.647 48.5111 81.217 48.5111 81.859C48.5111 82.501 48.3671 83.071 48.0791 83.569C47.7911 84.067 47.3951 84.454 46.8911 84.73C46.3871 85 45.8231 85.135 45.1991 85.135ZM45.1991 84.307C45.6431 84.307 46.0451 84.208 46.4051 84.01C46.7711 83.806 47.0591 83.521 47.2691 83.155C47.4791 82.783 47.5841 82.351 47.5841 81.859C47.5841 81.373 47.4791 80.947 47.2691 80.581C47.0651 80.209 46.7831 79.924 46.4231 79.726C46.0631 79.522 45.6611 79.42 45.2171 79.42C44.7671 79.42 44.3591 79.519 43.9931 79.717C43.6331 79.915 43.3451 80.2 43.1291 80.572C42.9191 80.944 42.8141 81.373 42.8141 81.859C42.8141 82.351 42.9191 82.783 43.1291 83.155C43.3391 83.521 43.6241 83.806 43.9841 84.01C44.3501 84.208 44.7551 84.307 45.1991 84.307ZM50.7051 85.135C50.3451 85.135 49.9881 85.102 49.6341 85.036C49.2861 84.976 49.0011 84.892 48.7791 84.784V83.956C49.3551 84.226 49.9761 84.361 50.6421 84.361C51.5781 84.361 52.0461 84.046 52.0461 83.416C52.0461 83.2 51.9951 83.026 51.8931 82.894C51.7911 82.762 51.6441 82.648 51.4521 82.552C51.2601 82.45 50.9481 82.312 50.5161 82.138C49.9221 81.898 49.4931 81.634 49.2291 81.346C48.9651 81.058 48.8331 80.695 48.8331 80.257C48.8331 79.927 48.9231 79.636 49.1031 79.384C49.2831 79.126 49.5351 78.928 49.8591 78.79C50.1831 78.646 50.5551 78.574 50.9751 78.574C51.3171 78.574 51.6261 78.601 51.9021 78.655C52.1781 78.709 52.4481 78.796 52.7121 78.916V79.708C52.1901 79.474 51.6621 79.357 51.1281 79.357C50.6961 79.357 50.3661 79.435 50.1381 79.591C49.9101 79.747 49.7961 79.969 49.7961 80.257C49.7961 80.455 49.8441 80.623 49.9401 80.761C50.0421 80.893 50.1891 81.013 50.3811 81.121C50.5791 81.223 50.8701 81.352 51.2541 81.508C51.6801 81.682 52.0161 81.847 52.2621 82.003C52.5081 82.159 52.6941 82.351 52.8201 82.579C52.9521 82.801 53.0181 83.08 53.0181 83.416C53.0181 83.962 52.8231 84.385 52.4331 84.685C52.0431 84.985 51.4671 85.135 50.7051 85.135ZM56.7051 78.709H59.2341C59.9061 78.709 60.4221 78.871 60.7821 79.195C61.1421 79.519 61.3221 79.993 61.3221 80.617C61.3221 81.079 61.1991 81.472 60.9531 81.796C60.7071 82.114 60.3591 82.33 59.9091 82.444L61.2951 85H60.3411L59.0001 82.516H57.6231V85H56.7051V78.709ZM59.0811 81.742C59.4831 81.742 59.8011 81.649 60.0351 81.463C60.2751 81.271 60.3951 80.989 60.3951 80.617C60.3951 80.209 60.2781 79.918 60.0441 79.744C59.8161 79.57 59.4951 79.483 59.0811 79.483H57.6231V81.742H59.0811ZM64.5535 85.135C63.6955 85.135 63.0475 84.916 62.6095 84.478C62.1715 84.034 61.9525 83.425 61.9525 82.651V78.709H62.8705V82.687C62.8705 83.221 63.0205 83.626 63.3205 83.902C63.6205 84.172 64.0315 84.307 64.5535 84.307C65.0695 84.307 65.4775 84.172 65.7775 83.902C66.0775 83.626 66.2275 83.221 66.2275 82.687V78.709H67.1455V82.651C67.1455 83.419 66.9265 84.025 66.4885 84.469C66.0505 84.913 65.4055 85.135 64.5535 85.135ZM67.9579 78.709H70.4869C71.1589 78.709 71.6749 78.871 72.0349 79.195C72.3949 79.519 72.5749 79.993 72.5749 80.617C72.5749 81.079 72.4519 81.472 72.2059 81.796C71.9599 82.114 71.6119 82.33 71.1619 82.444L72.5479 85H71.5939L70.2529 82.516H68.8759V85H67.9579V78.709ZM70.3339 81.742C70.7359 81.742 71.0539 81.649 71.2879 81.463C71.5279 81.271 71.6479 80.989 71.6479 80.617C71.6479 80.209 71.5309 79.918 71.2969 79.744C71.0689 79.57 70.7479 79.483 70.3339 79.483H68.8759V81.742H70.3339ZM75.177 78.709H76.059L78.57 85H77.634L77.004 83.434H74.223L73.611 85H72.666L75.177 78.709ZM76.752 82.669L75.618 79.726L74.484 82.669H76.752ZM79.2459 78.709H80.1639V84.235H83.3499V85H79.2459V78.709ZM83.7121 78.709H87.8611V79.483H84.6301V81.472H87.0421V82.237H84.6301V84.235H87.8611V85H83.7121V78.709ZM90.2408 85.135C89.8808 85.135 89.5238 85.102 89.1698 85.036C88.8218 84.976 88.5368 84.892 88.3148 84.784V83.956C88.8908 84.226 89.5118 84.361 90.1778 84.361C91.1138 84.361 91.5818 84.046 91.5818 83.416C91.5818 83.2 91.5308 83.026 91.4288 82.894C91.3268 82.762 91.1798 82.648 90.9878 82.552C90.7958 82.45 90.4838 82.312 90.0518 82.138C89.4578 81.898 89.0288 81.634 88.7648 81.346C88.5008 81.058 88.3688 80.695 88.3688 80.257C88.3688 79.927 88.4588 79.636 88.6388 79.384C88.8188 79.126 89.0708 78.928 89.3948 78.79C89.7188 78.646 90.0908 78.574 90.5108 78.574C90.8528 78.574 91.1618 78.601 91.4378 78.655C91.7138 78.709 91.9838 78.796 92.2478 78.916V79.708C91.7258 79.474 91.1978 79.357 90.6638 79.357C90.2318 79.357 89.9018 79.435 89.6738 79.591C89.4458 79.747 89.3318 79.969 89.3318 80.257C89.3318 80.455 89.3798 80.623 89.4758 80.761C89.5778 80.893 89.7248 81.013 89.9168 81.121C90.1148 81.223 90.4058 81.352 90.7898 81.508C91.2158 81.682 91.5518 81.847 91.7978 82.003C92.0438 82.159 92.2298 82.351 92.3558 82.579C92.4878 82.801 92.5538 83.08 92.5538 83.416C92.5538 83.962 92.3588 84.385 91.9688 84.685C91.5788 84.985 91.0028 85.135 90.2408 85.135ZM98.3287 85.135C97.6567 85.135 97.1107 84.988 96.6907 84.694C96.2707 84.394 96.0607 83.974 96.0607 83.434C96.0607 83.032 96.1717 82.687 96.3937 82.399C96.6217 82.111 96.9847 81.826 97.4827 81.544C97.1827 81.268 96.9637 81.019 96.8257 80.797C96.6877 80.569 96.6187 80.317 96.6187 80.041C96.6187 79.597 96.7687 79.243 97.0687 78.979C97.3747 78.709 97.7797 78.574 98.2837 78.574C98.6017 78.574 98.8837 78.64 99.1297 78.772C99.3817 78.898 99.5767 79.072 99.7147 79.294C99.8527 79.516 99.9217 79.765 99.9217 80.041C99.9217 80.371 99.8317 80.653 99.6517 80.887C99.4777 81.121 99.1747 81.379 98.7427 81.661L100.453 83.281C100.561 83.107 100.633 82.903 100.669 82.669C100.711 82.429 100.732 82.138 100.732 81.796H101.533C101.533 82.258 101.497 82.645 101.425 82.957C101.353 83.263 101.227 83.563 101.047 83.857L102.253 85H101.155L100.516 84.388C100.246 84.646 99.9307 84.835 99.5707 84.955C99.2107 85.075 98.7967 85.135 98.3287 85.135ZM98.1847 81.211C98.5207 81.007 98.7607 80.824 98.9047 80.662C99.0487 80.494 99.1207 80.299 99.1207 80.077C99.1207 79.831 99.0457 79.636 98.8957 79.492C98.7457 79.342 98.5417 79.267 98.2837 79.267C98.0197 79.267 97.8127 79.339 97.6627 79.483C97.5127 79.627 97.4377 79.825 97.4377 80.077C97.4377 80.269 97.4947 80.443 97.6087 80.599C97.7227 80.755 97.9147 80.959 98.1847 81.211ZM98.3377 84.46C98.6797 84.46 98.9887 84.409 99.2647 84.307C99.5407 84.199 99.7717 84.049 99.9577 83.857L98.0857 82.048C97.6837 82.246 97.3927 82.453 97.2127 82.669C97.0327 82.879 96.9427 83.134 96.9427 83.434C96.9427 83.764 97.0717 84.019 97.3297 84.199C97.5937 84.373 97.9297 84.46 98.3377 84.46ZM105.903 78.709H106.83V85H105.903V78.709ZM107.688 78.709H108.561L111.765 83.452V78.709H112.692V85H111.81L108.606 80.257V85H107.688V78.709ZM113.543 78.709H114.461L116.702 83.614L118.943 78.709H119.861V85H118.97V80.527L116.927 85H116.477L114.425 80.527V85H113.543V78.709ZM123.849 85.135C123.225 85.135 122.661 85 122.157 84.73C121.653 84.454 121.257 84.067 120.969 83.569C120.681 83.071 120.537 82.501 120.537 81.859C120.537 81.217 120.681 80.647 120.969 80.149C121.257 79.651 121.653 79.264 122.157 78.988C122.661 78.712 123.225 78.574 123.849 78.574C124.473 78.574 125.037 78.712 125.541 78.988C126.045 79.264 126.441 79.651 126.729 80.149C127.017 80.647 127.161 81.217 127.161 81.859C127.161 82.501 127.017 83.071 126.729 83.569C126.441 84.067 126.045 84.454 125.541 84.73C125.037 85 124.473 85.135 123.849 85.135ZM123.849 84.307C124.293 84.307 124.695 84.208 125.055 84.01C125.421 83.806 125.709 83.521 125.919 83.155C126.129 82.783 126.234 82.351 126.234 81.859C126.234 81.373 126.129 80.947 125.919 80.581C125.715 80.209 125.433 79.924 125.073 79.726C124.713 79.522 124.311 79.42 123.867 79.42C123.417 79.42 123.009 79.519 122.643 79.717C122.283 79.915 121.995 80.2 121.779 80.572C121.569 80.944 121.464 81.373 121.464 81.859C121.464 82.351 121.569 82.783 121.779 83.155C121.989 83.521 122.274 83.806 122.634 84.01C123 84.208 123.405 84.307 123.849 84.307ZM127.837 78.709H130.726C131.284 78.709 131.716 78.853 132.022 79.141C132.328 79.429 132.481 79.849 132.481 80.401C132.481 80.713 132.406 80.989 132.256 81.229C132.112 81.463 131.92 81.637 131.68 81.751C132.352 81.949 132.688 82.438 132.688 83.218C132.688 83.584 132.607 83.902 132.445 84.172C132.289 84.436 132.073 84.64 131.797 84.784C131.521 84.928 131.215 85 130.879 85H127.837V78.709ZM130.609 81.409C130.903 81.409 131.134 81.328 131.302 81.166C131.47 81.004 131.554 80.764 131.554 80.446C131.554 80.08 131.47 79.825 131.302 79.681C131.14 79.531 130.888 79.456 130.546 79.456H128.755V81.409H130.609ZM130.672 84.253C131.026 84.253 131.296 84.175 131.482 84.019C131.668 83.863 131.761 83.596 131.761 83.218C131.761 82.84 131.662 82.57 131.464 82.408C131.272 82.246 130.981 82.165 130.591 82.165H128.755V84.253H130.672ZM133.367 78.709H134.294V85H133.367V78.709ZM135.152 78.709H136.07V84.235H139.256V85H135.152V78.709ZM139.75 78.709H140.677V85H139.75V78.709ZM143.867 78.709H144.749L147.26 85H146.324L145.694 83.434H142.913L142.301 85H141.356L143.867 78.709ZM145.442 82.669L144.308 79.726L143.174 82.669H145.442ZM147.936 78.709H150.465C151.137 78.709 151.653 78.871 152.013 79.195C152.373 79.519 152.553 79.993 152.553 80.617C152.553 81.079 152.43 81.472 152.184 81.796C151.938 82.114 151.59 82.33 151.14 82.444L152.526 85H151.572L150.231 82.516H148.854V85H147.936V78.709ZM150.312 81.742C150.714 81.742 151.032 81.649 151.266 81.463C151.506 81.271 151.626 80.989 151.626 80.617C151.626 80.209 151.509 79.918 151.275 79.744C151.047 79.57 150.726 79.483 150.312 79.483H148.854V81.742H150.312ZM153.228 78.709H154.155V85H153.228V78.709ZM158.146 85.135C157.522 85.135 156.958 85 156.454 84.73C155.95 84.454 155.554 84.067 155.266 83.569C154.978 83.071 154.834 82.501 154.834 81.859C154.834 81.217 154.978 80.647 155.266 80.149C155.554 79.651 155.95 79.264 156.454 78.988C156.958 78.712 157.522 78.574 158.146 78.574C158.77 78.574 159.334 78.712 159.838 78.988C160.342 79.264 160.738 79.651 161.026 80.149C161.314 80.647 161.458 81.217 161.458 81.859C161.458 82.501 161.314 83.071 161.026 83.569C160.738 84.067 160.342 84.454 159.838 84.73C159.334 85 158.77 85.135 158.146 85.135ZM158.146 84.307C158.59 84.307 158.992 84.208 159.352 84.01C159.718 83.806 160.006 83.521 160.216 83.155C160.426 82.783 160.531 82.351 160.531 81.859C160.531 81.373 160.426 80.947 160.216 80.581C160.012 80.209 159.73 79.924 159.37 79.726C159.01 79.522 158.608 79.42 158.164 79.42C157.714 79.42 157.306 79.519 156.94 79.717C156.58 79.915 156.292 80.2 156.076 80.572C155.866 80.944 155.761 81.373 155.761 81.859C155.761 82.351 155.866 82.783 156.076 83.155C156.286 83.521 156.571 83.806 156.931 84.01C157.297 84.208 157.702 84.307 158.146 84.307ZM163.652 85.135C163.292 85.135 162.935 85.102 162.581 85.036C162.233 84.976 161.948 84.892 161.726 84.784V83.956C162.302 84.226 162.923 84.361 163.589 84.361C164.525 84.361 164.993 84.046 164.993 83.416C164.993 83.2 164.942 83.026 164.84 82.894C164.738 82.762 164.591 82.648 164.399 82.552C164.207 82.45 163.895 82.312 163.463 82.138C162.869 81.898 162.44 81.634 162.176 81.346C161.912 81.058 161.78 80.695 161.78 80.257C161.78 79.927 161.87 79.636 162.05 79.384C162.23 79.126 162.482 78.928 162.806 78.79C163.13 78.646 163.502 78.574 163.922 78.574C164.264 78.574 164.573 78.601 164.849 78.655C165.125 78.709 165.395 78.796 165.659 78.916V79.708C165.137 79.474 164.609 79.357 164.075 79.357C163.643 79.357 163.313 79.435 163.085 79.591C162.857 79.747 162.743 79.969 162.743 80.257C162.743 80.455 162.791 80.623 162.887 80.761C162.989 80.893 163.136 81.013 163.328 81.121C163.526 81.223 163.817 81.352 164.201 81.508C164.627 81.682 164.963 81.847 165.209 82.003C165.455 82.159 165.641 82.351 165.767 82.579C165.899 82.801 165.965 83.08 165.965 83.416C165.965 83.962 165.77 84.385 165.38 84.685C164.99 84.985 164.414 85.135 163.652 85.135Z" fill="#0E4056"/>
</svg>
