<svg width="218" height="93" viewBox="0 0 218 93" fill="none" xmlns="http://www.w3.org/2000/svg">
<path d="M10 50H218L208 93H0L10 50Z" fill="#0E4056"/>
<path d="M46.6504 82.3604L45.748 86.5986H46.2539C46.5684 86.5986 46.7803 86.6465 46.8896 86.7422C46.999 86.8379 47.0537 86.9746 47.0537 87.1523C47.0537 87.4349 46.9193 87.6696 46.6504 87.8564C46.5091 87.9521 46.279 88 45.96 88H44.1143C43.8044 88 43.5924 87.9521 43.4785 87.8564C43.3691 87.7562 43.3145 87.6195 43.3145 87.4463C43.3145 87.2184 43.4056 87.0202 43.5879 86.8516C43.7702 86.6829 44.0231 86.5986 44.3467 86.5986L45.5088 81.1162H45.29C44.9801 81.1162 44.7682 81.0684 44.6543 80.9727C44.5449 80.8724 44.4902 80.7334 44.4902 80.5557C44.4902 80.2777 44.6224 80.0452 44.8867 79.8584C45.0326 79.7581 45.2673 79.708 45.5908 79.708L47.2109 79.7148L49.6035 85.334L50.499 81.1162H49.9863C49.6764 81.1162 49.4645 81.0684 49.3506 80.9727C49.2412 80.8724 49.1865 80.7334 49.1865 80.5557C49.1865 80.2777 49.3187 80.0452 49.583 79.8584C49.7288 79.7581 49.9635 79.708 50.2871 79.708L52.1328 79.7148C52.4427 79.7148 52.6523 79.7627 52.7617 79.8584C52.8757 79.9541 52.9326 80.0908 52.9326 80.2686C52.9326 80.4964 52.8415 80.6947 52.6592 80.8633C52.4769 81.0319 52.224 81.1162 51.9004 81.1162L50.4375 88H49.0498L46.6504 82.3604ZM54.4114 84.541L53.9739 86.5986H57.5491L57.7131 85.8398C57.7815 85.5026 57.8954 85.2633 58.0549 85.1221C58.219 84.9762 58.4058 84.9033 58.6155 84.9033C58.775 84.9033 58.9071 84.9557 59.012 85.0605C59.1213 85.1608 59.176 85.2816 59.176 85.4229C59.176 85.514 59.1555 85.653 59.1145 85.8398L58.6565 88H52.053C51.7431 88 51.5312 87.9521 51.4172 87.8564C51.3079 87.7562 51.2532 87.6195 51.2532 87.4463C51.2532 87.1683 51.3853 86.9359 51.6496 86.749C51.7955 86.6488 52.0302 86.5986 52.3538 86.5986H52.5725L53.7346 81.1162H53.5159C53.206 81.1162 52.994 81.0684 52.8801 80.9727C52.7707 80.8724 52.7161 80.7334 52.7161 80.5557C52.7161 80.2777 52.8482 80.0452 53.1125 79.8584C53.2584 79.7581 53.4931 79.708 53.8166 79.708L60.1125 79.7148L59.6545 81.8477C59.5862 82.1849 59.47 82.4242 59.3059 82.5654C59.1464 82.7067 58.9618 82.7773 58.7522 82.7773C58.5927 82.7773 58.4582 82.7272 58.3489 82.627C58.244 82.5267 58.1916 82.4059 58.1916 82.2646C58.1916 82.1735 58.2121 82.0345 58.2532 81.8477L58.4104 81.1162H55.1428L54.7121 83.1396H55.9426C56.0201 82.7751 56.1021 82.5404 56.1887 82.4355C56.3801 82.2122 56.608 82.1006 56.8723 82.1006C57.0318 82.1006 57.164 82.1507 57.2688 82.251C57.3736 82.3512 57.426 82.472 57.426 82.6133C57.426 82.709 57.4055 82.8503 57.3645 83.0371L57.0227 84.6504C56.9589 84.9512 56.8791 85.1562 56.7834 85.2656C56.592 85.4798 56.3687 85.5869 56.1135 85.5869C55.954 85.5869 55.8218 85.5368 55.717 85.4365C55.6122 85.3317 55.5598 85.2087 55.5598 85.0674C55.5598 84.9717 55.5871 84.7962 55.6418 84.541H54.4114ZM67.1147 85.4365L66.7114 87.3164C65.9959 87.6628 65.4012 87.8975 64.9272 88.0205C64.4578 88.1436 63.9565 88.2051 63.4233 88.2051C62.6623 88.2051 62.0083 88.0843 61.4614 87.8428C60.9145 87.6012 60.5226 87.2845 60.2856 86.8926C60.0486 86.4961 59.9302 85.9766 59.9302 85.334C59.9302 85.0788 59.9621 84.8031 60.0259 84.5068L60.2378 83.4951C60.4337 82.5609 60.894 81.7269 61.6186 80.9932C62.5985 79.9997 63.7469 79.5029 65.0639 79.5029C65.4468 79.5029 65.8022 79.5417 66.1304 79.6191C66.463 79.6966 66.7661 79.8128 67.0395 79.9678C67.2628 79.7992 67.4611 79.7148 67.6343 79.7148C67.7938 79.7148 67.9259 79.765 68.0307 79.8652C68.1401 79.9655 68.1948 80.0863 68.1948 80.2275C68.1948 80.3187 68.1743 80.4577 68.1333 80.6445L67.9419 81.5537C67.869 81.891 67.7505 82.1325 67.5864 82.2783C67.4269 82.4196 67.2423 82.4902 67.0327 82.4902C66.8732 82.4902 66.7433 82.4401 66.643 82.3398C66.5747 82.2669 66.5337 82.1143 66.52 81.8818C66.5063 81.6494 66.4699 81.4922 66.4106 81.4102C66.3149 81.278 66.1235 81.1618 65.8364 81.0615C65.5493 80.9567 65.2098 80.9043 64.8179 80.9043C64.2846 80.9043 63.7925 81.0114 63.3413 81.2256C63.004 81.3851 62.6623 81.679 62.3159 82.1074C61.9695 82.5312 61.744 82.9938 61.6391 83.4951L61.4272 84.5068C61.3771 84.7393 61.352 84.9694 61.352 85.1973C61.352 85.6849 61.507 86.054 61.8169 86.3047C62.227 86.6374 62.8423 86.8037 63.6626 86.8037C63.9861 86.8037 64.3006 86.7741 64.6059 86.7148C64.9113 86.651 65.2098 86.5599 65.5014 86.4414L65.7134 85.4365H64.2846C63.9702 85.4365 63.756 85.3887 63.6421 85.293C63.5327 85.1927 63.478 85.0537 63.478 84.876C63.478 84.6025 63.6102 84.3724 63.8745 84.1855C64.0158 84.0807 64.2505 84.0283 64.5786 84.0283L67.0737 84.0352C67.3836 84.0352 67.5932 84.083 67.7026 84.1787C67.8165 84.2744 67.8735 84.4111 67.8735 84.5889C67.8735 84.7666 67.8074 84.9352 67.6753 85.0947C67.5477 85.2542 67.3608 85.3682 67.1147 85.4365ZM70.9245 88.2051C70.045 88.2051 69.3044 87.8975 68.7029 87.2822C68.1058 86.6624 67.8073 85.8717 67.8073 84.9102C67.8073 84.0169 68.042 83.1396 68.5114 82.2783C68.9808 81.417 69.6553 80.7197 70.5349 80.1865C71.2868 79.7308 72.032 79.5029 72.7702 79.5029C73.6407 79.5029 74.3767 79.8128 74.9782 80.4326C75.5844 81.0479 75.8874 81.8249 75.8874 82.7637C75.8874 83.4974 75.7325 84.2174 75.4226 84.9238C75.1127 85.6257 74.7185 86.2113 74.24 86.6807C73.7614 87.1455 73.2305 87.5169 72.6472 87.7949C72.0684 88.0684 71.4942 88.2051 70.9245 88.2051ZM71.2185 86.8037C71.697 86.8037 72.2006 86.6351 72.7292 86.2979C73.2579 85.9561 73.6749 85.4889 73.9802 84.8965C74.2901 84.2995 74.445 83.7025 74.445 83.1055C74.445 82.4538 74.2536 81.9251 73.8708 81.5195C73.488 81.1094 73.0209 80.9043 72.4695 80.9043C72.0046 80.9043 71.5101 81.0706 70.9861 81.4033C70.462 81.7314 70.0404 82.1917 69.7214 82.7842C69.4024 83.3766 69.2429 83.9759 69.2429 84.582C69.2429 85.2474 69.4343 85.7852 69.8171 86.1953C70.1999 86.6009 70.667 86.8037 71.2185 86.8037ZM82.7597 80.0703C82.8737 79.9518 82.9876 79.863 83.1015 79.8037C83.2155 79.7445 83.3294 79.7148 83.4433 79.7148C83.6074 79.7148 83.7418 79.765 83.8466 79.8652C83.9515 79.9655 84.0039 80.0863 84.0039 80.2275C84.0039 80.3187 83.9856 80.4577 83.9492 80.6445L83.6963 81.834C83.6233 82.1758 83.5048 82.4173 83.3408 82.5586C83.1813 82.6999 83.0013 82.7705 82.8007 82.7705C82.6321 82.7705 82.5 82.7227 82.4043 82.627C82.304 82.5358 82.2539 82.4036 82.2539 82.2305V81.957C82.2539 81.7155 82.1331 81.5013 81.8916 81.3145C81.5224 81.041 81.0621 80.9043 80.5107 80.9043C80.0914 80.9043 79.6858 80.9954 79.2939 81.1777C78.902 81.36 78.5283 81.6585 78.1728 82.0732C77.8173 82.488 77.5804 82.9733 77.4619 83.5293L77.2705 84.4385C77.2295 84.6208 77.2089 84.8008 77.2089 84.9785C77.2089 85.4935 77.4072 85.9264 77.8037 86.2773C78.2002 86.6283 78.7767 86.8037 79.5332 86.8037C80.0481 86.8037 80.4993 86.7354 80.8867 86.5986C81.1191 86.5166 81.3834 86.3525 81.6796 86.1064C81.8574 85.9606 81.9895 85.8672 82.0761 85.8262C82.1673 85.7806 82.2653 85.7578 82.3701 85.7578C82.5341 85.7578 82.6709 85.8125 82.7802 85.9219C82.8896 86.0312 82.9443 86.1657 82.9443 86.3252C82.9443 86.6533 82.6709 87.0088 82.124 87.3916C81.3401 87.9339 80.3649 88.2051 79.1982 88.2051C78.4918 88.2051 77.8698 88.0684 77.332 87.7949C76.7942 87.5215 76.4 87.1637 76.1494 86.7217C75.9033 86.2796 75.7802 85.7646 75.7802 85.1768C75.7802 84.9626 75.8076 84.7256 75.8623 84.4658L76.0673 83.5156C76.3134 82.3581 76.8899 81.401 77.7968 80.6445C78.7037 79.8835 79.6881 79.5029 80.75 79.5029C81.1556 79.5029 81.5247 79.5508 81.8574 79.6465C82.1946 79.7376 82.4954 79.8789 82.7597 80.0703ZM88.9621 81.1162L87.7932 86.5986H89.2082C89.5227 86.5986 89.7346 86.6465 89.8439 86.7422C89.9533 86.8379 90.008 86.9746 90.008 87.1523C90.008 87.4349 89.8736 87.6696 89.6047 87.8564C89.4634 87.9521 89.2333 88 88.9143 88H84.676C84.3661 88 84.1542 87.9521 84.0402 87.8564C83.9309 87.7562 83.8762 87.6195 83.8762 87.4463C83.8762 87.1637 84.0083 86.9313 84.2727 86.749C84.4185 86.6488 84.6532 86.5986 84.9768 86.5986H86.3918L87.5539 81.1162H86.1389C85.829 81.1162 85.6171 81.0684 85.5031 80.9727C85.3937 80.8724 85.3391 80.7334 85.3391 80.5557C85.3391 80.2777 85.4712 80.0452 85.7355 79.8584C85.8814 79.7581 86.1161 79.708 86.4396 79.708L90.6711 79.7148C90.9855 79.7148 91.1975 79.7627 91.3068 79.8584C91.4162 79.9541 91.4709 80.0908 91.4709 80.2686C91.4709 80.5511 91.3365 80.7858 91.0676 80.9727C90.9263 81.0684 90.6962 81.1162 90.3771 81.1162H88.9621ZM94.6791 88.2051C93.7996 88.2051 93.059 87.8975 92.4575 87.2822C91.8605 86.6624 91.562 85.8717 91.562 84.9102C91.562 84.0169 91.7967 83.1396 92.2661 82.2783C92.7355 81.417 93.4099 80.7197 94.2895 80.1865C95.0414 79.7308 95.7866 79.5029 96.5248 79.5029C97.3953 79.5029 98.1313 79.8128 98.7329 80.4326C99.339 81.0479 99.642 81.8249 99.642 82.7637C99.642 83.4974 99.4871 84.2174 99.1772 84.9238C98.8673 85.6257 98.4731 86.2113 97.9946 86.6807C97.5161 87.1455 96.9851 87.5169 96.4018 87.7949C95.823 88.0684 95.2488 88.2051 94.6791 88.2051ZM94.9731 86.8037C95.4516 86.8037 95.9552 86.6351 96.4838 86.2979C97.0125 85.9561 97.4295 85.4889 97.7348 84.8965C98.0447 84.2995 98.1996 83.7025 98.1996 83.1055C98.1996 82.4538 98.0082 81.9251 97.6254 81.5195C97.2426 81.1094 96.7755 80.9043 96.2241 80.9043C95.7592 80.9043 95.2648 81.0706 94.7407 81.4033C94.2166 81.7314 93.795 82.1917 93.476 82.7842C93.157 83.3766 92.9975 83.9759 92.9975 84.582C92.9975 85.2474 93.1889 85.7852 93.5717 86.1953C93.9545 86.6009 94.4217 86.8037 94.9731 86.8037ZM100.649 87.6445C100.499 87.7904 100.38 87.8838 100.294 87.9248C100.207 87.9658 100.109 87.9863 99.9997 87.9863C99.8311 87.9863 99.6943 87.9362 99.5895 87.8359C99.4847 87.7357 99.4323 87.6126 99.4323 87.4668C99.4323 87.3802 99.4528 87.2435 99.4938 87.0566L99.6921 86.1133C99.765 85.776 99.8812 85.5368 100.041 85.3955C100.2 85.2497 100.387 85.1768 100.601 85.1768C100.77 85.1768 100.9 85.2201 100.991 85.3066C101.082 85.3932 101.134 85.5391 101.148 85.7441C101.166 85.9492 101.203 86.0905 101.257 86.168C101.367 86.3092 101.572 86.4505 101.873 86.5918C102.178 86.7331 102.527 86.8037 102.919 86.8037C103.479 86.8037 103.98 86.6852 104.423 86.4482C104.869 86.2067 105.092 85.9082 105.092 85.5527C105.092 85.4069 105.04 85.2702 104.935 85.1426C104.835 85.015 104.662 84.9056 104.416 84.8145C104.265 84.7598 103.876 84.6709 103.247 84.5479C102.618 84.4248 102.142 84.2835 101.818 84.124C101.499 83.9645 101.248 83.7435 101.066 83.4609C100.884 83.1738 100.793 82.8503 100.793 82.4902C100.793 81.6335 101.171 80.9225 101.927 80.3574C102.688 79.7878 103.513 79.5029 104.402 79.5029C104.762 79.5029 105.086 79.5439 105.373 79.626C105.664 79.7035 105.92 79.8242 106.138 79.9883C106.362 79.8105 106.562 79.7217 106.74 79.7217C106.904 79.7217 107.038 79.7718 107.143 79.8721C107.253 79.9723 107.307 80.0931 107.307 80.2344C107.307 80.3255 107.287 80.4645 107.246 80.6514L107.02 81.7041C106.947 82.0413 106.831 82.2829 106.672 82.4287C106.512 82.57 106.33 82.6406 106.125 82.6406C105.929 82.6406 105.778 82.5791 105.674 82.4561C105.614 82.3786 105.582 82.2282 105.578 82.0049C105.578 81.7816 105.55 81.6175 105.496 81.5127C105.4 81.3441 105.231 81.2005 104.99 81.082C104.753 80.9635 104.461 80.9043 104.115 80.9043C103.55 80.9043 103.069 81.0615 102.673 81.376C102.376 81.613 102.228 81.8704 102.228 82.1484C102.228 82.3991 102.333 82.5996 102.543 82.75C102.693 82.8639 103.037 82.9779 103.575 83.0918C104.473 83.2786 105.061 83.429 105.339 83.543C105.73 83.7025 106.027 83.9258 106.227 84.2129C106.428 84.4954 106.528 84.8167 106.528 85.1768C106.528 85.6781 106.389 86.1589 106.111 86.6191C105.833 87.0749 105.38 87.4531 104.751 87.7539C104.126 88.0547 103.454 88.2051 102.734 88.2051C102.347 88.2051 101.98 88.1572 101.633 88.0615C101.287 87.9704 100.959 87.8314 100.649 87.6445ZM117.695 84.835L117.319 86.5986H117.832C118.142 86.5986 118.352 86.6465 118.461 86.7422C118.575 86.8379 118.632 86.9746 118.632 87.1523C118.632 87.4349 118.495 87.6696 118.222 87.8564C118.081 87.9521 117.85 88 117.531 88H115.399C115.089 88 114.877 87.9521 114.763 87.8564C114.653 87.7562 114.599 87.6195 114.599 87.4463C114.599 87.1683 114.731 86.9359 114.995 86.749C115.141 86.6488 115.376 86.5986 115.699 86.5986H115.918L117.08 81.1162H116.861C116.552 81.1162 116.34 81.0684 116.226 80.9727C116.116 80.8724 116.062 80.7334 116.062 80.5557C116.062 80.2777 116.194 80.0452 116.458 79.8584C116.604 79.7581 116.839 79.708 117.162 79.708L120.341 79.7148C121.216 79.7148 121.872 79.9085 122.31 80.2959C122.747 80.6787 122.966 81.1686 122.966 81.7656C122.966 82.3079 122.795 82.7979 122.453 83.2354C122.116 83.6683 121.606 84.0511 120.922 84.3838C121.159 84.6344 121.401 84.9603 121.647 85.3613C121.802 85.6165 122.002 86.029 122.248 86.5986C122.613 86.5986 122.85 86.6442 122.959 86.7354C123.073 86.8265 123.13 86.9655 123.13 87.1523C123.13 87.4349 122.996 87.6696 122.727 87.8564C122.585 87.9521 122.353 88 122.029 88H121.23C120.847 87.1022 120.471 86.3936 120.102 85.874C119.737 85.3499 119.398 85.0036 119.083 84.835H117.695ZM117.989 83.4336H119.083C119.439 83.4336 119.753 83.3926 120.027 83.3105C120.396 83.1966 120.701 83.0667 120.943 82.9209C121.12 82.8115 121.264 82.6794 121.373 82.5244C121.487 82.3649 121.544 82.2031 121.544 82.0391C121.544 81.7975 121.426 81.5833 121.189 81.3965C120.952 81.2096 120.587 81.1162 120.095 81.1162H118.488L117.989 83.4336ZM131.048 81.1162L130.207 85.0879C130.021 85.9629 129.549 86.7012 128.792 87.3027C128.04 87.9043 127.225 88.2051 126.345 88.2051C125.593 88.2051 124.971 87.9704 124.479 87.501C123.987 87.0316 123.741 86.4505 123.741 85.7578C123.741 85.5527 123.766 85.3294 123.816 85.0879L124.663 81.1162C124.395 81.1162 124.205 81.0661 124.096 80.9658C123.987 80.8656 123.932 80.7311 123.932 80.5625C123.932 80.2754 124.066 80.0407 124.335 79.8584C124.472 79.7627 124.702 79.7148 125.026 79.7148L126.871 79.708C127.181 79.708 127.391 79.7581 127.5 79.8584C127.614 79.9541 127.671 80.0908 127.671 80.2686C127.671 80.5465 127.539 80.779 127.275 80.9658C127.129 81.0661 126.894 81.1162 126.571 81.1162H126.065L125.19 85.2109C125.172 85.3112 125.162 85.4115 125.162 85.5117C125.162 85.8581 125.301 86.1611 125.579 86.4209C125.857 86.6761 126.204 86.8037 126.619 86.8037C126.969 86.8037 127.304 86.724 127.623 86.5645C127.947 86.4049 128.23 86.1771 128.471 85.8809C128.621 85.7031 128.724 85.4798 128.779 85.2109L129.647 81.1162H129.141C128.831 81.1162 128.619 81.0684 128.505 80.9727C128.396 80.8724 128.341 80.7334 128.341 80.5557C128.341 80.2777 128.473 80.0452 128.738 79.8584C128.879 79.7581 129.114 79.708 129.442 79.708L131.281 79.7148C131.595 79.7148 131.807 79.7627 131.916 79.8584C132.026 79.9541 132.08 80.0885 132.08 80.2617C132.08 80.4941 131.989 80.6947 131.807 80.8633C131.629 81.0319 131.376 81.1162 131.048 81.1162ZM133.532 84.835L133.156 86.5986H133.669C133.978 86.5986 134.188 86.6465 134.298 86.7422C134.411 86.8379 134.468 86.9746 134.468 87.1523C134.468 87.4349 134.332 87.6696 134.058 87.8564C133.917 87.9521 133.687 88 133.368 88H131.235C130.925 88 130.713 87.9521 130.599 87.8564C130.49 87.7562 130.435 87.6195 130.435 87.4463C130.435 87.1683 130.567 86.9359 130.832 86.749C130.978 86.6488 131.212 86.5986 131.536 86.5986H131.755L132.917 81.1162H132.698C132.388 81.1162 132.176 81.0684 132.062 80.9727C131.953 80.8724 131.898 80.7334 131.898 80.5557C131.898 80.2777 132.03 80.0452 132.295 79.8584C132.44 79.7581 132.675 79.708 132.999 79.708L136.177 79.7148C137.052 79.7148 137.709 79.9085 138.146 80.2959C138.584 80.6787 138.802 81.1686 138.802 81.7656C138.802 82.3079 138.631 82.7979 138.29 83.2354C137.952 83.6683 137.442 84.0511 136.758 84.3838C136.995 84.6344 137.237 84.9603 137.483 85.3613C137.638 85.6165 137.839 86.029 138.085 86.5986C138.449 86.5986 138.686 86.6442 138.796 86.7354C138.909 86.8265 138.966 86.9655 138.966 87.1523C138.966 87.4349 138.832 87.6696 138.563 87.8564C138.422 87.9521 138.189 88 137.866 88H137.066C136.683 87.1022 136.307 86.3936 135.938 85.874C135.574 85.3499 135.234 85.0036 134.92 84.835H133.532ZM133.826 83.4336H134.92C135.275 83.4336 135.589 83.3926 135.863 83.3105C136.232 83.1966 136.537 83.0667 136.779 82.9209C136.957 82.8115 137.1 82.6794 137.21 82.5244C137.324 82.3649 137.381 82.2031 137.381 82.0391C137.381 81.7975 137.262 81.5833 137.025 81.3965C136.788 81.2096 136.423 81.1162 135.931 81.1162H134.325L133.826 83.4336ZM144.41 85.7441H141.006L140.479 86.5986H140.821C141.136 86.5986 141.348 86.6465 141.457 86.7422C141.566 86.8379 141.621 86.9746 141.621 87.1523C141.621 87.4349 141.487 87.6696 141.218 87.8564C141.076 87.9521 140.846 88 140.527 88H138.634C138.324 88 138.114 87.9521 138.005 87.8564C137.891 87.7562 137.834 87.6195 137.834 87.4463C137.834 87.2093 137.927 87.0065 138.114 86.8379C138.306 86.6693 138.59 86.5895 138.969 86.5986L142.339 81.1162H141.416C141.106 81.1162 140.894 81.0684 140.78 80.9727C140.671 80.8724 140.616 80.7334 140.616 80.5557C140.616 80.2777 140.748 80.0452 141.013 79.8584C141.158 79.7581 141.393 79.708 141.717 79.708H144.745L146.071 86.5986C146.39 86.5895 146.609 86.6351 146.727 86.7354C146.846 86.8356 146.905 86.9746 146.905 87.1523C146.905 87.4349 146.768 87.6696 146.495 87.8564C146.358 87.9521 146.128 88 145.805 88H143.918C143.608 88 143.396 87.9521 143.282 87.8564C143.173 87.7562 143.118 87.6195 143.118 87.4463C143.118 87.1683 143.25 86.9359 143.515 86.749C143.66 86.6488 143.895 86.5986 144.219 86.5986H144.56L144.41 85.7441ZM144.123 84.3428L143.583 81.5674L141.86 84.3428H144.123ZM151.016 81.1162L149.854 86.5986H152.868L153.149 85.2725C153.221 84.9352 153.338 84.696 153.497 84.5547C153.661 84.4089 153.848 84.3359 154.058 84.3359C154.217 84.3359 154.349 84.3883 154.454 84.4932C154.559 84.5934 154.611 84.7119 154.611 84.8486C154.611 84.9443 154.593 85.0856 154.557 85.2725L153.976 88H147.331C147.021 88 146.809 87.9521 146.695 87.8564C146.586 87.7562 146.531 87.6195 146.531 87.4463C146.531 87.1637 146.664 86.9313 146.928 86.749C147.074 86.6488 147.308 86.5986 147.632 86.5986H148.445L149.614 81.1162H148.794C148.484 81.1162 148.272 81.0684 148.158 80.9727C148.049 80.8724 147.994 80.7334 147.994 80.5557C147.994 80.2777 148.126 80.0452 148.391 79.8584C148.537 79.7581 148.771 79.708 149.095 79.708L152.13 79.7148C152.444 79.7148 152.656 79.7627 152.766 79.8584C152.88 79.9541 152.937 80.0908 152.937 80.2686C152.937 80.5511 152.8 80.7858 152.526 80.9727C152.385 81.0684 152.155 81.1162 151.836 81.1162H151.016ZM157.348 84.541L156.911 86.5986H160.486L160.65 85.8398C160.718 85.5026 160.832 85.2633 160.992 85.1221C161.156 84.9762 161.342 84.9033 161.552 84.9033C161.712 84.9033 161.844 84.9557 161.949 85.0605C162.058 85.1608 162.113 85.2816 162.113 85.4229C162.113 85.514 162.092 85.653 162.051 85.8398L161.593 88H154.99C154.68 88 154.468 87.9521 154.354 87.8564C154.244 87.7562 154.19 87.6195 154.19 87.4463C154.19 87.1683 154.322 86.9359 154.586 86.749C154.732 86.6488 154.967 86.5986 155.29 86.5986H155.509L156.671 81.1162H156.452C156.143 81.1162 155.931 81.0684 155.817 80.9727C155.707 80.8724 155.653 80.7334 155.653 80.5557C155.653 80.2777 155.785 80.0452 156.049 79.8584C156.195 79.7581 156.43 79.708 156.753 79.708L163.049 79.7148L162.591 81.8477C162.523 82.1849 162.407 82.4242 162.243 82.5654C162.083 82.7067 161.898 82.7773 161.689 82.7773C161.529 82.7773 161.395 82.7272 161.286 82.627C161.181 82.5267 161.128 82.4059 161.128 82.2646C161.128 82.1735 161.149 82.0345 161.19 81.8477L161.347 81.1162H158.079L157.649 83.1396H158.879C158.957 82.7751 159.039 82.5404 159.125 82.4355C159.317 82.2122 159.545 82.1006 159.809 82.1006C159.968 82.1006 160.101 82.1507 160.205 82.251C160.31 82.3512 160.363 82.472 160.363 82.6133C160.363 82.709 160.342 82.8503 160.301 83.0371L159.959 84.6504C159.896 84.9512 159.816 85.1562 159.72 85.2656C159.529 85.4798 159.305 85.5869 159.05 85.5869C158.891 85.5869 158.758 85.5368 158.654 85.4365C158.549 85.3317 158.496 85.2087 158.496 85.0674C158.496 84.9717 158.524 84.7962 158.578 84.541H157.348ZM163.995 87.6445C163.844 87.7904 163.726 87.8838 163.639 87.9248C163.553 87.9658 163.455 87.9863 163.345 87.9863C163.177 87.9863 163.04 87.9362 162.935 87.8359C162.83 87.7357 162.778 87.6126 162.778 87.4668C162.778 87.3802 162.798 87.2435 162.839 87.0566L163.038 86.1133C163.111 85.776 163.227 85.5368 163.386 85.3955C163.546 85.2497 163.733 85.1768 163.947 85.1768C164.115 85.1768 164.245 85.2201 164.337 85.3066C164.428 85.3932 164.48 85.5391 164.494 85.7441C164.512 85.9492 164.548 86.0905 164.603 86.168C164.713 86.3092 164.918 86.4505 165.218 86.5918C165.524 86.7331 165.872 86.8037 166.264 86.8037C166.825 86.8037 167.326 86.6852 167.768 86.4482C168.215 86.2067 168.438 85.9082 168.438 85.5527C168.438 85.4069 168.386 85.2702 168.281 85.1426C168.181 85.015 168.007 84.9056 167.761 84.8145C167.611 84.7598 167.221 84.6709 166.592 84.5479C165.963 84.4248 165.487 84.2835 165.164 84.124C164.845 83.9645 164.594 83.7435 164.412 83.4609C164.229 83.1738 164.138 82.8503 164.138 82.4902C164.138 81.6335 164.517 80.9225 165.273 80.3574C166.034 79.7878 166.859 79.5029 167.748 79.5029C168.108 79.5029 168.431 79.5439 168.718 79.626C169.01 79.7035 169.265 79.8242 169.484 79.9883C169.707 79.8105 169.908 79.7217 170.086 79.7217C170.25 79.7217 170.384 79.7718 170.489 79.8721C170.598 79.9723 170.653 80.0931 170.653 80.2344C170.653 80.3255 170.632 80.4645 170.591 80.6514L170.366 81.7041C170.293 82.0413 170.177 82.2829 170.017 82.4287C169.858 82.57 169.675 82.6406 169.47 82.6406C169.274 82.6406 169.124 82.5791 169.019 82.4561C168.96 82.3786 168.928 82.2282 168.923 82.0049C168.923 81.7816 168.896 81.6175 168.841 81.5127C168.746 81.3441 168.577 81.2005 168.336 81.082C168.099 80.9635 167.807 80.9043 167.461 80.9043C166.895 80.9043 166.415 81.0615 166.018 81.376C165.722 81.613 165.574 81.8704 165.574 82.1484C165.574 82.3991 165.679 82.5996 165.888 82.75C166.039 82.8639 166.383 82.9779 166.921 83.0918C167.818 83.2786 168.406 83.429 168.684 83.543C169.076 83.7025 169.372 83.9258 169.573 84.2129C169.773 84.4954 169.874 84.8167 169.874 85.1768C169.874 85.6781 169.735 86.1589 169.457 86.6191C169.179 87.0749 168.725 87.4531 168.096 87.7539C167.472 88.0547 166.8 88.2051 166.08 88.2051C165.692 88.2051 165.325 88.1572 164.979 88.0615C164.633 87.9704 164.305 87.8314 163.995 87.6445Z" fill="#C3CFD5"/>
<path d="M17.3184 68.5371L18.9785 58.7812H22.3184L20.6582 68.5371C20.5345 69.4616 20.2253 70.2786 19.7305 70.9883C19.2357 71.6914 18.6042 72.2415 17.8359 72.6387C17.0677 73.0293 16.2148 73.2181 15.2773 73.2051C14.3398 73.1855 13.5488 72.9935 12.9043 72.6289C12.2663 72.2643 11.7845 71.75 11.459 71.0859C11.14 70.4154 10.9935 69.6178 11.0195 68.6934L14.3887 68.7031C14.3691 69.0091 14.3757 69.3053 14.4082 69.5918C14.4408 69.8717 14.5384 70.1029 14.7012 70.2852C14.8639 70.4674 15.1341 70.5618 15.5117 70.5684C15.8893 70.5814 16.2018 70.487 16.4492 70.2852C16.6966 70.0768 16.8887 69.8164 17.0254 69.5039C17.1686 69.1914 17.2663 68.8691 17.3184 68.5371ZM34.277 65.5488L34.2086 66.125C34.0784 67.056 33.8277 67.9512 33.4566 68.8105C33.0921 69.6634 32.6103 70.4219 32.0113 71.0859C31.4189 71.75 30.7158 72.2741 29.902 72.6582C29.0882 73.0358 28.1734 73.2148 27.1578 73.1953C26.1812 73.1758 25.3479 72.9674 24.6578 72.5703C23.9742 72.1732 23.4273 71.6426 23.0172 70.9785C22.6135 70.3145 22.3401 69.569 22.1969 68.7422C22.0536 67.9154 22.0341 67.0625 22.1383 66.1836L22.2066 65.6074C22.3368 64.6829 22.5875 63.7975 22.9586 62.9512C23.3297 62.0983 23.8147 61.3398 24.4137 60.6758C25.0126 60.0117 25.719 59.4941 26.5328 59.123C27.3466 58.7454 28.2581 58.5664 29.2672 58.5859C30.2372 58.599 31.0641 58.804 31.7477 59.2012C32.4312 59.5983 32.9749 60.1289 33.3785 60.793C33.7887 61.4505 34.0654 62.1927 34.2086 63.0195C34.3583 63.8398 34.3811 64.6829 34.277 65.5488ZM30.8102 66.1836L30.8883 65.5781C30.9339 65.194 30.9632 64.7611 30.9762 64.2793C30.9892 63.7975 30.9469 63.332 30.8492 62.8828C30.7516 62.4271 30.5628 62.0495 30.2828 61.75C30.0094 61.4505 29.6057 61.2878 29.0719 61.2617C28.4794 61.2357 27.9781 61.3561 27.568 61.623C27.1578 61.8835 26.8193 62.235 26.5523 62.6777C26.2919 63.1139 26.0868 63.5892 25.9371 64.1035C25.7874 64.6178 25.6799 65.1126 25.6148 65.5879L25.5367 66.1934C25.4911 66.5775 25.4586 67.0137 25.4391 67.502C25.426 67.9837 25.4651 68.4525 25.5562 68.9082C25.6539 69.3639 25.8427 69.7448 26.1227 70.0508C26.4026 70.3503 26.8128 70.5098 27.3531 70.5293C27.9326 70.5553 28.4273 70.4349 28.8375 70.168C29.2477 69.8945 29.5862 69.5365 29.8531 69.0938C30.1266 68.651 30.3382 68.1725 30.4879 67.6582C30.6441 67.1439 30.7516 66.6523 30.8102 66.1836ZM41.8996 69.1523C41.9582 68.8464 41.9354 68.5859 41.8312 68.3711C41.7336 68.1562 41.5839 67.974 41.382 67.8242C41.1867 67.6745 40.9621 67.5475 40.7082 67.4434C40.4608 67.3327 40.2199 67.2318 39.9855 67.1406C39.4777 66.9388 38.9764 66.7109 38.4816 66.457C37.9868 66.1966 37.5376 65.8906 37.134 65.5391C36.7303 65.1875 36.4146 64.7773 36.1867 64.3086C35.9654 63.8398 35.871 63.2897 35.9035 62.6582C35.9491 61.9355 36.1542 61.3138 36.5187 60.793C36.8833 60.2721 37.3488 59.849 37.9152 59.5234C38.4882 59.1914 39.1034 58.9505 39.7609 58.8008C40.425 58.6445 41.0728 58.5729 41.7043 58.5859C42.6027 58.599 43.4035 58.7812 44.1066 59.1328C44.8163 59.4844 45.3729 59.9889 45.7766 60.6465C46.1802 61.2975 46.3755 62.0853 46.3625 63.0098H43.052C43.065 62.6452 43.0161 62.3294 42.9055 62.0625C42.8013 61.7891 42.6288 61.5775 42.3879 61.4277C42.147 61.2715 41.8345 61.1901 41.4504 61.1836C41.1314 61.1771 40.8124 61.2292 40.4934 61.3398C40.1743 61.444 39.8977 61.6068 39.6633 61.8281C39.4289 62.0495 39.2792 62.3359 39.2141 62.6875C39.1685 62.9544 39.2108 63.1888 39.341 63.3906C39.4712 63.5859 39.6503 63.7552 39.8781 63.8984C40.106 64.0352 40.3436 64.1523 40.591 64.25C40.8449 64.3477 41.0663 64.4323 41.2551 64.5039C41.7889 64.7057 42.3 64.9434 42.7883 65.2168C43.2831 65.4837 43.7193 65.7995 44.0969 66.1641C44.481 66.5286 44.774 66.9551 44.9758 67.4434C45.1841 67.9251 45.2687 68.485 45.2297 69.123C45.1776 69.8587 44.9823 70.487 44.6437 71.0078C44.3052 71.5286 43.869 71.9518 43.3352 72.2773C42.8013 72.6029 42.2154 72.8405 41.5773 72.9902C40.9393 73.14 40.2915 73.2116 39.634 73.2051C38.8983 73.1921 38.2115 73.0814 37.5734 72.873C36.9354 72.6582 36.3788 72.349 35.9035 71.9453C35.4283 71.5352 35.0604 71.0339 34.8 70.4414C34.5396 69.8424 34.4159 69.1556 34.4289 68.3809L37.7785 68.3906C37.759 68.7552 37.7818 69.0775 37.8469 69.3574C37.9185 69.6309 38.0357 69.862 38.1984 70.0508C38.3677 70.2331 38.5858 70.373 38.8527 70.4707C39.1197 70.5618 39.4419 70.6074 39.8195 70.6074C40.1385 70.6074 40.4445 70.5586 40.7375 70.4609C41.037 70.3568 41.2909 70.1973 41.4992 69.9824C41.7076 69.7676 41.841 69.4909 41.8996 69.1523ZM55.6453 70.3633L55.1863 73H47.8133L48.2723 70.3633H55.6453ZM51.4852 58.7812L49.0145 73H45.6746L48.1355 58.7812H51.4852ZM55.7234 64.4258L55.284 66.9746H48.8582L49.3074 64.4258H55.7234ZM57.6766 58.7812L57.2176 61.4277H49.8152L50.284 58.7812H57.6766ZM51.7781 58.0391L54.1316 54.9727H57.7156L54.5906 58.0391H51.7781ZM68.8789 68.1953L72.1504 68.1562C72.0592 69.237 71.7109 70.1582 71.1055 70.9199C70.5065 71.6751 69.748 72.248 68.8301 72.6387C67.9186 73.0293 66.9453 73.2148 65.9102 73.1953C64.9271 73.1758 64.1003 72.974 63.4297 72.5898C62.7591 72.1992 62.2318 71.6784 61.8477 71.0273C61.4635 70.3698 61.2096 69.6341 61.0859 68.8203C60.9622 68 60.9557 67.1536 61.0664 66.2812L61.1738 65.5098C61.304 64.6048 61.5449 63.7357 61.8965 62.9023C62.248 62.0625 62.707 61.3138 63.2734 60.6562C63.8464 59.9987 64.5267 59.4844 65.3145 59.1133C66.1022 58.7357 66.9941 58.5566 67.9902 58.5762C69.0514 58.5957 69.9531 58.8171 70.6953 59.2402C71.444 59.6634 72.0234 60.2559 72.4336 61.0176C72.8503 61.7793 73.0846 62.6777 73.1367 63.7129L69.8066 63.7031C69.8262 63.2018 69.7773 62.7721 69.6602 62.4141C69.543 62.056 69.3346 61.7793 69.0352 61.584C68.7422 61.3822 68.3288 61.2715 67.7949 61.252C67.2155 61.2324 66.7305 61.3529 66.3398 61.6133C65.9557 61.8672 65.6432 62.209 65.4023 62.6387C65.1615 63.0684 64.9759 63.5339 64.8457 64.0352C64.722 64.5365 64.6276 65.0215 64.5625 65.4902L64.4648 66.291C64.4193 66.6751 64.377 67.1081 64.3379 67.5898C64.2988 68.0651 64.3151 68.5241 64.3867 68.9668C64.4583 69.403 64.6243 69.7676 64.8848 70.0605C65.1452 70.3535 65.5521 70.5098 66.1055 70.5293C66.6263 70.5423 67.0788 70.4609 67.4629 70.2852C67.847 70.1029 68.1562 69.8359 68.3906 69.4844C68.6315 69.1263 68.7943 68.6966 68.8789 68.1953ZM80.193 61.9355L74.9586 73H71.2574L78.7965 58.7812H81.1598L80.193 61.9355ZM81.0914 73L79.6461 61.5938L79.7242 58.7812H81.9508L84.5777 73H81.0914ZM81.8531 67.6973L81.3844 70.3438H74.2848L74.7535 67.6973H81.8531ZM87.4934 58.7812L92.757 58.791C93.6229 58.804 94.4204 58.9603 95.1496 59.2598C95.8788 59.5592 96.4517 60.0182 96.8684 60.6367C97.285 61.2487 97.4608 62.0332 97.3957 62.9902C97.3371 63.778 97.1613 64.4421 96.8684 64.9824C96.5754 65.5163 96.1783 65.972 95.677 66.3496C95.1757 66.7272 94.5865 67.0625 93.9094 67.3555L92.6984 67.9805H87.9719L88.4211 65.334L91.634 65.3535C92.0637 65.347 92.4445 65.2624 92.7766 65.0996C93.1151 64.9368 93.3918 64.7057 93.6066 64.4062C93.8215 64.1068 93.9582 63.7422 94.0168 63.3125C94.0689 62.9609 94.0559 62.6484 93.9777 62.375C93.8996 62.0951 93.7499 61.8737 93.5285 61.7109C93.3072 61.5482 93.0142 61.457 92.6496 61.4375L90.384 61.4277L88.3723 73H85.0324L87.4934 58.7812ZM92.6594 73L90.6965 66.7109L94.0852 66.6914L96.2238 72.834V73H92.6594ZM106.679 70.3633L106.22 73H99.2273L99.6863 70.3633H106.679ZM102.899 58.7812L100.429 73H97.0887L99.5496 58.7812H102.899ZM119.34 65.5488L119.272 66.125C119.142 67.056 118.891 67.9512 118.52 68.8105C118.155 69.6634 117.674 70.4219 117.075 71.0859C116.482 71.75 115.779 72.2741 114.965 72.6582C114.151 73.0358 113.237 73.2148 112.221 73.1953C111.245 73.1758 110.411 72.9674 109.721 72.5703C109.037 72.1732 108.491 71.6426 108.08 70.9785C107.677 70.3145 107.403 69.569 107.26 68.7422C107.117 67.9154 107.097 67.0625 107.202 66.1836L107.27 65.6074C107.4 64.6829 107.651 63.7975 108.022 62.9512C108.393 62.0983 108.878 61.3398 109.477 60.6758C110.076 60.0117 110.782 59.4941 111.596 59.123C112.41 58.7454 113.321 58.5664 114.33 58.5859C115.301 58.599 116.127 58.804 116.811 59.2012C117.495 59.5983 118.038 60.1289 118.442 60.793C118.852 61.4505 119.129 62.1927 119.272 63.0195C119.422 63.8398 119.444 64.6829 119.34 65.5488ZM115.873 66.1836L115.952 65.5781C115.997 65.194 116.026 64.7611 116.039 64.2793C116.052 63.7975 116.01 63.332 115.912 62.8828C115.815 62.4271 115.626 62.0495 115.346 61.75C115.073 61.4505 114.669 61.2878 114.135 61.2617C113.543 61.2357 113.041 61.3561 112.631 61.623C112.221 61.8835 111.883 62.235 111.616 62.6777C111.355 63.1139 111.15 63.5892 111 64.1035C110.851 64.6178 110.743 65.1126 110.678 65.5879L110.6 66.1934C110.554 66.5775 110.522 67.0137 110.502 67.502C110.489 67.9837 110.528 68.4525 110.62 68.9082C110.717 69.3639 110.906 69.7448 111.186 70.0508C111.466 70.3503 111.876 70.5098 112.416 70.5293C112.996 70.5553 113.491 70.4349 113.901 70.168C114.311 69.8945 114.649 69.5365 114.916 69.0938C115.19 68.651 115.401 68.1725 115.551 67.6582C115.707 67.1439 115.815 66.6523 115.873 66.1836ZM126.963 69.1523C127.021 68.8464 126.999 68.5859 126.895 68.3711C126.797 68.1562 126.647 67.974 126.445 67.8242C126.25 67.6745 126.025 67.5475 125.771 67.4434C125.524 67.3327 125.283 67.2318 125.049 67.1406C124.541 66.9388 124.04 66.7109 123.545 66.457C123.05 66.1966 122.601 65.8906 122.197 65.5391C121.794 65.1875 121.478 64.7773 121.25 64.3086C121.029 63.8398 120.934 63.2897 120.967 62.6582C121.012 61.9355 121.217 61.3138 121.582 60.793C121.947 60.2721 122.412 59.849 122.979 59.5234C123.551 59.1914 124.167 58.9505 124.824 58.8008C125.488 58.6445 126.136 58.5729 126.768 58.5859C127.666 58.599 128.467 58.7812 129.17 59.1328C129.88 59.4844 130.436 59.9889 130.84 60.6465C131.243 61.2975 131.439 62.0853 131.426 63.0098H128.115C128.128 62.6452 128.079 62.3294 127.969 62.0625C127.865 61.7891 127.692 61.5775 127.451 61.4277C127.21 61.2715 126.898 61.1901 126.514 61.1836C126.195 61.1771 125.876 61.2292 125.557 61.3398C125.238 61.444 124.961 61.6068 124.727 61.8281C124.492 62.0495 124.342 62.3359 124.277 62.6875C124.232 62.9544 124.274 63.1888 124.404 63.3906C124.535 63.5859 124.714 63.7552 124.941 63.8984C125.169 64.0352 125.407 64.1523 125.654 64.25C125.908 64.3477 126.13 64.4323 126.318 64.5039C126.852 64.7057 127.363 64.9434 127.852 65.2168C128.346 65.4837 128.783 65.7995 129.16 66.1641C129.544 66.5286 129.837 66.9551 130.039 67.4434C130.247 67.9251 130.332 68.485 130.293 69.123C130.241 69.8587 130.046 70.487 129.707 71.0078C129.368 71.5286 128.932 71.9518 128.398 72.2773C127.865 72.6029 127.279 72.8405 126.641 72.9902C126.003 73.14 125.355 73.2116 124.697 73.2051C123.962 73.1921 123.275 73.0814 122.637 72.873C121.999 72.6582 121.442 72.349 120.967 71.9453C120.492 71.5352 120.124 71.0339 119.863 70.4414C119.603 69.8424 119.479 69.1556 119.492 68.3809L122.842 68.3906C122.822 68.7552 122.845 69.0775 122.91 69.3574C122.982 69.6309 123.099 69.862 123.262 70.0508C123.431 70.2331 123.649 70.373 123.916 70.4707C124.183 70.5618 124.505 70.6074 124.883 70.6074C125.202 70.6074 125.508 70.5586 125.801 70.4609C126.1 70.3568 126.354 70.1973 126.562 69.9824C126.771 69.7676 126.904 69.4909 126.963 69.1523ZM137.54 58.7812L142.804 58.791C143.67 58.804 144.467 58.9603 145.196 59.2598C145.926 59.5592 146.499 60.0182 146.915 60.6367C147.332 61.2487 147.508 62.0332 147.443 62.9902C147.384 63.778 147.208 64.4421 146.915 64.9824C146.622 65.5163 146.225 65.972 145.724 66.3496C145.223 66.7272 144.633 67.0625 143.956 67.3555L142.745 67.9805H138.019L138.468 65.334L141.681 65.3535C142.111 65.347 142.491 65.2624 142.823 65.0996C143.162 64.9368 143.439 64.7057 143.654 64.4062C143.868 64.1068 144.005 63.7422 144.064 63.3125C144.116 62.9609 144.103 62.6484 144.025 62.375C143.946 62.0951 143.797 61.8737 143.575 61.7109C143.354 61.5482 143.061 61.457 142.696 61.4375L140.431 61.4277L138.419 73H135.079L137.54 58.7812ZM142.706 73L140.743 66.7109L144.132 66.6914L146.271 72.834V73H142.706ZM154.919 61.9355L149.684 73H145.983L153.522 58.7812H155.886L154.919 61.9355ZM155.817 73L154.372 61.5938L154.45 58.7812H156.677L159.304 73H155.817ZM156.579 67.6973L156.11 70.3438H149.011L149.479 67.6973H156.579ZM163.928 58.7812H166.545L167.903 68.6445L172.688 58.7812H175.52L168.371 73H166.155L163.928 58.7812ZM162.219 58.7812H165.041L163.655 69.8262L163.098 73H159.758L162.219 58.7812ZM174.28 58.7812H177.121L174.661 73H171.301L171.907 69.543L174.28 58.7812ZM189.119 65.5488L189.051 66.125C188.921 67.056 188.67 67.9512 188.299 68.8105C187.934 69.6634 187.452 70.4219 186.854 71.0859C186.261 71.75 185.558 72.2741 184.744 72.6582C183.93 73.0358 183.016 73.2148 182 73.1953C181.023 73.1758 180.19 72.9674 179.5 72.5703C178.816 72.1732 178.27 71.6426 177.859 70.9785C177.456 70.3145 177.182 69.569 177.039 68.7422C176.896 67.9154 176.876 67.0625 176.98 66.1836L177.049 65.6074C177.179 64.6829 177.43 63.7975 177.801 62.9512C178.172 62.0983 178.657 61.3398 179.256 60.6758C179.855 60.0117 180.561 59.4941 181.375 59.123C182.189 58.7454 183.1 58.5664 184.109 58.5859C185.079 58.599 185.906 58.804 186.59 59.2012C187.273 59.5983 187.817 60.1289 188.221 60.793C188.631 61.4505 188.908 62.1927 189.051 63.0195C189.201 63.8398 189.223 64.6829 189.119 65.5488ZM185.652 66.1836L185.73 65.5781C185.776 65.194 185.805 64.7611 185.818 64.2793C185.831 63.7975 185.789 63.332 185.691 62.8828C185.594 62.4271 185.405 62.0495 185.125 61.75C184.852 61.4505 184.448 61.2878 183.914 61.2617C183.322 61.2357 182.82 61.3561 182.41 61.623C182 61.8835 181.661 62.235 181.395 62.6777C181.134 63.1139 180.929 63.5892 180.779 64.1035C180.63 64.6178 180.522 65.1126 180.457 65.5879L180.379 66.1934C180.333 66.5775 180.301 67.0137 180.281 67.502C180.268 67.9837 180.307 68.4525 180.398 68.9082C180.496 69.3639 180.685 69.7448 180.965 70.0508C181.245 70.3503 181.655 70.5098 182.195 70.5293C182.775 70.5553 183.27 70.4349 183.68 70.168C184.09 69.8945 184.428 69.5365 184.695 69.0938C184.969 68.651 185.18 68.1725 185.33 67.6582C185.486 67.1439 185.594 66.6523 185.652 66.1836ZM182.84 58.0391L185.193 54.9727H188.777L185.652 58.0391H182.84ZM202.972 58.7812L200.502 73H197.259L193.871 64.0254L192.308 73H188.968L191.429 58.7812H194.691L198.08 67.7559L199.632 58.7812H202.972Z" fill="#C3CFD5"/>
<g filter="url(#filter0_d_314_3)">
<path d="M48.8395 29.9173L57.2274 2.57872H74.1018L65.714 29.9173C65.089 32.508 63.5265 34.7976 61.0266 36.7862C58.5267 38.7565 55.336 40.2981 51.4546 41.411C47.5731 42.5056 43.264 43.0347 38.5274 42.9982C33.7907 42.9435 29.7941 42.4053 26.5376 41.3836C23.314 40.362 20.8799 38.9207 19.2352 37.0598C17.6234 35.1807 16.8833 32.9458 17.0149 30.3552L34.0374 30.3825C33.9387 31.24 33.9716 32.0701 34.136 32.8728C34.3005 33.6573 34.7939 34.305 35.6163 34.8158C36.4386 35.3266 37.8037 35.5912 39.7115 35.6094C41.6194 35.6459 43.1983 35.3814 44.4482 34.8158C45.6982 34.232 46.6685 33.5022 47.3593 32.6265C48.083 31.7508 48.5764 30.8478 48.8395 29.9173Z" fill="#C3CFD5"/>
<path d="M115.597 28.9595L132.126 28.85C131.666 31.8785 129.906 34.4601 126.847 36.5946C123.821 38.7109 119.989 40.3164 115.351 41.411C110.745 42.5056 105.828 43.0256 100.598 42.9709C95.6308 42.9161 91.4533 42.3506 88.0652 41.2742C84.6772 40.1795 82.0128 38.72 80.0721 36.8956C78.1313 35.053 76.8485 32.9914 76.2235 30.7109C75.5985 28.4122 75.5656 26.0405 76.1248 23.5958L76.6676 21.4339C77.3254 18.898 78.5425 16.4624 80.3188 14.1272C82.095 11.7737 84.414 9.67563 87.2758 7.83299C90.1704 5.99034 93.6078 4.54907 97.5879 3.50916C101.568 2.45101 106.074 1.94931 111.107 2.00404C116.469 2.05877 121.025 2.67906 124.775 3.86492C128.557 5.05078 131.485 6.71098 133.557 8.84553C135.662 10.9801 136.847 13.4977 137.11 16.3985L120.285 16.3712C120.383 14.9664 120.137 13.7623 119.544 12.7589C118.952 11.7554 117.9 10.9801 116.387 10.4328C114.906 9.86719 112.818 9.55704 110.12 9.50231C107.193 9.44758 104.742 9.78509 102.769 10.5148C100.828 11.2264 99.2491 12.1842 98.032 13.3883C96.8149 14.5924 95.8775 15.8968 95.2196 17.3016C94.5946 18.7064 94.1176 20.0656 93.7887 21.3791L93.2953 23.6231C93.0651 24.6995 92.8512 25.9128 92.6539 27.2628C92.4565 28.5946 92.5387 29.8808 92.9006 31.1214C93.2624 32.3438 94.1012 33.3654 95.4169 34.1864C96.7327 35.0074 98.7885 35.4452 101.585 35.5C104.216 35.5365 106.502 35.3084 108.443 34.8158C110.384 34.305 111.946 33.557 113.13 32.5718C114.347 31.5684 115.17 30.3643 115.597 28.9595Z" fill="#C3CFD5"/>
<path d="M148.902 2.57872L175.497 2.60609C179.871 2.64258 183.901 3.08043 187.585 3.91965C191.269 4.75888 194.164 6.04508 196.269 7.77825C198.374 9.49319 199.262 11.6916 198.933 14.3734C198.637 16.581 197.749 18.4419 196.269 19.9561C194.789 21.4521 192.782 22.7292 190.249 23.7873C187.717 24.8455 184.74 25.7851 181.319 26.606L175.201 28.3574H151.32L153.589 20.9413L169.822 20.996C171.993 20.9778 173.918 20.7406 175.595 20.2845C177.306 19.8284 178.704 19.1807 179.789 18.3415C180.875 17.5023 181.565 16.4806 181.862 15.2765C182.125 14.2914 182.059 13.4156 181.664 12.6494C181.269 11.8649 180.513 11.2446 179.394 10.7885C178.276 10.3324 176.796 10.077 174.954 10.0223L163.507 9.9949L153.343 42.4236H136.468L148.902 2.57872ZM175.003 42.4236L165.086 24.7999L182.207 24.7451L193.012 41.9583V42.4236H175.003Z" fill="#C3CFD5"/>
<path d="M114.855 27.9644L115.591 27.9595L132.12 27.8501L133.291 27.8423L133.115 29.0004C132.604 32.3571 130.65 35.16 127.419 37.4147C124.264 39.6209 120.307 41.2687 115.58 42.3843C110.889 43.4993 105.89 44.0263 100.587 43.9708L100.587 43.9708C95.5568 43.9154 91.274 43.3429 87.7624 42.2272L87.7578 42.2258C84.2741 41.1002 81.4655 39.5781 79.3871 37.6242L79.3835 37.6208C77.3283 35.6695 75.9384 33.4539 75.2591 30.9752L75.2585 30.9733C74.5882 28.5076 74.5562 25.9689 75.15 23.3728L75.1523 23.3625L75.1549 23.3523L75.6977 21.1904L75.6996 21.1827L75.6996 21.1828C76.3944 18.5045 77.6754 15.9509 79.5217 13.5232C81.3787 11.0631 83.7893 8.8885 86.7344 6.9922L86.7388 6.98939C89.7361 5.08141 93.2726 3.60325 97.3332 2.54216C101.417 1.45673 106.015 0.948619 111.118 1.00409L114.855 27.9644ZM114.855 27.9644L114.641 28.6683C114.275 29.8708 113.571 30.9122 112.494 31.8002L112.491 31.8031C111.448 32.6704 110.031 33.3633 108.192 33.8477M114.855 27.9644L108.192 33.8477M108.192 33.8477C106.36 34.3122 104.168 34.5355 101.601 34.5001C98.8628 34.4462 97.0293 34.0138 95.9463 33.338C94.7917 32.6175 94.1385 31.7785 93.86 30.8394C93.5407 29.7437 93.466 28.604 93.6431 27.4094L93.6434 27.4075C93.8381 26.0754 94.048 24.8853 94.2725 23.8353C94.2728 23.8343 94.273 23.8333 94.2732 23.8323L94.7623 21.6079C95.0747 20.3644 95.5289 19.0676 96.1293 17.717C96.7321 16.4327 97.596 15.2264 98.7353 14.0992C99.8315 13.0146 101.279 12.1259 103.113 11.4537L103.115 11.4528C104.936 10.7797 107.253 10.449 110.101 10.5021C112.752 10.5559 114.707 10.8615 116.03 11.3669L116.038 11.3701L116.047 11.3731C117.424 11.8713 118.247 12.5284 118.683 13.2671C119.152 14.0623 119.375 15.0556 119.287 16.3011L119.212 17.3694L120.283 17.3712L137.108 17.3985L138.205 17.4003L138.106 16.3082C137.821 13.1708 136.533 10.4399 134.272 8.14632C132.052 5.86092 128.964 4.13035 125.075 2.91115C121.204 1.68713 116.545 1.05954 111.118 1.0041L108.192 33.8477ZM47.8835 29.624L47.8803 29.6345L47.8773 29.6452C47.6579 30.4207 47.239 31.2023 46.5884 31.9895L46.5812 31.9983L46.5742 32.0072C46.0012 32.7336 45.1692 33.3745 44.0306 33.9071C42.9589 34.3908 41.5414 34.6442 39.7306 34.6096V34.6096L39.7211 34.6095C37.8497 34.5916 36.7209 34.3248 36.1439 33.9664C35.5027 33.568 35.2126 33.1317 35.1152 32.6697C34.9735 31.9767 34.9437 31.254 35.0308 30.4969L35.1588 29.3843L34.039 29.3825L17.0165 29.3552L16.0645 29.3536L16.0162 30.3044C15.8723 33.1376 16.6889 35.6271 18.4762 37.7109L18.481 37.7165L18.4859 37.7221C20.2864 39.7592 22.8994 41.2796 26.2355 42.3369L26.2383 42.3378C29.6162 43.3976 33.7163 43.9427 38.5158 43.9982L38.5196 43.9982C43.3347 44.0353 47.7395 43.4977 51.726 42.3735L51.7302 42.3723C55.7042 41.2328 59.0204 39.6407 61.6456 37.5716L61.6491 37.5688C64.2782 35.4774 65.9869 33.0171 66.6787 30.1821L75.0579 2.87204L75.4547 1.57872H74.1018H57.2274H56.4882L56.2714 2.2854L47.8835 29.624ZM148.903 1.57872L148.167 1.57797L147.947 2.28083L135.514 42.1257L135.109 43.4235H136.468H153.343H154.077L154.297 42.7226L158.486 29.3575H166.503L174.132 42.914L174.418 43.4235H175.003H193.012H194.012V42.4235V41.9583V41.6705L193.859 41.4267L184.657 26.767C186.855 26.1416 188.848 25.4564 190.635 24.7101C193.254 23.6157 195.383 22.2732 196.98 20.6595L196.984 20.6551C198.623 18.9785 199.601 16.9156 199.925 14.5064L199.926 14.4952C200.297 11.471 199.271 8.93512 196.903 7.00461C194.64 5.14275 191.587 3.8056 187.807 2.94463C184.043 2.08716 179.941 1.64312 175.505 1.60612V1.6061L175.498 1.60609L148.903 1.57872ZM169.82 19.996L161.429 19.9677L164.241 10.9967L174.938 11.0222C176.71 11.0759 178.054 11.3217 179.017 11.7145C179.996 12.1136 180.52 12.5996 180.771 13.0989L180.775 13.1073C181.036 13.6134 181.107 14.2267 180.895 15.0185L180.893 15.0281L180.89 15.0378C180.654 15.9988 180.104 16.8337 179.178 17.5504C178.223 18.2884 176.955 18.8869 175.338 19.3182L175.333 19.3195C173.757 19.7479 171.923 19.9779 169.82 19.996Z" stroke="#0E4056" stroke-width="2"/>
</g>
<defs>
<filter id="filter0_d_314_3" x="15" y="0" width="192" height="51" filterUnits="userSpaceOnUse" color-interpolation-filters="sRGB">
<feFlood flood-opacity="0" result="BackgroundImageFix"/>
<feColorMatrix in="SourceAlpha" type="matrix" values="0 0 0 0 0 0 0 0 0 0 0 0 0 0 0 0 0 0 127 0" result="hardAlpha"/>
<feOffset dx="6" dy="6"/>
<feComposite in2="hardAlpha" operator="out"/>
<feColorMatrix type="matrix" values="0 0 0 0 0.054902 0 0 0 0 0.25098 0 0 0 0 0.337255 0 0 0 1 0"/>
<feBlend mode="normal" in2="BackgroundImageFix" result="effect1_dropShadow_314_3"/>
<feBlend mode="normal" in="SourceGraphic" in2="effect1_dropShadow_314_3" result="shape"/>
</filter>
</defs>
</svg>
