<svg width="218" height="92" viewBox="0 0 218 92" fill="none" xmlns="http://www.w3.org/2000/svg">
<path d="M10 49H218L208 92H0L10 49Z" fill="#0E4056"/>
<path d="M46.6504 81.3604L45.748 85.5986H46.2539C46.5684 85.5986 46.7803 85.6465 46.8896 85.7422C46.999 85.8379 47.0537 85.9746 47.0537 86.1523C47.0537 86.4349 46.9193 86.6696 46.6504 86.8564C46.5091 86.9521 46.279 87 45.96 87H44.1143C43.8044 87 43.5924 86.9521 43.4785 86.8564C43.3691 86.7562 43.3145 86.6195 43.3145 86.4463C43.3145 86.2184 43.4056 86.0202 43.5879 85.8516C43.7702 85.6829 44.0231 85.5986 44.3467 85.5986L45.5088 80.1162H45.29C44.9801 80.1162 44.7682 80.0684 44.6543 79.9727C44.5449 79.8724 44.4902 79.7334 44.4902 79.5557C44.4902 79.2777 44.6224 79.0452 44.8867 78.8584C45.0326 78.7581 45.2673 78.708 45.5908 78.708L47.2109 78.7148L49.6035 84.334L50.499 80.1162H49.9863C49.6764 80.1162 49.4645 80.0684 49.3506 79.9727C49.2412 79.8724 49.1865 79.7334 49.1865 79.5557C49.1865 79.2777 49.3187 79.0452 49.583 78.8584C49.7288 78.7581 49.9635 78.708 50.2871 78.708L52.1328 78.7148C52.4427 78.7148 52.6523 78.7627 52.7617 78.8584C52.8757 78.9541 52.9326 79.0908 52.9326 79.2686C52.9326 79.4964 52.8415 79.6947 52.6592 79.8633C52.4769 80.0319 52.224 80.1162 51.9004 80.1162L50.4375 87H49.0498L46.6504 81.3604ZM54.4114 83.541L53.9739 85.5986H57.5491L57.7131 84.8398C57.7815 84.5026 57.8954 84.2633 58.0549 84.1221C58.219 83.9762 58.4058 83.9033 58.6155 83.9033C58.775 83.9033 58.9071 83.9557 59.012 84.0605C59.1213 84.1608 59.176 84.2816 59.176 84.4229C59.176 84.514 59.1555 84.653 59.1145 84.8398L58.6565 87H52.053C51.7431 87 51.5312 86.9521 51.4172 86.8564C51.3079 86.7562 51.2532 86.6195 51.2532 86.4463C51.2532 86.1683 51.3853 85.9359 51.6496 85.749C51.7955 85.6488 52.0302 85.5986 52.3538 85.5986H52.5725L53.7346 80.1162H53.5159C53.206 80.1162 52.994 80.0684 52.8801 79.9727C52.7707 79.8724 52.7161 79.7334 52.7161 79.5557C52.7161 79.2777 52.8482 79.0452 53.1125 78.8584C53.2584 78.7581 53.4931 78.708 53.8166 78.708L60.1125 78.7148L59.6545 80.8477C59.5862 81.1849 59.47 81.4242 59.3059 81.5654C59.1464 81.7067 58.9618 81.7773 58.7522 81.7773C58.5927 81.7773 58.4582 81.7272 58.3489 81.627C58.244 81.5267 58.1916 81.4059 58.1916 81.2646C58.1916 81.1735 58.2121 81.0345 58.2532 80.8477L58.4104 80.1162H55.1428L54.7121 82.1396H55.9426C56.0201 81.7751 56.1021 81.5404 56.1887 81.4355C56.3801 81.2122 56.608 81.1006 56.8723 81.1006C57.0318 81.1006 57.164 81.1507 57.2688 81.251C57.3736 81.3512 57.426 81.472 57.426 81.6133C57.426 81.709 57.4055 81.8503 57.3645 82.0371L57.0227 83.6504C56.9589 83.9512 56.8791 84.1562 56.7834 84.2656C56.592 84.4798 56.3687 84.5869 56.1135 84.5869C55.954 84.5869 55.8218 84.5368 55.717 84.4365C55.6122 84.3317 55.5598 84.2087 55.5598 84.0674C55.5598 83.9717 55.5871 83.7962 55.6418 83.541H54.4114ZM67.1147 84.4365L66.7114 86.3164C65.9959 86.6628 65.4012 86.8975 64.9272 87.0205C64.4578 87.1436 63.9565 87.2051 63.4233 87.2051C62.6623 87.2051 62.0083 87.0843 61.4614 86.8428C60.9145 86.6012 60.5226 86.2845 60.2856 85.8926C60.0486 85.4961 59.9302 84.9766 59.9302 84.334C59.9302 84.0788 59.9621 83.8031 60.0259 83.5068L60.2378 82.4951C60.4337 81.5609 60.894 80.7269 61.6186 79.9932C62.5985 78.9997 63.7469 78.5029 65.0639 78.5029C65.4468 78.5029 65.8022 78.5417 66.1304 78.6191C66.463 78.6966 66.7661 78.8128 67.0395 78.9678C67.2628 78.7992 67.4611 78.7148 67.6343 78.7148C67.7938 78.7148 67.9259 78.765 68.0307 78.8652C68.1401 78.9655 68.1948 79.0863 68.1948 79.2275C68.1948 79.3187 68.1743 79.4577 68.1333 79.6445L67.9419 80.5537C67.869 80.891 67.7505 81.1325 67.5864 81.2783C67.4269 81.4196 67.2423 81.4902 67.0327 81.4902C66.8732 81.4902 66.7433 81.4401 66.643 81.3398C66.5747 81.2669 66.5337 81.1143 66.52 80.8818C66.5063 80.6494 66.4699 80.4922 66.4106 80.4102C66.3149 80.278 66.1235 80.1618 65.8364 80.0615C65.5493 79.9567 65.2098 79.9043 64.8179 79.9043C64.2846 79.9043 63.7925 80.0114 63.3413 80.2256C63.004 80.3851 62.6623 80.679 62.3159 81.1074C61.9695 81.5312 61.744 81.9938 61.6391 82.4951L61.4272 83.5068C61.3771 83.7393 61.352 83.9694 61.352 84.1973C61.352 84.6849 61.507 85.054 61.8169 85.3047C62.227 85.6374 62.8423 85.8037 63.6626 85.8037C63.9861 85.8037 64.3006 85.7741 64.6059 85.7148C64.9113 85.651 65.2098 85.5599 65.5014 85.4414L65.7134 84.4365H64.2846C63.9702 84.4365 63.756 84.3887 63.6421 84.293C63.5327 84.1927 63.478 84.0537 63.478 83.876C63.478 83.6025 63.6102 83.3724 63.8745 83.1855C64.0158 83.0807 64.2505 83.0283 64.5786 83.0283L67.0737 83.0352C67.3836 83.0352 67.5932 83.083 67.7026 83.1787C67.8165 83.2744 67.8735 83.4111 67.8735 83.5889C67.8735 83.7666 67.8074 83.9352 67.6753 84.0947C67.5477 84.2542 67.3608 84.3682 67.1147 84.4365ZM70.9245 87.2051C70.045 87.2051 69.3044 86.8975 68.7029 86.2822C68.1058 85.6624 67.8073 84.8717 67.8073 83.9102C67.8073 83.0169 68.042 82.1396 68.5114 81.2783C68.9808 80.417 69.6553 79.7197 70.5349 79.1865C71.2868 78.7308 72.032 78.5029 72.7702 78.5029C73.6407 78.5029 74.3767 78.8128 74.9782 79.4326C75.5844 80.0479 75.8874 80.8249 75.8874 81.7637C75.8874 82.4974 75.7325 83.2174 75.4226 83.9238C75.1127 84.6257 74.7185 85.2113 74.24 85.6807C73.7614 86.1455 73.2305 86.5169 72.6472 86.7949C72.0684 87.0684 71.4942 87.2051 70.9245 87.2051ZM71.2185 85.8037C71.697 85.8037 72.2006 85.6351 72.7292 85.2979C73.2579 84.9561 73.6749 84.4889 73.9802 83.8965C74.2901 83.2995 74.445 82.7025 74.445 82.1055C74.445 81.4538 74.2536 80.9251 73.8708 80.5195C73.488 80.1094 73.0209 79.9043 72.4695 79.9043C72.0046 79.9043 71.5101 80.0706 70.9861 80.4033C70.462 80.7314 70.0404 81.1917 69.7214 81.7842C69.4024 82.3766 69.2429 82.9759 69.2429 83.582C69.2429 84.2474 69.4343 84.7852 69.8171 85.1953C70.1999 85.6009 70.667 85.8037 71.2185 85.8037ZM82.7597 79.0703C82.8737 78.9518 82.9876 78.863 83.1015 78.8037C83.2155 78.7445 83.3294 78.7148 83.4433 78.7148C83.6074 78.7148 83.7418 78.765 83.8466 78.8652C83.9515 78.9655 84.0039 79.0863 84.0039 79.2275C84.0039 79.3187 83.9856 79.4577 83.9492 79.6445L83.6963 80.834C83.6233 81.1758 83.5048 81.4173 83.3408 81.5586C83.1813 81.6999 83.0013 81.7705 82.8007 81.7705C82.6321 81.7705 82.5 81.7227 82.4043 81.627C82.304 81.5358 82.2539 81.4036 82.2539 81.2305V80.957C82.2539 80.7155 82.1331 80.5013 81.8916 80.3145C81.5224 80.041 81.0621 79.9043 80.5107 79.9043C80.0914 79.9043 79.6858 79.9954 79.2939 80.1777C78.902 80.36 78.5283 80.6585 78.1728 81.0732C77.8173 81.488 77.5804 81.9733 77.4619 82.5293L77.2705 83.4385C77.2295 83.6208 77.2089 83.8008 77.2089 83.9785C77.2089 84.4935 77.4072 84.9264 77.8037 85.2773C78.2002 85.6283 78.7767 85.8037 79.5332 85.8037C80.0481 85.8037 80.4993 85.7354 80.8867 85.5986C81.1191 85.5166 81.3834 85.3525 81.6796 85.1064C81.8574 84.9606 81.9895 84.8672 82.0761 84.8262C82.1673 84.7806 82.2653 84.7578 82.3701 84.7578C82.5341 84.7578 82.6709 84.8125 82.7802 84.9219C82.8896 85.0312 82.9443 85.1657 82.9443 85.3252C82.9443 85.6533 82.6709 86.0088 82.124 86.3916C81.3401 86.9339 80.3649 87.2051 79.1982 87.2051C78.4918 87.2051 77.8698 87.0684 77.332 86.7949C76.7942 86.5215 76.4 86.1637 76.1494 85.7217C75.9033 85.2796 75.7802 84.7646 75.7802 84.1768C75.7802 83.9626 75.8076 83.7256 75.8623 83.4658L76.0673 82.5156C76.3134 81.3581 76.8899 80.401 77.7968 79.6445C78.7037 78.8835 79.6881 78.5029 80.75 78.5029C81.1556 78.5029 81.5247 78.5508 81.8574 78.6465C82.1946 78.7376 82.4954 78.8789 82.7597 79.0703ZM88.9621 80.1162L87.7932 85.5986H89.2082C89.5227 85.5986 89.7346 85.6465 89.8439 85.7422C89.9533 85.8379 90.008 85.9746 90.008 86.1523C90.008 86.4349 89.8736 86.6696 89.6047 86.8564C89.4634 86.9521 89.2333 87 88.9143 87H84.676C84.3661 87 84.1542 86.9521 84.0402 86.8564C83.9309 86.7562 83.8762 86.6195 83.8762 86.4463C83.8762 86.1637 84.0083 85.9313 84.2727 85.749C84.4185 85.6488 84.6532 85.5986 84.9768 85.5986H86.3918L87.5539 80.1162H86.1389C85.829 80.1162 85.6171 80.0684 85.5031 79.9727C85.3937 79.8724 85.3391 79.7334 85.3391 79.5557C85.3391 79.2777 85.4712 79.0452 85.7355 78.8584C85.8814 78.7581 86.1161 78.708 86.4396 78.708L90.6711 78.7148C90.9855 78.7148 91.1975 78.7627 91.3068 78.8584C91.4162 78.9541 91.4709 79.0908 91.4709 79.2686C91.4709 79.5511 91.3365 79.7858 91.0676 79.9727C90.9263 80.0684 90.6962 80.1162 90.3771 80.1162H88.9621ZM94.6791 87.2051C93.7996 87.2051 93.059 86.8975 92.4575 86.2822C91.8605 85.6624 91.562 84.8717 91.562 83.9102C91.562 83.0169 91.7967 82.1396 92.2661 81.2783C92.7355 80.417 93.4099 79.7197 94.2895 79.1865C95.0414 78.7308 95.7866 78.5029 96.5248 78.5029C97.3953 78.5029 98.1313 78.8128 98.7329 79.4326C99.339 80.0479 99.642 80.8249 99.642 81.7637C99.642 82.4974 99.4871 83.2174 99.1772 83.9238C98.8673 84.6257 98.4731 85.2113 97.9946 85.6807C97.5161 86.1455 96.9851 86.5169 96.4018 86.7949C95.823 87.0684 95.2488 87.2051 94.6791 87.2051ZM94.9731 85.8037C95.4516 85.8037 95.9552 85.6351 96.4838 85.2979C97.0125 84.9561 97.4295 84.4889 97.7348 83.8965C98.0447 83.2995 98.1996 82.7025 98.1996 82.1055C98.1996 81.4538 98.0082 80.9251 97.6254 80.5195C97.2426 80.1094 96.7755 79.9043 96.2241 79.9043C95.7592 79.9043 95.2648 80.0706 94.7407 80.4033C94.2166 80.7314 93.795 81.1917 93.476 81.7842C93.157 82.3766 92.9975 82.9759 92.9975 83.582C92.9975 84.2474 93.1889 84.7852 93.5717 85.1953C93.9545 85.6009 94.4217 85.8037 94.9731 85.8037ZM100.649 86.6445C100.499 86.7904 100.38 86.8838 100.294 86.9248C100.207 86.9658 100.109 86.9863 99.9997 86.9863C99.8311 86.9863 99.6943 86.9362 99.5895 86.8359C99.4847 86.7357 99.4323 86.6126 99.4323 86.4668C99.4323 86.3802 99.4528 86.2435 99.4938 86.0566L99.6921 85.1133C99.765 84.776 99.8812 84.5368 100.041 84.3955C100.2 84.2497 100.387 84.1768 100.601 84.1768C100.77 84.1768 100.9 84.2201 100.991 84.3066C101.082 84.3932 101.134 84.5391 101.148 84.7441C101.166 84.9492 101.203 85.0905 101.257 85.168C101.367 85.3092 101.572 85.4505 101.873 85.5918C102.178 85.7331 102.527 85.8037 102.919 85.8037C103.479 85.8037 103.98 85.6852 104.423 85.4482C104.869 85.2067 105.092 84.9082 105.092 84.5527C105.092 84.4069 105.04 84.2702 104.935 84.1426C104.835 84.015 104.662 83.9056 104.416 83.8145C104.265 83.7598 103.876 83.6709 103.247 83.5479C102.618 83.4248 102.142 83.2835 101.818 83.124C101.499 82.9645 101.248 82.7435 101.066 82.4609C100.884 82.1738 100.793 81.8503 100.793 81.4902C100.793 80.6335 101.171 79.9225 101.927 79.3574C102.688 78.7878 103.513 78.5029 104.402 78.5029C104.762 78.5029 105.086 78.5439 105.373 78.626C105.664 78.7035 105.92 78.8242 106.138 78.9883C106.362 78.8105 106.562 78.7217 106.74 78.7217C106.904 78.7217 107.038 78.7718 107.143 78.8721C107.253 78.9723 107.307 79.0931 107.307 79.2344C107.307 79.3255 107.287 79.4645 107.246 79.6514L107.02 80.7041C106.947 81.0413 106.831 81.2829 106.672 81.4287C106.512 81.57 106.33 81.6406 106.125 81.6406C105.929 81.6406 105.778 81.5791 105.674 81.4561C105.614 81.3786 105.582 81.2282 105.578 81.0049C105.578 80.7816 105.55 80.6175 105.496 80.5127C105.4 80.3441 105.231 80.2005 104.99 80.082C104.753 79.9635 104.461 79.9043 104.115 79.9043C103.55 79.9043 103.069 80.0615 102.673 80.376C102.376 80.613 102.228 80.8704 102.228 81.1484C102.228 81.3991 102.333 81.5996 102.543 81.75C102.693 81.8639 103.037 81.9779 103.575 82.0918C104.473 82.2786 105.061 82.429 105.339 82.543C105.73 82.7025 106.027 82.9258 106.227 83.2129C106.428 83.4954 106.528 83.8167 106.528 84.1768C106.528 84.6781 106.389 85.1589 106.111 85.6191C105.833 86.0749 105.38 86.4531 104.751 86.7539C104.126 87.0547 103.454 87.2051 102.734 87.2051C102.347 87.2051 101.98 87.1572 101.633 87.0615C101.287 86.9704 100.959 86.8314 100.649 86.6445ZM117.695 83.835L117.319 85.5986H117.832C118.142 85.5986 118.352 85.6465 118.461 85.7422C118.575 85.8379 118.632 85.9746 118.632 86.1523C118.632 86.4349 118.495 86.6696 118.222 86.8564C118.081 86.9521 117.85 87 117.531 87H115.399C115.089 87 114.877 86.9521 114.763 86.8564C114.653 86.7562 114.599 86.6195 114.599 86.4463C114.599 86.1683 114.731 85.9359 114.995 85.749C115.141 85.6488 115.376 85.5986 115.699 85.5986H115.918L117.08 80.1162H116.861C116.552 80.1162 116.34 80.0684 116.226 79.9727C116.116 79.8724 116.062 79.7334 116.062 79.5557C116.062 79.2777 116.194 79.0452 116.458 78.8584C116.604 78.7581 116.839 78.708 117.162 78.708L120.341 78.7148C121.216 78.7148 121.872 78.9085 122.31 79.2959C122.747 79.6787 122.966 80.1686 122.966 80.7656C122.966 81.3079 122.795 81.7979 122.453 82.2354C122.116 82.6683 121.606 83.0511 120.922 83.3838C121.159 83.6344 121.401 83.9603 121.647 84.3613C121.802 84.6165 122.002 85.029 122.248 85.5986C122.613 85.5986 122.85 85.6442 122.959 85.7354C123.073 85.8265 123.13 85.9655 123.13 86.1523C123.13 86.4349 122.996 86.6696 122.727 86.8564C122.585 86.9521 122.353 87 122.029 87H121.23C120.847 86.1022 120.471 85.3936 120.102 84.874C119.737 84.3499 119.398 84.0036 119.083 83.835H117.695ZM117.989 82.4336H119.083C119.439 82.4336 119.753 82.3926 120.027 82.3105C120.396 82.1966 120.701 82.0667 120.943 81.9209C121.12 81.8115 121.264 81.6794 121.373 81.5244C121.487 81.3649 121.544 81.2031 121.544 81.0391C121.544 80.7975 121.426 80.5833 121.189 80.3965C120.952 80.2096 120.587 80.1162 120.095 80.1162H118.488L117.989 82.4336ZM131.048 80.1162L130.207 84.0879C130.021 84.9629 129.549 85.7012 128.792 86.3027C128.04 86.9043 127.225 87.2051 126.345 87.2051C125.593 87.2051 124.971 86.9704 124.479 86.501C123.987 86.0316 123.741 85.4505 123.741 84.7578C123.741 84.5527 123.766 84.3294 123.816 84.0879L124.663 80.1162C124.395 80.1162 124.205 80.0661 124.096 79.9658C123.987 79.8656 123.932 79.7311 123.932 79.5625C123.932 79.2754 124.066 79.0407 124.335 78.8584C124.472 78.7627 124.702 78.7148 125.026 78.7148L126.871 78.708C127.181 78.708 127.391 78.7581 127.5 78.8584C127.614 78.9541 127.671 79.0908 127.671 79.2686C127.671 79.5465 127.539 79.779 127.275 79.9658C127.129 80.0661 126.894 80.1162 126.571 80.1162H126.065L125.19 84.2109C125.172 84.3112 125.162 84.4115 125.162 84.5117C125.162 84.8581 125.301 85.1611 125.579 85.4209C125.857 85.6761 126.204 85.8037 126.619 85.8037C126.969 85.8037 127.304 85.724 127.623 85.5645C127.947 85.4049 128.23 85.1771 128.471 84.8809C128.621 84.7031 128.724 84.4798 128.779 84.2109L129.647 80.1162H129.141C128.831 80.1162 128.619 80.0684 128.505 79.9727C128.396 79.8724 128.341 79.7334 128.341 79.5557C128.341 79.2777 128.473 79.0452 128.738 78.8584C128.879 78.7581 129.114 78.708 129.442 78.708L131.281 78.7148C131.595 78.7148 131.807 78.7627 131.916 78.8584C132.026 78.9541 132.08 79.0885 132.08 79.2617C132.08 79.4941 131.989 79.6947 131.807 79.8633C131.629 80.0319 131.376 80.1162 131.048 80.1162ZM133.532 83.835L133.156 85.5986H133.669C133.978 85.5986 134.188 85.6465 134.298 85.7422C134.411 85.8379 134.468 85.9746 134.468 86.1523C134.468 86.4349 134.332 86.6696 134.058 86.8564C133.917 86.9521 133.687 87 133.368 87H131.235C130.925 87 130.713 86.9521 130.599 86.8564C130.49 86.7562 130.435 86.6195 130.435 86.4463C130.435 86.1683 130.567 85.9359 130.832 85.749C130.978 85.6488 131.212 85.5986 131.536 85.5986H131.755L132.917 80.1162H132.698C132.388 80.1162 132.176 80.0684 132.062 79.9727C131.953 79.8724 131.898 79.7334 131.898 79.5557C131.898 79.2777 132.03 79.0452 132.295 78.8584C132.44 78.7581 132.675 78.708 132.999 78.708L136.177 78.7148C137.052 78.7148 137.709 78.9085 138.146 79.2959C138.584 79.6787 138.802 80.1686 138.802 80.7656C138.802 81.3079 138.631 81.7979 138.29 82.2354C137.952 82.6683 137.442 83.0511 136.758 83.3838C136.995 83.6344 137.237 83.9603 137.483 84.3613C137.638 84.6165 137.839 85.029 138.085 85.5986C138.449 85.5986 138.686 85.6442 138.796 85.7354C138.909 85.8265 138.966 85.9655 138.966 86.1523C138.966 86.4349 138.832 86.6696 138.563 86.8564C138.422 86.9521 138.189 87 137.866 87H137.066C136.683 86.1022 136.307 85.3936 135.938 84.874C135.574 84.3499 135.234 84.0036 134.92 83.835H133.532ZM133.826 82.4336H134.92C135.275 82.4336 135.589 82.3926 135.863 82.3105C136.232 82.1966 136.537 82.0667 136.779 81.9209C136.957 81.8115 137.1 81.6794 137.21 81.5244C137.324 81.3649 137.381 81.2031 137.381 81.0391C137.381 80.7975 137.262 80.5833 137.025 80.3965C136.788 80.2096 136.423 80.1162 135.931 80.1162H134.325L133.826 82.4336ZM144.41 84.7441H141.006L140.479 85.5986H140.821C141.136 85.5986 141.348 85.6465 141.457 85.7422C141.566 85.8379 141.621 85.9746 141.621 86.1523C141.621 86.4349 141.487 86.6696 141.218 86.8564C141.076 86.9521 140.846 87 140.527 87H138.634C138.324 87 138.114 86.9521 138.005 86.8564C137.891 86.7562 137.834 86.6195 137.834 86.4463C137.834 86.2093 137.927 86.0065 138.114 85.8379C138.306 85.6693 138.59 85.5895 138.969 85.5986L142.339 80.1162H141.416C141.106 80.1162 140.894 80.0684 140.78 79.9727C140.671 79.8724 140.616 79.7334 140.616 79.5557C140.616 79.2777 140.748 79.0452 141.013 78.8584C141.158 78.7581 141.393 78.708 141.717 78.708H144.745L146.071 85.5986C146.39 85.5895 146.609 85.6351 146.727 85.7354C146.846 85.8356 146.905 85.9746 146.905 86.1523C146.905 86.4349 146.768 86.6696 146.495 86.8564C146.358 86.9521 146.128 87 145.805 87H143.918C143.608 87 143.396 86.9521 143.282 86.8564C143.173 86.7562 143.118 86.6195 143.118 86.4463C143.118 86.1683 143.25 85.9359 143.515 85.749C143.66 85.6488 143.895 85.5986 144.219 85.5986H144.56L144.41 84.7441ZM144.123 83.3428L143.583 80.5674L141.86 83.3428H144.123ZM151.016 80.1162L149.854 85.5986H152.868L153.149 84.2725C153.221 83.9352 153.338 83.696 153.497 83.5547C153.661 83.4089 153.848 83.3359 154.058 83.3359C154.217 83.3359 154.349 83.3883 154.454 83.4932C154.559 83.5934 154.611 83.7119 154.611 83.8486C154.611 83.9443 154.593 84.0856 154.557 84.2725L153.976 87H147.331C147.021 87 146.809 86.9521 146.695 86.8564C146.586 86.7562 146.531 86.6195 146.531 86.4463C146.531 86.1637 146.664 85.9313 146.928 85.749C147.074 85.6488 147.308 85.5986 147.632 85.5986H148.445L149.614 80.1162H148.794C148.484 80.1162 148.272 80.0684 148.158 79.9727C148.049 79.8724 147.994 79.7334 147.994 79.5557C147.994 79.2777 148.126 79.0452 148.391 78.8584C148.537 78.7581 148.771 78.708 149.095 78.708L152.13 78.7148C152.444 78.7148 152.656 78.7627 152.766 78.8584C152.88 78.9541 152.937 79.0908 152.937 79.2686C152.937 79.5511 152.8 79.7858 152.526 79.9727C152.385 80.0684 152.155 80.1162 151.836 80.1162H151.016ZM157.348 83.541L156.911 85.5986H160.486L160.65 84.8398C160.718 84.5026 160.832 84.2633 160.992 84.1221C161.156 83.9762 161.342 83.9033 161.552 83.9033C161.712 83.9033 161.844 83.9557 161.949 84.0605C162.058 84.1608 162.113 84.2816 162.113 84.4229C162.113 84.514 162.092 84.653 162.051 84.8398L161.593 87H154.99C154.68 87 154.468 86.9521 154.354 86.8564C154.244 86.7562 154.19 86.6195 154.19 86.4463C154.19 86.1683 154.322 85.9359 154.586 85.749C154.732 85.6488 154.967 85.5986 155.29 85.5986H155.509L156.671 80.1162H156.452C156.143 80.1162 155.931 80.0684 155.817 79.9727C155.707 79.8724 155.653 79.7334 155.653 79.5557C155.653 79.2777 155.785 79.0452 156.049 78.8584C156.195 78.7581 156.43 78.708 156.753 78.708L163.049 78.7148L162.591 80.8477C162.523 81.1849 162.407 81.4242 162.243 81.5654C162.083 81.7067 161.898 81.7773 161.689 81.7773C161.529 81.7773 161.395 81.7272 161.286 81.627C161.181 81.5267 161.128 81.4059 161.128 81.2646C161.128 81.1735 161.149 81.0345 161.19 80.8477L161.347 80.1162H158.079L157.649 82.1396H158.879C158.957 81.7751 159.039 81.5404 159.125 81.4355C159.317 81.2122 159.545 81.1006 159.809 81.1006C159.968 81.1006 160.101 81.1507 160.205 81.251C160.31 81.3512 160.363 81.472 160.363 81.6133C160.363 81.709 160.342 81.8503 160.301 82.0371L159.959 83.6504C159.896 83.9512 159.816 84.1562 159.72 84.2656C159.529 84.4798 159.305 84.5869 159.05 84.5869C158.891 84.5869 158.758 84.5368 158.654 84.4365C158.549 84.3317 158.496 84.2087 158.496 84.0674C158.496 83.9717 158.524 83.7962 158.578 83.541H157.348ZM163.995 86.6445C163.844 86.7904 163.726 86.8838 163.639 86.9248C163.553 86.9658 163.455 86.9863 163.345 86.9863C163.177 86.9863 163.04 86.9362 162.935 86.8359C162.83 86.7357 162.778 86.6126 162.778 86.4668C162.778 86.3802 162.798 86.2435 162.839 86.0566L163.038 85.1133C163.111 84.776 163.227 84.5368 163.386 84.3955C163.546 84.2497 163.733 84.1768 163.947 84.1768C164.115 84.1768 164.245 84.2201 164.337 84.3066C164.428 84.3932 164.48 84.5391 164.494 84.7441C164.512 84.9492 164.548 85.0905 164.603 85.168C164.713 85.3092 164.918 85.4505 165.218 85.5918C165.524 85.7331 165.872 85.8037 166.264 85.8037C166.825 85.8037 167.326 85.6852 167.768 85.4482C168.215 85.2067 168.438 84.9082 168.438 84.5527C168.438 84.4069 168.386 84.2702 168.281 84.1426C168.181 84.015 168.007 83.9056 167.761 83.8145C167.611 83.7598 167.221 83.6709 166.592 83.5479C165.963 83.4248 165.487 83.2835 165.164 83.124C164.845 82.9645 164.594 82.7435 164.412 82.4609C164.229 82.1738 164.138 81.8503 164.138 81.4902C164.138 80.6335 164.517 79.9225 165.273 79.3574C166.034 78.7878 166.859 78.5029 167.748 78.5029C168.108 78.5029 168.431 78.5439 168.718 78.626C169.01 78.7035 169.265 78.8242 169.484 78.9883C169.707 78.8105 169.908 78.7217 170.086 78.7217C170.25 78.7217 170.384 78.7718 170.489 78.8721C170.598 78.9723 170.653 79.0931 170.653 79.2344C170.653 79.3255 170.632 79.4645 170.591 79.6514L170.366 80.7041C170.293 81.0413 170.177 81.2829 170.017 81.4287C169.858 81.57 169.675 81.6406 169.47 81.6406C169.274 81.6406 169.124 81.5791 169.019 81.4561C168.96 81.3786 168.928 81.2282 168.923 81.0049C168.923 80.7816 168.896 80.6175 168.841 80.5127C168.746 80.3441 168.577 80.2005 168.336 80.082C168.099 79.9635 167.807 79.9043 167.461 79.9043C166.895 79.9043 166.415 80.0615 166.018 80.376C165.722 80.613 165.574 80.8704 165.574 81.1484C165.574 81.3991 165.679 81.5996 165.888 81.75C166.039 81.8639 166.383 81.9779 166.921 82.0918C167.818 82.2786 168.406 82.429 168.684 82.543C169.076 82.7025 169.372 82.9258 169.573 83.2129C169.773 83.4954 169.874 83.8167 169.874 84.1768C169.874 84.6781 169.735 85.1589 169.457 85.6191C169.179 86.0749 168.725 86.4531 168.096 86.7539C167.472 87.0547 166.8 87.2051 166.08 87.2051C165.692 87.2051 165.325 87.1572 164.979 87.0615C164.633 86.9704 164.305 86.8314 163.995 86.6445Z" fill="#C3CFD5"/>
<path d="M17.3184 67.5371L18.9785 57.7812H22.3184L20.6582 67.5371C20.5345 68.4616 20.2253 69.2786 19.7305 69.9883C19.2357 70.6914 18.6042 71.2415 17.8359 71.6387C17.0677 72.0293 16.2148 72.2181 15.2773 72.2051C14.3398 72.1855 13.5488 71.9935 12.9043 71.6289C12.2663 71.2643 11.7845 70.75 11.459 70.0859C11.14 69.4154 10.9935 68.6178 11.0195 67.6934L14.3887 67.7031C14.3691 68.0091 14.3757 68.3053 14.4082 68.5918C14.4408 68.8717 14.5384 69.1029 14.7012 69.2852C14.8639 69.4674 15.1341 69.5618 15.5117 69.5684C15.8893 69.5814 16.2018 69.487 16.4492 69.2852C16.6966 69.0768 16.8887 68.8164 17.0254 68.5039C17.1686 68.1914 17.2663 67.8691 17.3184 67.5371ZM34.277 64.5488L34.2086 65.125C34.0784 66.056 33.8277 66.9512 33.4566 67.8105C33.0921 68.6634 32.6103 69.4219 32.0113 70.0859C31.4189 70.75 30.7158 71.2741 29.902 71.6582C29.0882 72.0358 28.1734 72.2148 27.1578 72.1953C26.1812 72.1758 25.3479 71.9674 24.6578 71.5703C23.9742 71.1732 23.4273 70.6426 23.0172 69.9785C22.6135 69.3145 22.3401 68.569 22.1969 67.7422C22.0536 66.9154 22.0341 66.0625 22.1383 65.1836L22.2066 64.6074C22.3368 63.6829 22.5875 62.7975 22.9586 61.9512C23.3297 61.0983 23.8147 60.3398 24.4137 59.6758C25.0126 59.0117 25.719 58.4941 26.5328 58.123C27.3466 57.7454 28.2581 57.5664 29.2672 57.5859C30.2372 57.599 31.0641 57.804 31.7477 58.2012C32.4312 58.5983 32.9749 59.1289 33.3785 59.793C33.7887 60.4505 34.0654 61.1927 34.2086 62.0195C34.3583 62.8398 34.3811 63.6829 34.277 64.5488ZM30.8102 65.1836L30.8883 64.5781C30.9339 64.194 30.9632 63.7611 30.9762 63.2793C30.9892 62.7975 30.9469 62.332 30.8492 61.8828C30.7516 61.4271 30.5628 61.0495 30.2828 60.75C30.0094 60.4505 29.6057 60.2878 29.0719 60.2617C28.4794 60.2357 27.9781 60.3561 27.568 60.623C27.1578 60.8835 26.8193 61.235 26.5523 61.6777C26.2919 62.1139 26.0868 62.5892 25.9371 63.1035C25.7874 63.6178 25.6799 64.1126 25.6148 64.5879L25.5367 65.1934C25.4911 65.5775 25.4586 66.0137 25.4391 66.502C25.426 66.9837 25.4651 67.4525 25.5562 67.9082C25.6539 68.3639 25.8427 68.7448 26.1227 69.0508C26.4026 69.3503 26.8128 69.5098 27.3531 69.5293C27.9326 69.5553 28.4273 69.4349 28.8375 69.168C29.2477 68.8945 29.5862 68.5365 29.8531 68.0938C30.1266 67.651 30.3382 67.1725 30.4879 66.6582C30.6441 66.1439 30.7516 65.6523 30.8102 65.1836ZM41.8996 68.1523C41.9582 67.8464 41.9354 67.5859 41.8312 67.3711C41.7336 67.1562 41.5839 66.974 41.382 66.8242C41.1867 66.6745 40.9621 66.5475 40.7082 66.4434C40.4608 66.3327 40.2199 66.2318 39.9855 66.1406C39.4777 65.9388 38.9764 65.7109 38.4816 65.457C37.9868 65.1966 37.5376 64.8906 37.134 64.5391C36.7303 64.1875 36.4146 63.7773 36.1867 63.3086C35.9654 62.8398 35.871 62.2897 35.9035 61.6582C35.9491 60.9355 36.1542 60.3138 36.5187 59.793C36.8833 59.2721 37.3488 58.849 37.9152 58.5234C38.4882 58.1914 39.1034 57.9505 39.7609 57.8008C40.425 57.6445 41.0728 57.5729 41.7043 57.5859C42.6027 57.599 43.4035 57.7812 44.1066 58.1328C44.8163 58.4844 45.3729 58.9889 45.7766 59.6465C46.1802 60.2975 46.3755 61.0853 46.3625 62.0098H43.052C43.065 61.6452 43.0161 61.3294 42.9055 61.0625C42.8013 60.7891 42.6288 60.5775 42.3879 60.4277C42.147 60.2715 41.8345 60.1901 41.4504 60.1836C41.1314 60.1771 40.8124 60.2292 40.4934 60.3398C40.1743 60.444 39.8977 60.6068 39.6633 60.8281C39.4289 61.0495 39.2792 61.3359 39.2141 61.6875C39.1685 61.9544 39.2108 62.1888 39.341 62.3906C39.4712 62.5859 39.6503 62.7552 39.8781 62.8984C40.106 63.0352 40.3436 63.1523 40.591 63.25C40.8449 63.3477 41.0663 63.4323 41.2551 63.5039C41.7889 63.7057 42.3 63.9434 42.7883 64.2168C43.2831 64.4837 43.7193 64.7995 44.0969 65.1641C44.481 65.5286 44.774 65.9551 44.9758 66.4434C45.1841 66.9251 45.2687 67.485 45.2297 68.123C45.1776 68.8587 44.9823 69.487 44.6437 70.0078C44.3052 70.5286 43.869 70.9518 43.3352 71.2773C42.8013 71.6029 42.2154 71.8405 41.5773 71.9902C40.9393 72.14 40.2915 72.2116 39.634 72.2051C38.8983 72.1921 38.2115 72.0814 37.5734 71.873C36.9354 71.6582 36.3788 71.349 35.9035 70.9453C35.4283 70.5352 35.0604 70.0339 34.8 69.4414C34.5396 68.8424 34.4159 68.1556 34.4289 67.3809L37.7785 67.3906C37.759 67.7552 37.7818 68.0775 37.8469 68.3574C37.9185 68.6309 38.0357 68.862 38.1984 69.0508C38.3677 69.2331 38.5858 69.373 38.8527 69.4707C39.1197 69.5618 39.4419 69.6074 39.8195 69.6074C40.1385 69.6074 40.4445 69.5586 40.7375 69.4609C41.037 69.3568 41.2909 69.1973 41.4992 68.9824C41.7076 68.7676 41.841 68.4909 41.8996 68.1523ZM55.6453 69.3633L55.1863 72H47.8133L48.2723 69.3633H55.6453ZM51.4852 57.7812L49.0145 72H45.6746L48.1355 57.7812H51.4852ZM55.7234 63.4258L55.284 65.9746H48.8582L49.3074 63.4258H55.7234ZM57.6766 57.7812L57.2176 60.4277H49.8152L50.284 57.7812H57.6766ZM51.7781 57.0391L54.1316 53.9727H57.7156L54.5906 57.0391H51.7781ZM68.8789 67.1953L72.1504 67.1562C72.0592 68.237 71.7109 69.1582 71.1055 69.9199C70.5065 70.6751 69.748 71.248 68.8301 71.6387C67.9186 72.0293 66.9453 72.2148 65.9102 72.1953C64.9271 72.1758 64.1003 71.974 63.4297 71.5898C62.7591 71.1992 62.2318 70.6784 61.8477 70.0273C61.4635 69.3698 61.2096 68.6341 61.0859 67.8203C60.9622 67 60.9557 66.1536 61.0664 65.2812L61.1738 64.5098C61.304 63.6048 61.5449 62.7357 61.8965 61.9023C62.248 61.0625 62.707 60.3138 63.2734 59.6562C63.8464 58.9987 64.5267 58.4844 65.3145 58.1133C66.1022 57.7357 66.9941 57.5566 67.9902 57.5762C69.0514 57.5957 69.9531 57.8171 70.6953 58.2402C71.444 58.6634 72.0234 59.2559 72.4336 60.0176C72.8503 60.7793 73.0846 61.6777 73.1367 62.7129L69.8066 62.7031C69.8262 62.2018 69.7773 61.7721 69.6602 61.4141C69.543 61.056 69.3346 60.7793 69.0352 60.584C68.7422 60.3822 68.3288 60.2715 67.7949 60.252C67.2155 60.2324 66.7305 60.3529 66.3398 60.6133C65.9557 60.8672 65.6432 61.209 65.4023 61.6387C65.1615 62.0684 64.9759 62.5339 64.8457 63.0352C64.722 63.5365 64.6276 64.0215 64.5625 64.4902L64.4648 65.291C64.4193 65.6751 64.377 66.1081 64.3379 66.5898C64.2988 67.0651 64.3151 67.5241 64.3867 67.9668C64.4583 68.403 64.6243 68.7676 64.8848 69.0605C65.1452 69.3535 65.5521 69.5098 66.1055 69.5293C66.6263 69.5423 67.0788 69.4609 67.4629 69.2852C67.847 69.1029 68.1562 68.8359 68.3906 68.4844C68.6315 68.1263 68.7943 67.6966 68.8789 67.1953ZM80.193 60.9355L74.9586 72H71.2574L78.7965 57.7812H81.1598L80.193 60.9355ZM81.0914 72L79.6461 60.5938L79.7242 57.7812H81.9508L84.5777 72H81.0914ZM81.8531 66.6973L81.3844 69.3438H74.2848L74.7535 66.6973H81.8531ZM87.4934 57.7812L92.757 57.791C93.6229 57.804 94.4204 57.9603 95.1496 58.2598C95.8788 58.5592 96.4517 59.0182 96.8684 59.6367C97.285 60.2487 97.4608 61.0332 97.3957 61.9902C97.3371 62.778 97.1613 63.4421 96.8684 63.9824C96.5754 64.5163 96.1783 64.972 95.677 65.3496C95.1757 65.7272 94.5865 66.0625 93.9094 66.3555L92.6984 66.9805H87.9719L88.4211 64.334L91.634 64.3535C92.0637 64.347 92.4445 64.2624 92.7766 64.0996C93.1151 63.9368 93.3918 63.7057 93.6066 63.4062C93.8215 63.1068 93.9582 62.7422 94.0168 62.3125C94.0689 61.9609 94.0559 61.6484 93.9777 61.375C93.8996 61.0951 93.7499 60.8737 93.5285 60.7109C93.3072 60.5482 93.0142 60.457 92.6496 60.4375L90.384 60.4277L88.3723 72H85.0324L87.4934 57.7812ZM92.6594 72L90.6965 65.7109L94.0852 65.6914L96.2238 71.834V72H92.6594ZM106.679 69.3633L106.22 72H99.2273L99.6863 69.3633H106.679ZM102.899 57.7812L100.429 72H97.0887L99.5496 57.7812H102.899ZM119.34 64.5488L119.272 65.125C119.142 66.056 118.891 66.9512 118.52 67.8105C118.155 68.6634 117.674 69.4219 117.075 70.0859C116.482 70.75 115.779 71.2741 114.965 71.6582C114.151 72.0358 113.237 72.2148 112.221 72.1953C111.245 72.1758 110.411 71.9674 109.721 71.5703C109.037 71.1732 108.491 70.6426 108.08 69.9785C107.677 69.3145 107.403 68.569 107.26 67.7422C107.117 66.9154 107.097 66.0625 107.202 65.1836L107.27 64.6074C107.4 63.6829 107.651 62.7975 108.022 61.9512C108.393 61.0983 108.878 60.3398 109.477 59.6758C110.076 59.0117 110.782 58.4941 111.596 58.123C112.41 57.7454 113.321 57.5664 114.33 57.5859C115.301 57.599 116.127 57.804 116.811 58.2012C117.495 58.5983 118.038 59.1289 118.442 59.793C118.852 60.4505 119.129 61.1927 119.272 62.0195C119.422 62.8398 119.444 63.6829 119.34 64.5488ZM115.873 65.1836L115.952 64.5781C115.997 64.194 116.026 63.7611 116.039 63.2793C116.052 62.7975 116.01 62.332 115.912 61.8828C115.815 61.4271 115.626 61.0495 115.346 60.75C115.073 60.4505 114.669 60.2878 114.135 60.2617C113.543 60.2357 113.041 60.3561 112.631 60.623C112.221 60.8835 111.883 61.235 111.616 61.6777C111.355 62.1139 111.15 62.5892 111 63.1035C110.851 63.6178 110.743 64.1126 110.678 64.5879L110.6 65.1934C110.554 65.5775 110.522 66.0137 110.502 66.502C110.489 66.9837 110.528 67.4525 110.62 67.9082C110.717 68.3639 110.906 68.7448 111.186 69.0508C111.466 69.3503 111.876 69.5098 112.416 69.5293C112.996 69.5553 113.491 69.4349 113.901 69.168C114.311 68.8945 114.649 68.5365 114.916 68.0938C115.19 67.651 115.401 67.1725 115.551 66.6582C115.707 66.1439 115.815 65.6523 115.873 65.1836ZM126.963 68.1523C127.021 67.8464 126.999 67.5859 126.895 67.3711C126.797 67.1562 126.647 66.974 126.445 66.8242C126.25 66.6745 126.025 66.5475 125.771 66.4434C125.524 66.3327 125.283 66.2318 125.049 66.1406C124.541 65.9388 124.04 65.7109 123.545 65.457C123.05 65.1966 122.601 64.8906 122.197 64.5391C121.794 64.1875 121.478 63.7773 121.25 63.3086C121.029 62.8398 120.934 62.2897 120.967 61.6582C121.012 60.9355 121.217 60.3138 121.582 59.793C121.947 59.2721 122.412 58.849 122.979 58.5234C123.551 58.1914 124.167 57.9505 124.824 57.8008C125.488 57.6445 126.136 57.5729 126.768 57.5859C127.666 57.599 128.467 57.7812 129.17 58.1328C129.88 58.4844 130.436 58.9889 130.84 59.6465C131.243 60.2975 131.439 61.0853 131.426 62.0098H128.115C128.128 61.6452 128.079 61.3294 127.969 61.0625C127.865 60.7891 127.692 60.5775 127.451 60.4277C127.21 60.2715 126.898 60.1901 126.514 60.1836C126.195 60.1771 125.876 60.2292 125.557 60.3398C125.238 60.444 124.961 60.6068 124.727 60.8281C124.492 61.0495 124.342 61.3359 124.277 61.6875C124.232 61.9544 124.274 62.1888 124.404 62.3906C124.535 62.5859 124.714 62.7552 124.941 62.8984C125.169 63.0352 125.407 63.1523 125.654 63.25C125.908 63.3477 126.13 63.4323 126.318 63.5039C126.852 63.7057 127.363 63.9434 127.852 64.2168C128.346 64.4837 128.783 64.7995 129.16 65.1641C129.544 65.5286 129.837 65.9551 130.039 66.4434C130.247 66.9251 130.332 67.485 130.293 68.123C130.241 68.8587 130.046 69.487 129.707 70.0078C129.368 70.5286 128.932 70.9518 128.398 71.2773C127.865 71.6029 127.279 71.8405 126.641 71.9902C126.003 72.14 125.355 72.2116 124.697 72.2051C123.962 72.1921 123.275 72.0814 122.637 71.873C121.999 71.6582 121.442 71.349 120.967 70.9453C120.492 70.5352 120.124 70.0339 119.863 69.4414C119.603 68.8424 119.479 68.1556 119.492 67.3809L122.842 67.3906C122.822 67.7552 122.845 68.0775 122.91 68.3574C122.982 68.6309 123.099 68.862 123.262 69.0508C123.431 69.2331 123.649 69.373 123.916 69.4707C124.183 69.5618 124.505 69.6074 124.883 69.6074C125.202 69.6074 125.508 69.5586 125.801 69.4609C126.1 69.3568 126.354 69.1973 126.562 68.9824C126.771 68.7676 126.904 68.4909 126.963 68.1523ZM137.54 57.7812L142.804 57.791C143.67 57.804 144.467 57.9603 145.196 58.2598C145.926 58.5592 146.499 59.0182 146.915 59.6367C147.332 60.2487 147.508 61.0332 147.443 61.9902C147.384 62.778 147.208 63.4421 146.915 63.9824C146.622 64.5163 146.225 64.972 145.724 65.3496C145.223 65.7272 144.633 66.0625 143.956 66.3555L142.745 66.9805H138.019L138.468 64.334L141.681 64.3535C142.111 64.347 142.491 64.2624 142.823 64.0996C143.162 63.9368 143.439 63.7057 143.654 63.4062C143.868 63.1068 144.005 62.7422 144.064 62.3125C144.116 61.9609 144.103 61.6484 144.025 61.375C143.946 61.0951 143.797 60.8737 143.575 60.7109C143.354 60.5482 143.061 60.457 142.696 60.4375L140.431 60.4277L138.419 72H135.079L137.54 57.7812ZM142.706 72L140.743 65.7109L144.132 65.6914L146.271 71.834V72H142.706ZM154.919 60.9355L149.684 72H145.983L153.522 57.7812H155.886L154.919 60.9355ZM155.817 72L154.372 60.5938L154.45 57.7812H156.677L159.304 72H155.817ZM156.579 66.6973L156.11 69.3438H149.011L149.479 66.6973H156.579ZM163.928 57.7812H166.545L167.903 67.6445L172.688 57.7812H175.52L168.371 72H166.155L163.928 57.7812ZM162.219 57.7812H165.041L163.655 68.8262L163.098 72H159.758L162.219 57.7812ZM174.28 57.7812H177.121L174.661 72H171.301L171.907 68.543L174.28 57.7812ZM189.119 64.5488L189.051 65.125C188.921 66.056 188.67 66.9512 188.299 67.8105C187.934 68.6634 187.452 69.4219 186.854 70.0859C186.261 70.75 185.558 71.2741 184.744 71.6582C183.93 72.0358 183.016 72.2148 182 72.1953C181.023 72.1758 180.19 71.9674 179.5 71.5703C178.816 71.1732 178.27 70.6426 177.859 69.9785C177.456 69.3145 177.182 68.569 177.039 67.7422C176.896 66.9154 176.876 66.0625 176.98 65.1836L177.049 64.6074C177.179 63.6829 177.43 62.7975 177.801 61.9512C178.172 61.0983 178.657 60.3398 179.256 59.6758C179.855 59.0117 180.561 58.4941 181.375 58.123C182.189 57.7454 183.1 57.5664 184.109 57.5859C185.079 57.599 185.906 57.804 186.59 58.2012C187.273 58.5983 187.817 59.1289 188.221 59.793C188.631 60.4505 188.908 61.1927 189.051 62.0195C189.201 62.8398 189.223 63.6829 189.119 64.5488ZM185.652 65.1836L185.73 64.5781C185.776 64.194 185.805 63.7611 185.818 63.2793C185.831 62.7975 185.789 62.332 185.691 61.8828C185.594 61.4271 185.405 61.0495 185.125 60.75C184.852 60.4505 184.448 60.2878 183.914 60.2617C183.322 60.2357 182.82 60.3561 182.41 60.623C182 60.8835 181.661 61.235 181.395 61.6777C181.134 62.1139 180.929 62.5892 180.779 63.1035C180.63 63.6178 180.522 64.1126 180.457 64.5879L180.379 65.1934C180.333 65.5775 180.301 66.0137 180.281 66.502C180.268 66.9837 180.307 67.4525 180.398 67.9082C180.496 68.3639 180.685 68.7448 180.965 69.0508C181.245 69.3503 181.655 69.5098 182.195 69.5293C182.775 69.5553 183.27 69.4349 183.68 69.168C184.09 68.8945 184.428 68.5365 184.695 68.0938C184.969 67.651 185.18 67.1725 185.33 66.6582C185.486 66.1439 185.594 65.6523 185.652 65.1836ZM182.84 57.0391L185.193 53.9727H188.777L185.652 57.0391H182.84ZM202.972 57.7812L200.502 72H197.259L193.871 63.0254L192.308 72H188.968L191.429 57.7812H194.691L198.08 66.7559L199.632 57.7812H202.972Z" fill="#C3CFD5"/>
<g filter="url(#filter0_d_329_47)">
<path d="M48.8395 28.9173L57.2274 1.57872H74.1018L65.714 28.9173C65.089 31.508 63.5265 33.7976 61.0266 35.7862C58.5267 37.7565 55.336 39.2981 51.4546 40.411C47.5731 41.5056 43.264 42.0347 38.5274 41.9982C33.7907 41.9435 29.7941 41.4053 26.5376 40.3836C23.314 39.362 20.8799 37.9207 19.2352 36.0598C17.6234 34.1807 16.8833 31.9458 17.0149 29.3552L34.0374 29.3825C33.9387 30.24 33.9716 31.0701 34.136 31.8728C34.3005 32.6573 34.7939 33.305 35.6163 33.8158C36.4386 34.3266 37.8037 34.5912 39.7115 34.6094C41.6194 34.6459 43.1983 34.3814 44.4482 33.8158C45.6982 33.232 46.6685 32.5022 47.3593 31.6265C48.083 30.7508 48.5764 29.8478 48.8395 28.9173Z" fill="#C3CFD5"/>
<path d="M115.597 27.9595L132.126 27.85C131.666 30.8785 129.906 33.4601 126.847 35.5946C123.821 37.7109 119.989 39.3164 115.351 40.411C110.745 41.5056 105.828 42.0256 100.598 41.9709C95.6308 41.9161 91.4533 41.3506 88.0652 40.2742C84.6772 39.1795 82.0128 37.72 80.0721 35.8956C78.1313 34.053 76.8485 31.9914 76.2235 29.7109C75.5985 27.4122 75.5656 25.0405 76.1248 22.5958L76.6676 20.4339C77.3254 17.898 78.5425 15.4624 80.3188 13.1272C82.095 10.7737 84.414 8.67563 87.2758 6.83299C90.1704 4.99034 93.6078 3.54907 97.5879 2.50916C101.568 1.45101 106.074 0.949306 111.107 1.00404C116.469 1.05877 121.025 1.67906 124.775 2.86492C128.557 4.05078 131.485 5.71098 133.557 7.84553C135.662 9.98007 136.847 12.4977 137.11 15.3985L120.285 15.3712C120.383 13.9664 120.137 12.7623 119.544 11.7589C118.952 10.7554 117.9 9.98007 116.387 9.43275C114.906 8.86719 112.818 8.55704 110.12 8.50231C107.193 8.44758 104.742 8.78509 102.769 9.51485C100.828 10.2264 99.2491 11.1842 98.032 12.3883C96.8149 13.5924 95.8775 14.8968 95.2196 16.3016C94.5946 17.7064 94.1176 19.0656 93.7887 20.3791L93.2953 22.6231C93.0651 23.6995 92.8512 24.9128 92.6539 26.2628C92.4565 27.5946 92.5387 28.8808 92.9006 30.1214C93.2624 31.3438 94.1012 32.3654 95.4169 33.1864C96.7327 34.0074 98.7885 34.4452 101.585 34.5C104.216 34.5365 106.502 34.3084 108.443 33.8158C110.384 33.305 111.946 32.557 113.13 31.5718C114.347 30.5684 115.17 29.3643 115.597 27.9595Z" fill="#C3CFD5"/>
<path fill-rule="evenodd" clip-rule="evenodd" d="M148.902 1.57872L175.497 1.60609C179.871 1.64258 183.901 2.08043 187.585 2.91965C191.269 3.75888 194.164 5.04508 196.269 6.77825C198.374 8.49319 199.262 10.6916 198.933 13.3734C198.637 15.581 197.749 17.4419 196.269 18.9561C194.789 20.4521 192.782 21.7292 190.249 22.7873C187.717 23.8455 185.282 24.679 181.862 25.5L193.155 41.4236H175.003L167 27.3574L157.751 27.3574L153.343 41.4236H136.468L148.902 1.57872ZM169.822 19.996L160 19.9629L163.507 8.9949L174.954 9.02226C176.796 9.07699 178.276 9.33241 179.394 9.78851C180.513 10.2446 181.269 10.8649 181.664 11.6494C182.059 12.4156 182.125 13.2914 181.862 14.2765C181.565 15.4806 180.875 16.5023 179.789 17.3415C178.704 18.1807 177.306 18.8284 175.595 19.2845C173.918 19.7406 171.993 19.9778 169.822 19.996Z" fill="#C3CFD5"/>
<path d="M48.8395 28.9173L57.2274 1.57872H74.1018L65.714 28.9173C65.089 31.508 63.5265 33.7976 61.0266 35.7862C58.5267 37.7565 55.336 39.2981 51.4546 40.411C47.5731 41.5056 43.264 42.0347 38.5274 41.9982C33.7907 41.9435 29.7941 41.4053 26.5376 40.3836C23.314 39.362 20.8799 37.9207 19.2352 36.0598C17.6234 34.1807 16.8833 31.9458 17.0149 29.3552L34.0374 29.3825C33.9387 30.24 33.9716 31.0701 34.136 31.8728C34.3005 32.6573 34.7939 33.305 35.6163 33.8158C36.4386 34.3266 37.8037 34.5912 39.7115 34.6094C41.6194 34.6459 43.1983 34.3814 44.4482 33.8158C45.6982 33.232 46.6685 32.5022 47.3593 31.6265C48.083 30.7508 48.5764 29.8478 48.8395 28.9173Z" stroke="#0E4056" stroke-width="2" stroke-linejoin="round"/>
<path d="M115.597 27.9595L132.126 27.85C131.666 30.8785 129.906 33.4601 126.847 35.5946C123.821 37.7109 119.989 39.3164 115.351 40.411C110.745 41.5056 105.828 42.0256 100.598 41.9709C95.6308 41.9161 91.4533 41.3506 88.0652 40.2742C84.6772 39.1795 82.0128 37.72 80.0721 35.8956C78.1313 34.053 76.8485 31.9914 76.2235 29.7109C75.5985 27.4122 75.5656 25.0405 76.1248 22.5958L76.6676 20.4339C77.3254 17.898 78.5425 15.4624 80.3188 13.1272C82.095 10.7737 84.414 8.67563 87.2758 6.83299C90.1704 4.99034 93.6078 3.54907 97.5879 2.50916C101.568 1.45101 106.074 0.949306 111.107 1.00404C116.469 1.05877 121.025 1.67906 124.775 2.86492C128.557 4.05078 131.485 5.71098 133.557 7.84553C135.662 9.98007 136.847 12.4977 137.11 15.3985L120.285 15.3712C120.383 13.9664 120.137 12.7623 119.544 11.7589C118.952 10.7554 117.9 9.98007 116.387 9.43275C114.906 8.86719 112.818 8.55704 110.12 8.50231C107.193 8.44758 104.742 8.78509 102.769 9.51485C100.828 10.2264 99.2491 11.1842 98.032 12.3883C96.8149 13.5924 95.8775 14.8968 95.2196 16.3016C94.5946 17.7064 94.1176 19.0656 93.7887 20.3791L93.2953 22.6231C93.0651 23.6995 92.8512 24.9128 92.6539 26.2628C92.4565 27.5946 92.5387 28.8808 92.9006 30.1214C93.2624 31.3438 94.1012 32.3654 95.4169 33.1864C96.7327 34.0074 98.7885 34.4452 101.585 34.5C104.216 34.5365 106.502 34.3084 108.443 33.8158C110.384 33.305 111.946 32.557 113.13 31.5718C114.347 30.5684 115.17 29.3643 115.597 27.9595Z" stroke="#0E4056" stroke-width="2" stroke-linejoin="round"/>
<path fill-rule="evenodd" clip-rule="evenodd" d="M148.902 1.57872L175.497 1.60609C179.871 1.64258 183.901 2.08043 187.585 2.91965C191.269 3.75888 194.164 5.04508 196.269 6.77825C198.374 8.49319 199.262 10.6916 198.933 13.3734C198.637 15.581 197.749 17.4419 196.269 18.9561C194.789 20.4521 192.782 21.7292 190.249 22.7873C187.717 23.8455 185.282 24.679 181.862 25.5L193.155 41.4236H175.003L167 27.3574L157.751 27.3574L153.343 41.4236H136.468L148.902 1.57872ZM169.822 19.996L160 19.9629L163.507 8.9949L174.954 9.02226C176.796 9.07699 178.276 9.33241 179.394 9.78851C180.513 10.2446 181.269 10.8649 181.664 11.6494C182.059 12.4156 182.125 13.2914 181.862 14.2765C181.565 15.4806 180.875 16.5023 179.789 17.3415C178.704 18.1807 177.306 18.8284 175.595 19.2845C173.918 19.7406 171.993 19.9778 169.822 19.996Z" stroke="#0E4056" stroke-width="2" stroke-linejoin="round"/>
</g>
<defs>
<filter id="filter0_d_329_47" x="16" y="0" width="190" height="49" filterUnits="userSpaceOnUse" color-interpolation-filters="sRGB">
<feFlood flood-opacity="0" result="BackgroundImageFix"/>
<feColorMatrix in="SourceAlpha" type="matrix" values="0 0 0 0 0 0 0 0 0 0 0 0 0 0 0 0 0 0 127 0" result="hardAlpha"/>
<feOffset dx="6" dy="6"/>
<feComposite in2="hardAlpha" operator="out"/>
<feColorMatrix type="matrix" values="0 0 0 0 0.054902 0 0 0 0 0.25098 0 0 0 0 0.337255 0 0 0 1 0"/>
<feBlend mode="normal" in2="BackgroundImageFix" result="effect1_dropShadow_329_47"/>
<feBlend mode="normal" in="SourceGraphic" in2="effect1_dropShadow_329_47" result="shape"/>
</filter>
</defs>
</svg>
