<svg width="866" height="75" viewBox="0 0 866 75" fill="none" xmlns="http://www.w3.org/2000/svg">
<path d="M18.18 6.66C23.04 6.66 27.18 7.5 30.6 9.18C34.08 10.8 36.72 13.14 38.52 16.2C40.38 19.26 41.31 22.98 41.31 27.36C41.31 29.94 40.92 32.49 40.14 35.01C39.36 37.53 38.1 39.84 36.36 41.94C34.68 43.98 32.43 45.63 29.61 46.89C26.79 48.09 23.37 48.69 19.35 48.69H9.81V72H0.18V6.66H18.18ZM19.35 39.42C21.75 39.42 23.76 39.03 25.38 38.25C27 37.41 28.26 36.36 29.16 35.1C30.12 33.84 30.78 32.55 31.14 31.23C31.56 29.85 31.77 28.62 31.77 27.54C31.77 26.34 31.56 25.08 31.14 23.76C30.78 22.38 30.15 21.12 29.25 19.98C28.35 18.78 27.12 17.82 25.56 17.1C24 16.32 22.05 15.93 19.71 15.93H9.81V39.42H19.35ZM36.9204 72L65.6304 4.05H66.1704L94.8804 72H83.9004L63.0204 19.08L69.9504 14.49L46.3704 72H36.9204ZM54.3804 47.52H77.6004L80.9304 55.8H51.5004L54.3804 47.52ZM159.068 74.25L108.758 24.3L111.548 25.2L111.818 72H102.098V4.59H102.548L152.228 54.63L149.978 54L149.798 6.66H159.338V74.25H159.068ZM168.502 6.66H212.062V15.93H194.872V72H185.242V15.93H168.502V6.66ZM209.397 72L238.107 4.05H238.647L267.357 72H256.377L235.497 19.08L242.427 14.49L218.847 72H209.397ZM226.857 47.52H250.077L253.407 55.8H223.977L226.857 47.52ZM274.575 6.66H284.205V62.73H316.875V72H274.575V6.66ZM326.412 6.66H336.042V62.73H368.712V72H326.412V6.66ZM371.59 72L400.3 4.05H400.84L429.55 72H418.57L397.69 19.08L404.62 14.49L381.04 72H371.59ZM389.05 47.52H412.27L415.6 55.8H386.17L389.05 47.52ZM458.994 72V1.5H487.394C495.727 1.5 502.761 2.93333 508.494 5.79999C514.227 8.6 518.561 12.6333 521.494 17.9C524.494 23.1 525.994 29.3667 525.994 36.7C525.994 43.9667 524.494 50.2333 521.494 55.5C518.561 60.7667 514.227 64.8333 508.494 67.7C502.761 70.5667 495.727 72 487.394 72H458.994ZM477.494 57H486.194C493.461 57 498.827 55.3333 502.294 52C505.827 48.6667 507.594 43.5667 507.594 36.7C507.594 29.7667 505.827 24.6667 502.294 21.4C498.827 18.0667 493.461 16.4 486.194 16.4H477.494V57ZM533.119 72V1.5H583.719V15.6H550.819V29.1H581.319V43.3H550.819V57.8H583.719V72H533.119ZM589.373 72V1.5H607.873V56.7H638.073V72H589.373ZM694.592 73.1C688.925 73.1 683.525 72.4333 678.392 71.1C673.325 69.7 669.058 67.8333 665.592 65.5L670.792 51.2C672.992 52.6 675.392 53.8 677.992 54.8C680.592 55.8 683.292 56.6 686.092 57.2C688.958 57.7333 691.858 58 694.792 58C699.192 58 702.225 57.4333 703.892 56.3C705.625 55.1667 706.492 53.7 706.492 51.9C706.492 50.3 705.925 49.0667 704.792 48.2C703.658 47.2667 701.525 46.4667 698.392 45.8L686.192 43.3C679.725 41.9667 674.892 39.6667 671.692 36.4C668.492 33.0667 666.892 28.7333 666.892 23.4C666.892 18.7333 668.125 14.7 670.592 11.3C673.125 7.83333 676.658 5.16666 681.192 3.3C685.725 1.36666 691.025 0.399998 697.092 0.399998C702.092 0.399998 706.792 1.1 711.192 2.49999C715.592 3.83333 719.192 5.7 721.992 8.09999L716.792 21.5C714.125 19.5667 711.125 18.1 707.792 17.1C704.458 16.0333 700.758 15.5 696.692 15.5C692.825 15.5 689.892 16.1 687.892 17.3C685.958 18.4333 684.992 20.0667 684.992 22.2C684.992 23.6667 685.558 24.9333 686.692 26C687.892 27 690.058 27.8333 693.192 28.5L705.192 30.9C711.658 32.1667 716.492 34.4333 719.692 37.7C722.958 40.9667 724.592 45.2333 724.592 50.5C724.592 55.0333 723.325 59 720.792 62.4C718.325 65.8 714.858 68.4333 710.392 70.3C705.925 72.1667 700.658 73.1 694.592 73.1ZM762.482 73.1C751.948 73.1 744.048 70.5 738.782 65.3C733.515 60.1 730.882 52.3333 730.882 42V1.5H749.282V42.1C749.282 47.2333 750.348 51.1333 752.482 53.8C754.615 56.4 757.948 57.7 762.482 57.7C767.015 57.7 770.348 56.4 772.482 53.8C774.615 51.1333 775.682 47.2333 775.682 42.1V1.5H793.882V42C793.882 52.3333 791.282 60.1 786.082 65.3C780.882 70.5 773.015 73.1 762.482 73.1ZM802.279 72V1.5H835.579C843.713 1.5 849.979 3.43333 854.379 7.3C858.846 11.1667 861.079 16.5333 861.079 23.4C861.079 28 860.079 31.9333 858.079 35.2C856.079 38.4 853.179 40.9 849.379 42.7C845.579 44.4333 841.046 45.3 835.779 45.3L836.679 42.8H841.679C844.613 42.8 847.213 43.6 849.479 45.2C851.746 46.8 853.613 49.0333 855.079 51.9L865.779 72H845.579L834.079 49.5C833.346 48.0333 832.246 47.0333 830.779 46.5C829.379 45.9667 827.779 45.7 825.979 45.7H820.779V72H802.279ZM820.779 32.6H832.379C835.979 32.6 838.713 31.9 840.579 30.5C842.446 29.0333 843.379 26.8667 843.379 24C843.379 21.2 842.446 19.1 840.579 17.7C838.713 16.3 835.979 15.6 832.379 15.6H820.779V32.6Z" fill="#FFFFF5"/>
</svg>
