<svg width="589" height="126" viewBox="0 0 589 126" fill="none" xmlns="http://www.w3.org/2000/svg">
<circle cx="83" cy="118" r="5" fill="#0E4056"/>
<path d="M141.5 124V53.5H169.9C178.233 53.5 185.267 54.9333 191 57.8C196.733 60.6 201.067 64.6333 204 69.9C207 75.1 208.5 81.3667 208.5 88.7C208.5 95.9667 207 102.233 204 107.5C201.067 112.767 196.733 116.833 191 119.7C185.267 122.567 178.233 124 169.9 124H141.5ZM160 109H168.7C175.967 109 181.333 107.333 184.8 104C188.333 100.667 190.1 95.5667 190.1 88.7C190.1 81.7667 188.333 76.6667 184.8 73.4C181.333 70.0667 175.967 68.4 168.7 68.4H160V109ZM215.625 124V53.5H266.225V67.6H233.325V81.1H263.825V95.3H233.325V109.8H266.225V124H215.625ZM271.879 124V53.5H290.379V108.7H320.579V124H271.879ZM377.098 125.1C371.431 125.1 366.031 124.433 360.898 123.1C355.831 121.7 351.564 119.833 348.098 117.5L353.298 103.2C355.498 104.6 357.898 105.8 360.498 106.8C363.098 107.8 365.798 108.6 368.598 109.2C371.464 109.733 374.364 110 377.298 110C381.698 110 384.731 109.433 386.398 108.3C388.131 107.167 388.998 105.7 388.998 103.9C388.998 102.3 388.431 101.067 387.298 100.2C386.164 99.2667 384.031 98.4667 380.898 97.8L368.698 95.3C362.231 93.9667 357.398 91.6667 354.198 88.4C350.998 85.0667 349.398 80.7333 349.398 75.4C349.398 70.7333 350.631 66.7 353.098 63.3C355.631 59.8333 359.164 57.1667 363.698 55.3C368.231 53.3667 373.531 52.4 379.598 52.4C384.598 52.4 389.298 53.1 393.698 54.5C398.098 55.8333 401.698 57.7 404.498 60.1L399.298 73.5C396.631 71.5667 393.631 70.1 390.298 69.1C386.964 68.0333 383.264 67.5 379.198 67.5C375.331 67.5 372.398 68.1 370.398 69.3C368.464 70.4333 367.498 72.0667 367.498 74.2C367.498 75.6667 368.064 76.9333 369.198 78C370.398 79 372.564 79.8333 375.698 80.5L387.698 82.9C394.164 84.1667 398.998 86.4333 402.198 89.7C405.464 92.9667 407.098 97.2333 407.098 102.5C407.098 107.033 405.831 111 403.298 114.4C400.831 117.8 397.364 120.433 392.898 122.3C388.431 124.167 383.164 125.1 377.098 125.1ZM444.988 125.1C434.454 125.1 426.554 122.5 421.288 117.3C416.021 112.1 413.388 104.333 413.388 94V53.5H431.788V94.1C431.788 99.2333 432.854 103.133 434.988 105.8C437.121 108.4 440.454 109.7 444.988 109.7C449.521 109.7 452.854 108.4 454.988 105.8C457.121 103.133 458.188 99.2333 458.188 94.1V53.5H476.388V94C476.388 104.333 473.788 112.1 468.588 117.3C463.388 122.5 455.521 125.1 444.988 125.1ZM484.785 124V53.5H518.085C526.218 53.5 532.485 55.4333 536.885 59.3C541.352 63.1667 543.585 68.5333 543.585 75.4C543.585 80 542.585 83.9333 540.585 87.2C538.585 90.4 535.685 92.9 531.885 94.7C528.085 96.4333 523.552 97.3 518.285 97.3L519.185 94.8H524.185C527.118 94.8 529.718 95.6 531.985 97.2C534.252 98.8 536.118 101.033 537.585 103.9L548.285 124H528.085L516.585 101.5C515.852 100.033 514.752 99.0333 513.285 98.5C511.885 97.9667 510.285 97.7 508.485 97.7H503.285V124H484.785ZM503.285 84.6H514.885C518.485 84.6 521.218 83.9 523.085 82.5C524.952 81.0333 525.885 78.8667 525.885 76C525.885 73.2 524.952 71.1 523.085 69.7C521.218 68.3 518.485 67.6 514.885 67.6H503.285V84.6Z" fill="#FFFFF5"/>
<path d="M152.31 1.88C155.04 1.88 157.35 2.345 159.24 3.275C161.13 4.175 162.57 5.465 163.56 7.145C164.55 8.795 165.045 10.76 165.045 13.04C165.045 14.39 164.835 15.755 164.415 17.135C164.025 18.485 163.38 19.715 162.48 20.825C161.61 21.935 160.425 22.835 158.925 23.525C157.455 24.185 155.64 24.515 153.48 24.515H148.8V35H142.275V1.88H152.31ZM153.435 18.17C154.425 18.17 155.25 18.005 155.91 17.675C156.57 17.315 157.08 16.88 157.44 16.37C157.83 15.83 158.1 15.275 158.25 14.705C158.43 14.135 158.52 13.64 158.52 13.22C158.52 12.89 158.46 12.455 158.34 11.915C158.25 11.345 158.04 10.775 157.71 10.205C157.38 9.635 156.87 9.155 156.18 8.765C155.52 8.375 154.62 8.18 153.48 8.18H148.8V18.17H153.435ZM175.059 35L189.999 0.574998H190.359L205.299 35H197.739L188.199 10.79L192.924 7.55L181.494 35H175.059ZM185.274 23.03H195.219L197.514 28.52H183.249L185.274 23.03ZM251.032 36.35L225.922 13.67L227.857 14.75L227.992 35H221.377V0.574998H221.647L246.217 23.165L244.777 22.535L244.642 1.88H251.212V36.35H251.032ZM268.741 1.88H291.061V8.18H283.006V35H276.481V8.18H268.741V1.88ZM302.192 35L317.132 0.574998H317.492L332.432 35H324.872L315.332 10.79L320.057 7.55L308.627 35H302.192ZM312.407 23.03H322.352L324.647 28.52H310.382L312.407 23.03ZM348.51 1.88H355.035V28.7H370.605V35H348.51V1.88ZM388.588 1.88H395.113V28.7H410.683V35H388.588V1.88ZM424.932 35L439.872 0.574998H440.232L455.172 35H447.612L438.072 10.79L442.797 7.55L431.367 35H424.932ZM435.147 23.03H445.092L447.387 28.52H433.122L435.147 23.03Z" fill="#FFFFF5"/>
<path fill-rule="evenodd" clip-rule="evenodd" d="M61.5 124C95.4655 124 123 96.4655 123 62.5C123 28.5345 95.4655 1 61.5 1C27.5345 1 0 28.5345 0 62.5C0 96.4655 27.5345 124 61.5 124ZM61.5 106.843C37.0101 106.843 17.1571 86.9899 17.1571 62.5C17.1571 38.0101 37.0101 18.1571 61.5 18.1571C85.9899 18.1571 105.843 38.0101 105.843 62.5C105.843 86.9899 85.9899 106.843 61.5 106.843ZM61.5 120.676C64.254 120.676 66.4865 118.443 66.4865 115.689C66.4865 112.935 64.254 110.703 61.5 110.703C58.746 110.703 56.5135 112.935 56.5135 115.689C56.5135 118.443 58.746 120.676 61.5 120.676Z" fill="#FFFFF5"/>
<path d="M49.5644 59.2352L53.3292 92.6233L73.4689 65.6404L49.5644 59.2352Z" fill="#FFFFF5"/>
<path d="M69.6708 32.3766L72.6515 32.0363L71.7948 24.5334L67.2692 30.5787L69.6708 32.3766ZM49.5644 59.2352L47.1628 57.4373C46.705 58.0489 46.4977 58.8122 46.5833 59.5713L49.5644 59.2352ZM53.3292 92.6233L50.3481 92.9595L51.1977 100.495L55.7333 94.4178L53.3292 92.6233ZM73.4689 65.6404L75.8731 67.4348C76.33 66.8226 76.5362 66.0591 76.4495 65.3001L73.4689 65.6404ZM67.2692 30.5787L47.1628 57.4373L51.966 61.0331L72.0725 34.1744L67.2692 30.5787ZM56.3103 92.2872L52.5455 58.8991L46.5833 59.5713L50.3481 92.9595L56.3103 92.2872ZM66.6902 32.7169L70.4883 65.9807L76.4495 65.3001L72.6515 32.0363L66.6902 32.7169ZM74.2454 62.7426L50.3409 56.3374L48.788 62.133L72.6924 68.5382L74.2454 62.7426ZM55.7333 94.4178L75.8731 67.4348L71.0647 63.846L50.925 90.8289L55.7333 94.4178Z" fill="#FFFFF5"/>
</svg>
