<svg width="80" height="80" viewBox="0 0 80 80" fill="none" xmlns="http://www.w3.org/2000/svg">
<path fill-rule="evenodd" clip-rule="evenodd" d="M40 80C62.0914 80 80 62.0914 80 40C80 17.9086 62.0914 0 40 0C17.9086 0 0 17.9086 0 40C0 62.0914 17.9086 80 40 80ZM40 68.8409C24.0716 68.8409 11.1591 55.9284 11.1591 40C11.1591 24.0716 24.0716 11.1591 40 11.1591C55.9284 11.1591 68.8409 24.0716 68.8409 40C68.8409 55.9284 55.9284 68.8409 40 68.8409ZM40 77.8378C41.7912 77.8378 43.2432 76.3857 43.2432 74.5945C43.2432 72.8034 41.7912 71.3513 40 71.3513C38.2088 71.3513 36.7567 72.8034 36.7567 74.5945C36.7567 76.3857 38.2088 77.8378 40 77.8378Z" fill="#FFFFF5"/>
<path d="M32.237 37.8767L34.6856 59.5926L47.7847 42.0427L32.237 37.8767Z" fill="#FFFFF5"/>
<path d="M45.3144 20.4077L47.3015 20.1808L46.7303 15.1789L43.7133 19.2092L45.3144 20.4077ZM32.237 37.8767L30.6359 36.6782C30.3307 37.0859 30.1925 37.5947 30.2496 38.1008L32.237 37.8767ZM34.6856 59.5926L32.6982 59.8167L33.2647 64.8401L36.2884 60.7889L34.6856 59.5926ZM47.7847 42.0427L49.3874 43.239C49.6921 42.8309 49.8295 42.3219 49.7717 41.8158L47.7847 42.0427ZM43.7133 19.2092L30.6359 36.6782L33.8381 39.0753L46.9154 21.6063L43.7133 19.2092ZM36.673 59.3685L34.2244 37.6526L30.2496 38.1008L32.6982 59.8167L36.673 59.3685ZM43.3273 20.6346L45.7976 42.2696L49.7717 41.8158L47.3015 20.1808L43.3273 20.6346ZM48.3023 40.1109L32.7547 35.9449L31.7194 39.8086L47.267 43.9746L48.3023 40.1109ZM36.2884 60.7889L49.3874 43.239L46.1819 40.8464L33.0829 58.3963L36.2884 60.7889Z" fill="#FFFFF5"/>
</svg>
