<svg width="162" height="155" viewBox="0 0 162 155" fill="none" xmlns="http://www.w3.org/2000/svg">
<rect width="162" height="155" fill="white"/>
<path d="M78.1895 153.741C77.6511 153.515 77.7076 153.439 78.6586 153.109C80.7152 152.395 82.1626 151.127 82.9869 149.316C84.6985 145.556 86.6035 144.21 91.1268 143.562C92.5055 143.364 92.9891 143.794 91.8079 144.167C91.1019 144.39 89.3223 146.943 89.3194 147.737C89.317 148.829 88.6488 150.468 87.8331 151.392C86.3629 153.057 84.5005 153.791 81.4706 153.901C80.0026 153.954 78.5261 153.881 78.1895 153.741ZM90.4203 152.971C92.0555 152.001 93.9757 149.744 94.3272 148.378C94.8747 146.251 95.2388 145.455 96.078 144.555C97.338 143.202 98.8079 142.242 100.446 141.701C102.765 140.935 103.025 141.036 101.93 142.277C101.385 142.895 100.892 143.874 100.787 144.543C100.044 149.313 99.6223 150.216 97.4762 151.63C95.9339 152.646 93.3366 153.384 91.3838 153.361C90.0061 153.346 89.8766 153.293 90.4203 152.971ZM67.1041 152.677C66.5428 152.498 66.0835 152.26 66.0835 152.149C66.0835 152.038 66.7328 151.774 67.5264 151.562C69.4312 151.055 70.9283 149.878 72.2149 147.876C72.8704 146.857 73.8011 145.928 74.6859 145.412C76.2359 144.508 79.4331 143.903 81.0846 144.202L82.1117 144.388L80.8789 144.995C79.5531 145.648 78.346 147.21 77.7322 149.066C77.2979 150.381 75.7013 151.909 74.0411 152.599C72.7478 153.137 68.6866 153.183 67.1041 152.677ZM103.079 149.996C104.497 148.693 105.336 147.054 105.336 145.587C105.336 144.074 106.568 141.235 107.724 140.085C108.722 139.091 112.157 137.248 112.456 137.545C112.53 137.619 112.23 138.207 111.789 138.853C111.08 139.894 110.989 140.342 110.989 142.809C110.989 146.143 110.389 147.589 108.416 149.011C107.134 149.936 103.683 151.192 102.425 151.192C101.885 151.192 101.994 150.993 103.079 149.996ZM58.2945 150.589C56.5075 150.136 54.4647 149.277 54.4647 148.978C54.4647 148.82 55.0498 148.691 55.7649 148.691C57.5141 148.691 59.5945 147.602 60.9188 145.994C61.5442 145.234 62.7444 144.312 63.7365 143.829C65.3024 143.066 65.7158 143 68.1362 143.127C71.0427 143.279 72.1921 143.782 70.4248 144.13C69.0812 144.394 68.0165 145.344 66.6093 147.533C65.8582 148.702 65.0552 149.507 64.2151 149.933C62.7884 150.658 59.8508 150.983 58.2945 150.589ZM113.921 146.556C115.313 145.109 116.017 143.078 115.956 140.679C115.894 138.205 116.762 135.798 118.159 134.574C121.069 132.025 121.929 131.77 121.159 133.686C120.823 134.521 120.721 135.375 120.85 136.265C121.48 140.597 121.453 141.355 120.622 142.665C119.274 144.79 116.692 146.588 114.178 147.153L113.118 147.391L113.921 146.556ZM47.6415 146.527C46.0814 146.083 43.1567 144.586 43.1607 144.233C43.161 144.193 44.115 144.148 45.2803 144.134C47.5368 144.107 48.6148 143.699 50.2253 142.261C52.5611 140.176 56.1361 139.567 59.4449 140.691L61.1278 141.263L59.4709 141.821C58.2436 142.235 57.328 142.874 55.94 144.286C54.5063 145.744 53.6936 146.302 52.4812 146.66C50.5277 147.237 50.0947 147.226 47.6415 146.527ZM38.1603 141.301C36.5248 140.732 34.7637 139.662 33.926 138.73L33.3278 138.064H35.8791C37.9194 138.064 38.6682 137.929 39.6175 137.388C42.3809 135.814 42.6868 135.72 45.044 135.72C47.0023 135.72 47.7167 135.873 49.2833 136.628L51.1674 137.537L49.714 137.769C47.9398 138.053 47.1299 138.46 45.5588 139.859C43.3387 141.835 41.0009 142.291 38.1603 141.301ZM124.244 141.581C125.842 138.413 125.978 137.366 125.257 133.797C124.892 131.993 125.903 129.463 127.744 127.571C129.422 125.847 130.476 125.298 129.841 126.479C129.32 127.448 129.478 129.98 130.151 131.457C130.498 132.217 130.772 133.492 130.772 134.343C130.772 136.872 128.619 139.729 125.528 141.303C124.43 141.862 124.061 141.942 124.244 141.581ZM30.2108 134.94C28.375 134.39 25.0625 131.905 24.2904 130.499C24.0199 130.007 24.0795 130.001 25.0903 130.421C26.7455 131.11 29.7294 131.003 31.4797 130.193C32.5773 129.685 33.5174 129.517 35.1585 129.533C37.4065 129.555 38.4244 129.931 40.8047 131.615L41.7467 132.282L39.7947 132.468C38.3665 132.604 37.4817 132.897 36.4975 133.562C34.1287 135.161 32.2915 135.564 30.2108 134.94ZM134.301 133.155C134.954 131.231 134.878 129.568 134.048 127.592C132.971 125.026 133.887 121.275 136.108 119.157L137.053 118.256V119.887C137.053 121.114 137.325 122.078 138.152 123.774C139.73 127.011 139.59 129.069 137.615 131.702C136.839 132.737 134.333 134.939 133.931 134.939C133.802 134.939 133.968 134.136 134.301 133.155ZM52.8945 133.457C52.0696 133.138 51.6587 132.32 51.6484 130.976C51.641 129.931 51.8036 129.541 52.4659 129.023C52.9209 128.667 53.6275 128.375 54.036 128.375C54.7666 128.375 56.0348 129.35 56.0348 129.912C56.0348 130.07 56.1205 130.422 56.2254 130.694C56.3865 131.111 56.118 131.188 54.4982 131.188C53.1341 131.188 52.5805 131.305 52.5805 131.594C52.5805 132.648 54.6135 133.23 54.9791 132.282C55.2101 131.683 56.0348 131.669 56.0348 132.265C56.0348 133.247 54.1759 133.953 52.8945 133.457ZM55.034 130.016C54.9074 129.354 53.663 129.12 53.0343 129.64C52.2663 130.274 52.5245 130.563 53.8596 130.563C54.9084 130.563 55.1199 130.464 55.034 130.016ZM60.0124 133.48C59.8974 133.365 59.803 132.24 59.803 130.98C59.803 129.151 59.8981 128.688 60.274 128.688C60.6534 128.688 60.745 129.174 60.745 131.188C60.745 133.485 60.5694 134.035 60.0124 133.48ZM62.0012 131.188C62.0012 129.398 62.1128 128.687 62.3937 128.684C62.6096 128.682 63.2916 128.598 63.9092 128.496C65.6152 128.215 66.0835 128.867 66.0835 131.523C66.0835 133.24 65.9859 133.689 65.6125 133.689C65.2418 133.689 65.1414 133.253 65.1414 131.647C65.1414 130.046 65.0309 129.563 64.6277 129.41C63.6066 129.02 63.105 129.749 63.0068 131.768C62.9372 133.196 62.7964 133.689 62.4573 133.689C62.0966 133.689 62.0012 133.166 62.0012 131.188ZM67.3396 131.254V128.768L68.6063 128.566C69.3029 128.455 70.1319 128.502 70.4484 128.671C70.8389 128.879 71.3489 128.856 72.0353 128.598C72.9602 128.251 73.0993 128.284 73.6611 128.974C74.1487 129.573 74.2564 130.116 74.1832 131.606C74.067 133.973 73.3082 134.51 73.3018 132.23C73.2968 130.188 73.0224 129.313 72.3902 129.313C71.4572 129.313 71.1079 130.018 71.1079 131.902C71.1079 133.234 70.9996 133.705 70.7153 133.612C70.4717 133.532 70.2872 132.745 70.2289 131.538C70.1635 130.185 69.9952 129.541 69.6754 129.419C68.8377 129.099 68.3146 129.931 68.2181 131.737C68.162 132.785 67.9677 133.535 67.7321 133.612C67.4401 133.708 67.3396 133.104 67.3396 131.254ZM75.7035 133.041C73.9959 131.704 75.0859 128.375 77.2313 128.375C79.3231 128.375 80.3688 131.376 78.8157 132.921C77.8737 133.859 76.8011 133.9 75.7035 133.041ZM78.3933 131.957C78.9037 130.842 78.3909 129.502 77.3996 129.361C76.4944 129.233 75.8182 130.013 75.8182 131.185C75.8182 132.836 77.7287 133.409 78.3933 131.957ZM80.5286 130.199C80.5286 127.397 80.6099 126.812 80.9996 126.812C81.3127 126.812 81.4706 127.124 81.4706 127.742C81.4706 128.593 81.5452 128.657 82.3459 128.498C83.7682 128.215 84.7679 129.245 84.7679 130.993C84.7679 132.899 84.1241 133.516 82.0912 133.555L80.5286 133.586V130.199ZM83.6574 131.999C84.2854 130.355 83.0684 128.695 81.9266 129.638C81.4691 130.016 81.2877 132.152 81.68 132.543C82.191 133.051 83.3804 132.724 83.6574 131.999ZM85.867 131.214C85.867 129.146 85.9547 128.688 86.3512 128.688C86.7534 128.688 86.8199 129.094 86.7437 131.085C86.6835 132.656 86.5167 133.527 86.2595 133.611C85.9671 133.708 85.867 133.096 85.867 131.214ZM87.8962 133.302C87.8033 133.06 87.7678 131.466 87.8177 129.759C87.8875 127.368 88.008 126.656 88.3429 126.656C88.6881 126.656 88.7726 127.362 88.7538 130.088C88.7389 132.203 88.6026 133.562 88.3978 133.63C88.2151 133.691 87.9893 133.543 87.8962 133.302ZM90.1586 133.48C90.0436 133.366 89.9492 132.24 89.9492 130.98C89.9492 129.151 90.0443 128.688 90.4202 128.688C90.7996 128.688 90.8912 129.174 90.8912 131.188C90.8912 133.485 90.7156 134.035 90.1586 133.48ZM92.3268 133.197C91.2237 132.099 91.9731 130.907 93.9695 130.584C94.7015 130.466 95.1306 130.225 95.1306 129.933C95.1306 129.239 93.6722 129.149 93.1844 129.813C92.853 130.264 92.6971 130.296 92.3818 129.977C92.0684 129.66 92.1381 129.461 92.7317 128.978C93.5783 128.29 94.9317 128.192 95.6706 128.766C96.3301 129.278 96.6292 133.689 96.0045 133.689C95.7829 133.689 95.6017 133.551 95.6017 133.384C95.6017 133.186 95.3195 133.186 94.7961 133.384C93.647 133.819 92.8938 133.762 92.3268 133.197ZM95.0878 132.063C95.5301 131.36 95.3357 131.231 94.1101 131.417C93.3601 131.531 93.0895 131.734 93.0895 132.182C93.0895 132.659 93.2716 132.771 93.9214 132.694C94.3789 132.639 94.9038 132.355 95.0878 132.063ZM97.4858 131.229V128.77L98.6339 128.584C99.9633 128.369 100.355 128.524 100.108 129.165C100.011 129.416 99.7995 129.54 99.6373 129.44C98.9444 129.014 98.4279 130.044 98.4279 131.851C98.4279 133.276 98.322 133.689 97.9568 133.689C97.578 133.689 97.4858 133.207 97.4858 131.229ZM100.626 131.188C100.626 129.174 100.718 128.688 101.097 128.688C101.476 128.688 101.568 129.174 101.568 131.188C101.568 133.202 101.476 133.689 101.097 133.689C100.718 133.689 100.626 133.202 100.626 131.188ZM103.338 133.041C102.67 132.518 102.51 132.13 102.51 131.032C102.51 129.934 102.67 129.546 103.338 129.023C104.435 128.164 105.508 128.205 106.45 129.142C107.979 130.665 106.963 133.689 104.922 133.689C104.506 133.689 103.793 133.397 103.338 133.041ZM106.027 131.957C106.787 130.298 105.203 128.568 103.906 129.64C103.356 130.094 103.307 131.856 103.829 132.376C104.491 133.035 105.633 132.817 106.027 131.957ZM108.368 133.117C108.082 132.803 107.849 132.381 107.849 132.179C107.849 131.637 108.693 131.735 108.912 132.303C109.034 132.619 109.4 132.758 109.942 132.694C111.268 132.537 111.144 131.917 109.692 131.435C108.233 130.951 107.642 130.299 107.947 129.509C108.408 128.313 111.083 128.066 111.512 129.179C111.79 129.899 111.387 130.088 110.538 129.636C109.768 129.226 108.791 129.367 108.791 129.887C108.791 130.042 109.429 130.347 110.208 130.564C111.304 130.869 111.671 131.139 111.826 131.751C112.221 133.32 109.522 134.386 108.368 133.117ZM59.803 127.281C59.803 127.023 60.015 126.812 60.2741 126.812C60.5332 126.812 60.7451 127.023 60.7451 127.281C60.7451 127.539 60.5332 127.75 60.2741 127.75C60.015 127.75 59.803 127.539 59.803 127.281ZM85.867 127.281C85.867 127.023 86.0789 126.812 86.338 126.812C86.5971 126.812 86.809 127.023 86.809 127.281C86.809 127.539 86.5971 127.75 86.338 127.75C86.0789 127.75 85.867 127.539 85.867 127.281ZM90.0048 127.229C90.1577 126.445 90.8913 126.337 90.8913 127.099C90.8913 127.483 90.6886 127.75 90.3973 127.75C90.1048 127.75 89.9447 127.537 90.0048 127.229ZM100.626 127.281C100.626 127.023 100.838 126.812 101.097 126.812C101.356 126.812 101.568 127.023 101.568 127.281C101.568 127.539 101.356 127.75 101.097 127.75C100.838 127.75 100.626 127.539 100.626 127.281ZM21.8063 126.789C20.0974 126.021 17.8958 123.961 17.057 122.345L16.4418 121.16L17.7895 121.856C19.2581 122.614 20.8778 122.704 25.4448 122.283C27.6336 122.082 28.1755 122.136 29.3701 122.673C30.7324 123.287 33.4251 125.39 33.4251 125.841C33.4251 125.967 32.6081 126.012 31.6095 125.94C30.1595 125.836 29.4023 125.974 27.8506 126.623C25.5198 127.6 23.7211 127.649 21.8063 126.789ZM142.413 125.798C142.848 124.289 142.758 121.761 142.238 120.874C140.858 118.521 140.52 117.51 140.517 115.716C140.514 113.779 141.461 111.14 142.455 110.322C142.867 109.983 142.96 110.122 143.127 111.34C143.331 112.818 143.839 113.804 145.249 115.455C147.645 118.262 147.001 122.19 143.553 125.796C142.327 127.078 142.044 127.079 142.413 125.798ZM59.0965 124.599C58.4242 124.21 58.3707 123.374 59.0179 123.374C59.277 123.374 59.489 123.505 59.489 123.666C59.489 124.063 60.5468 124.368 61.1409 124.141C61.4073 124.039 61.6949 123.691 61.78 123.367C61.9111 122.868 61.8023 122.804 61.0643 122.951C60.5855 123.047 59.9052 122.971 59.5525 122.783C58.6764 122.316 58.1249 120.572 58.5235 119.529C58.891 118.566 60.2489 117.599 60.7765 117.924C60.9817 118.05 61.5665 118.141 62.076 118.127L63.0025 118.101L62.8944 121.076C62.8032 123.584 62.6907 124.12 62.1767 124.494C61.471 125.007 59.8929 125.061 59.0965 124.599ZM61.7338 121.365C62.449 119.803 61.1137 118.045 59.945 119.011C59.4875 119.389 59.3061 121.525 59.6984 121.915C60.2026 122.417 61.4004 122.094 61.7338 121.365ZM46.6141 119.623C46.6141 115.26 47.0055 115.11 49.2833 118.598L50.8534 121.002L50.9451 118.594C51.0269 116.442 51.1022 116.185 51.6517 116.185C52.2248 116.185 52.2665 116.418 52.2665 119.623C52.2665 122.776 52.2177 123.062 51.678 123.062C51.2879 123.062 50.5205 122.198 49.4014 120.499L47.7132 117.937L47.622 120.499C47.5508 122.495 47.4294 123.062 47.0724 123.062C46.6984 123.062 46.6141 122.429 46.6141 119.623ZM53.8366 122.436C53.0368 121.64 52.9942 119.632 53.7581 118.734C54.6358 117.701 55.8096 117.582 56.7742 118.428C57.2296 118.828 57.6381 119.506 57.682 119.936C57.7578 120.679 57.6721 120.722 55.9562 120.811C54.0709 120.909 53.8204 121.125 54.644 121.945C55.2556 122.554 55.2673 122.554 56.3691 121.906C57.4659 121.261 57.9186 121.573 57.1355 122.435C56.3827 123.263 54.6676 123.263 53.8366 122.436ZM56.5918 119.568C56.3613 118.879 55.4491 118.506 54.8759 118.866C53.8398 119.516 54.048 119.936 55.4068 119.936C56.2716 119.936 56.6733 119.811 56.5918 119.568ZM64.4295 122.515C62.135 119.98 65.1558 116.423 67.7321 118.625C68.5886 119.358 68.4915 121.942 67.5837 122.575C66.6537 123.223 65.0433 123.193 64.4295 122.515ZM66.8628 121.929C68.0366 120.76 66.8578 118.05 65.534 118.875C64.7458 119.367 64.6114 121.506 65.3357 122.033C66.0526 122.555 66.2469 122.542 66.8628 121.929ZM69.6721 122.411C68.723 121.368 68.8761 119.42 69.9816 118.473C70.6492 117.902 71.0943 117.753 71.7016 117.899C72.9127 118.189 73.8834 119.623 72.8686 119.623C72.6279 119.623 72.3498 119.412 72.2504 119.155C72.0336 118.592 71.067 118.539 70.5426 119.061C70.3354 119.267 70.1658 119.965 70.1658 120.613C70.1658 121.502 70.3331 121.878 70.8513 122.154C71.4316 122.464 71.6201 122.417 72.0793 121.853C72.692 121.1 73.306 120.976 73.306 121.606C73.306 122.969 70.703 123.545 69.6721 122.411ZM74.2481 120.561C74.2481 118.547 74.3398 118.061 74.7191 118.061C75.0986 118.061 75.1902 118.547 75.1902 120.561C75.1902 122.575 75.0985 123.062 74.7191 123.062C74.3397 123.062 74.2481 122.575 74.2481 120.561ZM76.6327 122.469C75.8464 121.604 75.8876 119.415 76.7053 118.601C77.5641 117.747 79.1126 117.763 79.9893 118.635C80.8684 119.51 80.9161 121.492 80.0802 122.412C79.306 123.263 77.3839 123.295 76.6327 122.469ZM79.0783 122.033C79.8025 121.506 79.6681 119.367 78.8801 118.875C78.0149 118.336 77.2486 119.014 77.13 120.424C77.0567 121.299 77.1808 121.741 77.5826 122.033C77.8873 122.255 78.2238 122.436 78.3305 122.436C78.4371 122.436 78.7737 122.255 79.0783 122.033ZM81.6369 122.358C81.1948 121.733 81.1928 121.644 81.6195 121.554C81.883 121.499 82.3209 121.674 82.5926 121.945C83.2138 122.563 83.7951 122.57 84.2987 121.967C84.6318 121.567 84.4494 121.397 83.081 120.831C81.7925 120.298 81.4716 120.02 81.4716 119.433C81.4716 118.469 82.7146 117.655 83.7806 117.921C84.8748 118.195 85.457 118.908 84.9765 119.386C84.7028 119.658 84.5129 119.609 84.1997 119.182C83.9717 118.872 83.5237 118.669 83.204 118.73C82.1633 118.931 82.3537 119.556 83.575 119.948C85.0699 120.427 85.5539 120.804 85.5539 121.489C85.5539 123.019 82.5718 123.68 81.6369 122.358ZM89.0072 120.541C89.0072 118.315 89.0714 118.032 89.5567 118.111C89.859 118.161 90.2702 118.099 90.4705 117.974C90.9581 117.669 91.8902 118.047 91.7421 118.49C91.6772 118.683 91.3534 118.893 91.0223 118.956C90.1554 119.121 89.9595 119.573 89.954 121.421C89.9516 122.669 89.8363 123.062 89.4782 123.062C89.0985 123.062 89.0072 122.573 89.0072 120.541ZM92.4716 122.455C92.2934 122.124 92.1474 120.999 92.1474 119.956C92.1474 118.507 92.2547 118.061 92.6035 118.061C92.9436 118.061 93.0833 118.557 93.153 120.014C93.2459 121.956 93.2521 121.968 94.1886 121.968C95.1248 121.968 95.1312 121.955 95.2241 120.014C95.2938 118.557 95.4335 118.061 95.7737 118.061C96.1337 118.061 96.2297 118.578 96.2297 120.52V122.979L94.5127 123.019C93.1136 123.051 92.7357 122.946 92.4716 122.455ZM97.4858 120.541C97.4858 118.315 97.55 118.032 98.0353 118.111C98.3376 118.161 98.7488 118.099 98.9491 117.974C99.4796 117.642 100.3 118.041 100.109 118.537C100.019 118.771 99.6389 119.005 99.2649 119.058C98.6625 119.144 98.5742 119.377 98.4914 121.108C98.4217 122.565 98.2819 123.062 97.9418 123.062C97.5808 123.062 97.4858 122.536 97.4858 120.541ZM100.679 122.677C100.189 122.189 100.212 121.033 100.72 120.613C100.945 120.428 101.728 120.18 102.462 120.064C103.456 119.905 103.771 119.723 103.7 119.347C103.569 118.66 101.939 118.487 101.69 119.134C101.429 119.81 100.553 119.762 100.685 119.079C100.836 118.302 102.349 117.663 103.464 117.907C104.497 118.133 104.637 118.484 104.776 121.199L104.865 122.931L102.956 122.987C101.843 123.02 100.894 122.89 100.679 122.677ZM103.273 121.945C104.062 121.16 103.889 120.626 102.903 120.803C101.647 121.028 101.161 121.479 101.603 122.009C102.072 122.572 102.666 122.55 103.273 121.945ZM105.964 119.623C105.964 116.776 106.045 116.185 106.435 116.185C106.826 116.185 106.906 116.776 106.906 119.623C106.906 122.471 106.825 123.062 106.435 123.062C106.045 123.062 105.964 122.471 105.964 119.623ZM108.477 122.436C107.677 121.64 107.634 119.632 108.398 118.734C108.7 118.378 109.333 117.997 109.803 117.886C110.492 117.724 110.849 117.873 111.632 118.653C113.083 120.097 112.794 120.697 110.593 120.811C108.711 120.909 108.461 121.126 109.284 121.945C109.894 122.552 110.082 122.556 110.85 121.978C112.025 121.093 112.754 121.572 111.751 122.57C111.05 123.269 109.238 123.195 108.477 122.436ZM111.303 119.686C111.303 119.248 110.568 118.686 109.995 118.686C109.69 118.686 109.29 118.967 109.105 119.311C108.794 119.888 108.866 119.936 110.036 119.936C110.733 119.936 111.303 119.823 111.303 119.686ZM113.564 122.686C113.096 122.221 113.071 121.499 113.523 121.499C113.709 121.499 114.072 121.71 114.331 121.968C114.925 122.559 115.515 122.565 115.999 121.985C116.311 121.611 116.115 121.409 114.86 120.813C113.061 119.958 112.716 119.007 113.919 118.222C114.761 117.673 116.055 117.827 116.655 118.546C117.23 119.236 116.675 119.75 116.005 119.148C115.386 118.589 114.412 118.62 114.217 119.203C114.151 119.402 114.634 119.737 115.29 119.947C117.366 120.613 117.849 121.505 116.695 122.544C116.028 123.146 114.112 123.232 113.564 122.686ZM15.6829 118.102C13.2863 117.015 11.2229 114.626 10.4934 112.094L10.2318 111.186L11.2302 111.935C12.8999 113.186 14.8282 113.665 17.4391 113.476C20.8541 113.228 22.8777 114.053 24.9572 116.54C25.8149 117.566 26.5166 118.452 26.5166 118.509C26.5166 118.566 25.9867 118.424 25.3391 118.194C23.7867 117.642 22.5528 117.648 20.6786 118.214C18.6433 118.828 17.2125 118.796 15.6829 118.102ZM149.257 115.057C149.148 112.667 149.077 112.452 147.851 110.846C147.141 109.915 146.399 108.675 146.203 108.09C145.646 106.436 145.806 104.023 146.609 101.964L147.34 100.088L147.573 101.339C147.886 103.021 148.696 104.284 150.266 105.54C151.956 106.892 152.873 108.906 152.685 110.855C152.527 112.489 151.319 115.248 150.15 116.646L149.372 117.575L149.257 115.057ZM74.2481 116.654C74.2481 116.396 74.46 116.185 74.7191 116.185C74.9782 116.185 75.1902 116.396 75.1902 116.654C75.1902 116.912 74.9783 117.123 74.7191 117.123C74.4601 117.123 74.2481 116.912 74.2481 116.654ZM35.3093 108.996V105.558H37.6572C39.8133 105.558 40.0471 105.622 40.518 106.337C41.1474 107.293 40.8941 108.564 40.0189 108.84C39.264 109.079 39.224 109.407 39.8833 109.951C40.343 110.331 41.2757 111.879 41.2757 112.263C41.2757 112.357 41.0769 112.434 40.8341 112.434C40.5913 112.434 39.885 111.731 39.2645 110.872C38.3414 109.593 37.9653 109.309 37.1939 109.309C36.2722 109.309 36.2514 109.343 36.2514 110.872C36.2514 112.052 36.1363 112.434 35.7803 112.434C35.3902 112.434 35.3093 111.844 35.3093 108.996ZM39.6461 107.533C39.7686 106.676 38.7895 106.11 37.4144 106.243C36.5293 106.328 36.3964 106.464 36.3087 107.373L36.209 108.405L37.8788 108.31C39.3204 108.228 39.5619 108.122 39.6461 107.533ZM42.5318 111.809C41.606 110.888 41.6792 108.879 42.6746 107.888C43.5121 107.055 43.967 106.967 45.142 107.411C45.9034 107.699 46.7743 109.423 46.4348 109.97C46.3404 110.122 45.4942 110.247 44.5544 110.247C43.6147 110.247 42.8458 110.359 42.8458 110.497C42.8458 111.42 44.9165 111.879 45.2445 111.028C45.469 110.445 46.3001 110.407 46.3001 110.98C46.3001 112.336 43.6476 112.92 42.5318 111.809ZM45.287 108.941C45.0565 108.252 44.1442 107.879 43.5711 108.239C42.535 108.889 42.7432 109.309 44.1019 109.309C44.9668 109.309 45.3685 109.184 45.287 108.941ZM47.458 112.233C47.3393 112.115 47.2422 110.978 47.2422 109.706C47.2422 107.686 47.3116 107.403 47.7917 107.464C48.0939 107.502 48.7317 107.424 49.2089 107.292C49.7467 107.143 50.2407 107.187 50.5083 107.408C50.8325 107.676 51.1447 107.672 51.7603 107.393C52.3795 107.113 52.773 107.109 53.3656 107.379C54.1017 107.712 54.1507 107.881 54.1507 110.085C54.1507 111.967 54.0565 112.436 53.6796 112.436C53.309 112.436 53.2086 112.001 53.2086 110.395C53.2086 108.861 53.0904 108.308 52.7336 108.172C51.8173 107.822 51.3245 108.671 51.3245 110.599C51.3245 112.024 51.2186 112.436 50.8534 112.436C50.4899 112.436 50.3813 112.026 50.3776 110.639C50.3726 108.586 50.0879 107.951 49.2457 108.111C48.7617 108.202 48.627 108.584 48.4983 110.227C48.3533 112.076 47.9946 112.767 47.458 112.233ZM55.5711 111.928C54.4367 110.799 55.5587 109.309 57.5408 109.309C58.3733 109.309 58.5712 109.195 58.4888 108.762C58.3508 108.037 56.7306 107.832 56.4704 108.507C56.231 109.127 55.4068 109.149 55.4068 108.535C55.4068 107.717 56.8554 107.029 58.091 107.26C59.3862 107.501 59.4125 107.555 59.5577 110.26L59.6675 112.305L57.8585 112.355C56.6028 112.389 55.9031 112.259 55.5711 111.928ZM58.4908 110.447C58.5734 110.033 58.4026 109.976 57.5488 110.135C56.0949 110.406 55.7414 110.814 56.4862 111.361C57.0031 111.741 57.1922 111.743 57.7423 111.381C58.0985 111.146 58.4353 110.726 58.4908 110.447ZM61.1219 112.059C60.9147 111.853 60.7451 110.88 60.7451 109.898C60.7451 108.761 60.6024 108.053 60.3526 107.952C60.0651 107.836 60.0553 107.725 60.3164 107.536C60.5122 107.393 60.7243 107.008 60.7874 106.678C60.95 105.83 61.6873 105.667 61.6873 106.48C61.6873 106.843 61.8992 107.222 62.1584 107.321C62.4174 107.42 62.6294 107.626 62.6294 107.78C62.6294 107.933 62.4175 108.059 62.1584 108.059C61.8021 108.059 61.6873 108.442 61.6873 109.631C61.6873 110.741 61.8261 111.257 62.1584 111.384C62.4174 111.483 62.6294 111.76 62.6294 111.999C62.6294 112.533 61.6375 112.573 61.1219 112.059ZM63.6759 111.629C62.9913 110.948 62.8933 110.629 63.0381 109.555C63.241 108.048 63.7038 107.517 65.0463 107.249C65.8524 107.089 66.1953 107.204 66.8478 107.853C67.291 108.294 67.6536 109.013 67.6536 109.451C67.6536 110.208 67.5694 110.247 65.9035 110.247C64.4061 110.247 64.1685 110.326 64.2581 110.794C64.4018 111.545 65.6896 111.666 66.4309 110.998C67.35 110.17 67.9374 110.902 67.057 111.778C66.1371 112.694 64.6809 112.63 63.6759 111.629ZM66.3975 108.684C65.9169 107.79 64.1994 107.938 64.1994 108.874C64.1994 109.174 64.5928 109.309 65.4665 109.309C66.6363 109.309 66.7078 109.261 66.3975 108.684ZM68.8783 111.778C68.3769 111.279 68.3067 111.036 68.5854 110.762C68.8624 110.491 69.0555 110.542 69.3751 110.973C69.6436 111.335 70.0987 111.506 70.6199 111.442C71.4996 111.333 71.7378 110.833 71.0536 110.532C68.7391 109.51 68.1865 108.834 68.845 107.829C69.3258 107.095 70.9144 107.021 71.7477 107.694C72.6239 108.401 72.3454 109.018 71.4119 108.438C70.5719 107.916 69.5378 107.962 69.5378 108.522C69.5378 108.776 69.9264 109.074 70.4013 109.184C72.5743 109.686 73.3292 111.008 71.9801 111.948C71.0049 112.628 69.6579 112.554 68.8783 111.778ZM83.6688 109.484V106.534L82.5155 106.437C81.8812 106.383 81.3041 106.164 81.2332 105.949C81.1363 105.656 81.8154 105.558 83.9567 105.558C86.2828 105.558 86.809 105.645 86.809 106.027C86.809 106.355 86.4775 106.496 85.7099 106.496H84.6109V109.465C84.6109 111.896 84.5254 112.435 84.1398 112.435C83.7544 112.435 83.6688 111.898 83.6688 109.484ZM86.5578 112.059C86.0298 111.534 86.0885 110.4 86.6683 109.92C86.9365 109.699 87.6783 109.433 88.317 109.33C89.049 109.212 89.4781 108.971 89.4781 108.679C89.4781 108.037 87.9508 107.911 87.4501 108.512C86.9397 109.124 86.4949 109.135 86.4949 108.534C86.4949 107.733 87.9438 107.028 89.1324 107.25C90.4208 107.491 90.5772 107.834 90.5772 110.428C90.5772 112.409 90.4004 112.758 89.7333 112.094C89.4875 111.849 89.3329 111.849 89.181 112.094C88.8967 112.552 87.028 112.527 86.5578 112.059ZM88.9373 111.323C90.0241 110.565 89.8456 109.911 88.6146 110.139C87.2685 110.39 86.928 110.73 87.426 111.327C87.9267 111.928 88.0701 111.928 88.9373 111.323ZM92.0128 111.943C91.7414 111.673 91.5194 111.251 91.5194 111.006C91.5194 110.403 92.3468 110.436 92.5831 111.049C92.7048 111.365 93.0704 111.503 93.613 111.44C94.7703 111.303 94.9009 110.628 93.8183 110.377C91.5784 109.859 90.8461 108.512 92.2916 107.569C93.1819 106.989 94.908 107.213 95.1905 107.945C95.4608 108.646 95.0493 108.83 94.2092 108.382C93.4348 107.97 92.4613 108.113 92.4613 108.64C92.4613 108.799 92.85 109.024 93.3249 109.14C94.6142 109.455 95.6016 110.189 95.6016 110.83C95.6016 112.216 93.0741 113 92.0128 111.943ZM96.7211 111.832C95.6604 110.665 96.8545 109.309 98.9424 109.309C99.5229 109.309 99.7026 109.165 99.6258 108.762C99.4877 108.037 97.8676 107.832 97.6074 108.507C97.3703 109.122 96.5437 109.152 96.5437 108.545C96.5437 107.423 99.0212 106.695 100.061 107.512C100.74 108.045 101.066 112.435 100.427 112.435C100.191 112.435 99.998 112.289 99.998 112.111C99.998 111.888 99.8093 111.888 99.3906 112.111C98.4492 112.613 97.3239 112.495 96.7211 111.832ZM99.0765 111.486C99.8283 111.085 99.93 109.773 99.1874 110.057C98.9142 110.161 98.4858 110.247 98.2354 110.247C97.5993 110.247 97.3021 111.189 97.8327 111.524C98.3839 111.871 98.3517 111.872 99.0765 111.486ZM102.593 111.957C100.985 110.836 101.567 107.689 103.46 107.276C104.537 107.04 105.964 107.757 105.964 108.535C105.964 109.152 105.34 109.121 104.87 108.482C104.289 107.691 102.939 108.153 102.736 109.212C102.484 110.526 102.989 111.497 103.925 111.497C104.367 111.497 104.809 111.286 104.909 111.028C105.133 110.445 105.964 110.407 105.964 110.98C105.964 111.628 104.902 112.435 104.047 112.435C103.624 112.435 102.97 112.219 102.593 111.957ZM106.592 109.934C106.592 107.92 106.684 107.434 107.063 107.434C107.443 107.434 107.535 107.92 107.535 109.934C107.535 111.948 107.443 112.435 107.063 112.435C106.684 112.435 106.592 111.948 106.592 109.934ZM109.127 111.611C108.224 110.468 108.276 108.855 109.247 107.888C111.5 105.647 114.535 109.082 112.536 111.611C112.064 112.208 111.596 112.435 110.832 112.435C110.068 112.435 109.599 112.208 109.127 111.611ZM111.868 111.122C112.366 110.626 112.348 109.257 111.835 108.558C111.231 107.736 109.97 108.021 109.604 109.062C108.999 110.782 110.676 112.308 111.868 111.122ZM114.129 109.914C114.129 107.692 114.194 107.404 114.679 107.474C114.981 107.518 115.553 107.445 115.95 107.311C116.432 107.15 116.928 107.236 117.442 107.571C118.137 108.025 118.211 108.284 118.211 110.254C118.211 111.984 118.114 112.435 117.74 112.435C117.37 112.435 117.269 111.999 117.269 110.393C117.269 108.791 117.159 108.309 116.756 108.155C115.734 107.765 115.233 108.495 115.135 110.514C115.065 111.942 114.924 112.435 114.585 112.435C114.224 112.435 114.129 111.909 114.129 109.914ZM119.781 111.809C118.856 110.888 118.929 108.879 119.924 107.888C120.76 107.056 121.217 106.967 122.381 107.407C123.185 107.711 124.063 109.36 123.718 109.915C123.605 110.098 122.732 110.247 121.778 110.247C119.941 110.247 119.7 110.587 120.953 111.415C121.547 111.807 121.691 111.784 122.271 111.207C123.017 110.464 123.55 110.369 123.55 110.98C123.55 112.336 120.897 112.92 119.781 111.809ZM122.537 108.941C122.306 108.252 121.394 107.879 120.821 108.239C119.785 108.889 119.993 109.309 121.352 109.309C122.216 109.309 122.618 109.184 122.537 108.941ZM125.041 112.097C124.482 111.773 124.266 110.559 124.767 110.559C124.919 110.559 125.225 110.777 125.447 111.044C125.905 111.593 127.362 111.536 127.552 110.961C127.621 110.751 127.284 110.491 126.791 110.377C124.551 109.859 123.819 108.512 125.264 107.57C126.154 106.989 127.881 107.213 128.163 107.945C128.433 108.647 128.022 108.83 127.182 108.382C126.39 107.961 125.434 108.117 125.434 108.668C125.434 108.842 125.822 109.074 126.297 109.184C127.595 109.484 128.574 110.192 128.574 110.831C128.574 112.13 126.426 112.9 125.041 112.097ZM19.1371 109.504C18.0611 108.935 17.444 108.853 14.8324 108.928C12.7325 108.988 11.4517 108.878 10.7171 108.572C8.42008 107.617 6.15623 104.409 5.61305 101.339L5.39172 100.089L6.58655 101.3C8.09562 102.829 9.93439 103.667 11.7999 103.676C15.2014 103.693 18.1181 105.456 19.7568 108.487C20.2094 109.324 20.5376 110.045 20.4864 110.089C20.4351 110.133 19.828 109.87 19.1371 109.504ZM75.5809 109.856C75.6518 109.641 76.2996 109.422 77.0202 109.369C78.0383 109.294 78.3304 109.382 78.3304 109.76C78.3304 110.13 77.9847 110.247 76.8911 110.247C75.8802 110.247 75.4903 110.13 75.5809 109.856ZM154.821 105.53C154.535 103.386 154.019 102.455 152.001 100.446C149.346 97.8043 148.831 95.5044 149.966 91.3691L150.319 90.0867L150.728 91.4485C151.217 93.0759 152.051 94.0256 154.202 95.403C156.16 96.6568 157.15 98.4552 157.15 100.756C157.15 102.565 156.475 105.016 155.627 106.282L155.038 107.162L154.821 105.53ZM106.592 106.027C106.592 105.769 106.804 105.558 107.063 105.558C107.323 105.558 107.535 105.769 107.535 106.027C107.535 106.285 107.323 106.496 107.063 106.496C106.804 106.496 106.592 106.285 106.592 106.027ZM15.2652 100.855C14.3037 100.074 12.6078 99.6235 10.6183 99.6214C9.73268 99.6205 8.51164 99.4132 7.90489 99.1609C5.4308 98.132 3.48084 95.0893 3.08921 91.6466L2.87631 89.7741L4.21501 91.2718C5.49167 92.7001 7.47623 93.9936 8.39093 93.9936C9.73238 93.9936 12.2668 95.0974 13.4791 96.2096C15.513 98.0757 17.1796 102.41 15.2652 100.855ZM110.452 101.339C110.371 101.26 109.669 101.121 108.892 101.031C106.518 100.755 102.675 99.259 98.3934 96.9435C92.0295 93.5018 91.3055 93.2494 90.0296 94.0276C89.462 94.3737 89.2907 94.2992 88.5269 93.3738C87.9025 92.6174 87.2793 92.2544 86.2671 92.0575C85.4983 91.908 83.9508 91.581 82.8282 91.3309C81.7056 91.0809 78.738 90.4414 76.2337 89.91C71.234 88.8489 68.7898 88.015 67.1511 86.8109C65.9266 85.9111 63.1814 85.6427 62.8916 86.3945C62.6251 87.0855 62.7074 87.3857 63.1633 87.3857C63.4013 87.3857 63.7794 87.6057 64.0037 87.8747C64.342 88.2805 64.2919 88.7457 63.7084 90.6096C62.5677 94.2541 62.403 94.5747 61.6721 94.5726C61.1319 94.5714 56.2893 93.2806 54.2521 92.5954C53.993 92.5083 52.5446 92.0574 51.0334 91.5936C49.5221 91.1298 48.2857 90.6018 48.2857 90.4203C48.2857 90.2387 48.7449 88.6329 49.3062 86.8517C50.1625 84.1345 50.418 83.6359 50.8933 83.7554C51.5779 83.9276 51.9408 83.1781 53.2974 78.7904C54.1472 76.042 54.2063 75.623 53.7869 75.3178C53.5246 75.1268 53.3101 74.7927 53.3101 74.5752C53.3101 74.2305 55.1712 68.3059 55.3512 68.0776C55.4479 67.955 58.4061 68.7636 61.1606 69.6654C62.456 70.0895 64.0104 70.5391 64.6149 70.6644C65.2194 70.7897 65.8552 70.9983 66.028 71.128C66.2007 71.2577 66.8577 71.4561 67.488 71.569C69.3624 71.9048 69.4784 72.299 68.5572 75.2013C67.4697 78.6278 67.3007 78.8903 66.1086 79.005C64.6334 79.1468 64.5779 80.0424 66.0073 80.637C66.6231 80.8931 67.1269 81.2153 67.1269 81.353C67.1269 81.4906 68.1514 81.6122 69.4036 81.623C70.9558 81.6354 72.3298 81.8751 73.7214 82.3728C75.5706 83.0342 83.3334 86.0738 84.8692 86.7378C85.2146 86.8871 85.9918 87.2238 86.5963 87.486C88.4525 88.2908 89.383 88.4155 90.4014 87.9956C91.3162 87.6185 91.409 87.6489 92.1264 88.5613C92.9043 89.5507 93.4516 89.7504 96.174 90.0386C106.465 91.1279 110.757 92.1086 113.523 94.003C117.178 96.5052 116.254 100.555 111.865 101.275C111.169 101.389 110.533 101.418 110.452 101.339ZM158.43 94.7385C157.948 92.8271 156.958 91.5205 154.776 89.9165C152.132 87.972 150.999 85.2569 151.457 81.9601L151.675 80.3973L152.184 81.335C152.915 82.6795 153.888 83.4894 156.199 84.6765C158.556 85.8876 159.473 87.0502 159.977 89.4647C160.36 91.2996 160.038 93.9429 159.25 95.4399L158.816 96.2648L158.43 94.7385ZM12.7467 92.2123C12.6461 91.4099 10.4144 90.1561 7.89623 89.4871C4.69461 88.6365 3.81098 88.043 2.74018 86.0234C2.08111 84.7804 1.88299 83.901 1.7718 81.7257C1.68332 79.9943 1.74949 78.9909 1.9505 78.9909C2.12572 78.9909 2.3597 79.351 2.47071 79.7912C2.78723 81.0464 5.13065 83.1666 6.72607 83.6412C8.36357 84.1282 10.4867 85.5086 11.4254 86.6964C12.2506 87.7406 13.0984 90.5829 12.925 91.7239C12.8529 92.1986 12.7725 92.4184 12.7467 92.2123ZM160.16 83.0563C159.211 81.0664 158.392 80.3094 155.757 78.9855C153.978 78.092 152.291 76.1 151.844 74.3675C151.478 72.944 151.211 70.5518 151.419 70.5518C151.503 70.5518 152.095 71.0889 152.735 71.7453C153.603 72.6357 154.411 73.0815 155.917 73.5009C159.793 74.5802 161.269 76.411 161.479 80.3973C161.552 81.7726 161.489 83.3617 161.34 83.9287L161.068 84.9596L160.16 83.0563ZM11.1882 81.7957C10.1799 80.6274 9.13089 80.109 6.18061 79.3211C3.36715 78.5698 1.70483 75.7219 1.71366 71.6682C1.71861 68.9163 2.10592 68.1268 2.6474 69.7598C3.24399 71.559 4.7329 72.9889 7.24565 74.1758C10.4454 75.6871 11.8512 77.6392 12.2469 81.1204C12.3679 82.184 12.4133 83.0422 12.3476 83.0276C12.2821 83.0128 11.7604 82.4587 11.1882 81.7957ZM11.0832 72.5827C10.3303 71.2172 9.46139 70.5291 6.93942 69.3015C3.93494 67.839 2.94672 66.4643 2.72971 63.4453C2.62066 61.927 2.73466 60.7338 3.11684 59.4325L3.65936 57.5806L4.38484 59.5703C5.07534 61.464 6.76605 63.6755 7.52332 63.6755C8.24574 63.6755 10.4471 65.8948 11.1037 67.285C11.6524 68.4469 11.7655 69.1853 11.6918 71.1224L11.6006 73.5211L11.0832 72.5827ZM160.563 71.9583C159.319 70.074 158.319 69.292 156.312 68.6331C154.167 67.9288 152.443 66.8048 151.381 65.4191C150.608 64.4109 149.614 61.5994 149.614 60.4237C149.614 59.7953 149.621 59.7957 150.084 60.4547C150.86 61.5562 152.6 62.4353 154.658 62.7653C157.385 63.2024 158.893 64.0578 160 65.7951C161.199 67.6767 161.6 69.1985 161.483 71.4232L161.389 73.2085L160.563 71.9583ZM12.2223 63.823C11.7535 62.3571 11.0767 61.561 9.20059 60.2684C6.61103 58.4843 5.90526 57.638 5.45744 55.7801C5.02027 53.9661 5.46487 51.1492 6.50424 49.1492L7.15795 47.8913L7.63212 50.0701C8.07542 52.107 8.24354 52.3855 10.2136 54.3463C12.8082 56.9289 13.5063 58.6322 13.1868 61.6014C12.9446 63.852 12.534 64.7978 12.2223 63.823ZM55.3096 61.9119C55.1986 61.8014 53.0224 61.696 50.4735 61.6775C46.2561 61.6469 45.8291 61.5927 45.7282 61.0748C45.6564 60.7057 45.8477 60.4458 46.2727 60.3351C46.9674 60.1543 47.0436 59.9631 46.7375 59.169C46.4747 58.4874 44.2413 58.4874 43.9785 59.169C43.677 59.9511 43.7522 60.2374 44.2589 60.2374C44.5533 60.2374 44.7299 60.5335 44.7299 61.0272V61.8169L40.1021 61.7303C35.9144 61.6521 35.4637 61.5897 35.3644 61.0747C35.2933 60.7061 35.4856 60.4455 35.91 60.335C36.5161 60.1771 36.5638 59.9501 36.5445 57.3097L36.5246 54.455L35.3885 58.1275L34.2524 61.8001H33.0675H31.8827L31.2626 59.6904C30.9215 58.53 30.4308 56.8774 30.1721 56.0178L29.7017 54.455L29.6794 57.3097C29.6595 59.9112 29.7131 60.1789 30.2855 60.3279C30.6613 60.4256 30.9136 60.7542 30.9136 61.1457C30.9136 61.7476 30.7371 61.8001 28.7154 61.8001C26.58 61.8001 26.5172 61.7779 26.5172 61.0187C26.5172 60.5592 26.6974 60.2373 26.9547 60.2373C27.5949 60.2373 27.7733 59.5219 27.7733 56.9555C27.7733 54.389 27.5949 53.6736 26.9547 53.6736C26.6974 53.6736 26.5172 53.3518 26.5172 52.8922C26.5172 52.1203 26.5495 52.1108 29.1731 52.1108H31.829L32.4704 54.2543C32.8231 55.4332 33.1117 56.5584 33.1117 56.7547C33.1117 56.9511 33.2324 57.1118 33.38 57.1118C33.5275 57.1118 33.9868 55.9828 34.4006 54.603L35.1529 52.0942L37.9755 52.1808C40.4165 52.2555 40.8129 52.3441 40.9075 52.8363C40.9784 53.2048 40.7858 53.4656 40.3615 53.5761C39.7502 53.7352 39.7062 53.9644 39.7062 56.9921V60.2374H40.6483C41.1664 60.2374 41.5905 60.2022 41.5906 60.1593C41.5908 60.1163 42.2096 58.323 42.9657 56.1741L44.3405 52.2671H46.1625H47.9845L49.2357 56.2523C50.3696 59.8637 50.5557 60.2374 51.22 60.2374C51.8485 60.2374 51.9531 60.0812 51.9531 59.1434C51.9531 58.254 52.0718 58.0495 52.5879 58.0495C52.9652 58.0495 53.3721 58.3759 53.5911 58.8543C54.2521 60.2984 56.4992 61.0312 57.3045 60.0654C57.8856 59.3685 57.2698 58.8946 54.7006 58.061C52.3756 57.3067 51.639 56.583 51.639 55.0528C51.639 52.9631 53.7391 51.5565 56.2761 51.9469C57.0936 52.0727 58.3631 52.1598 59.0971 52.1403L60.4317 52.105V53.827C60.4317 55.532 60.4218 55.549 59.4896 55.549C58.9098 55.549 58.5475 55.3875 58.5475 55.1287C58.5475 54.1121 56.3937 53.1483 55.3566 53.7007C54.2177 54.3074 54.7317 54.8834 57.0167 55.5607C59.7785 56.3794 60.7457 57.2534 60.7457 58.9304C60.7457 60.9306 59.1174 62.1128 56.3625 62.1128C55.8947 62.1128 55.4206 62.0224 55.3096 61.9119ZM45.8375 56.2529C45.7183 55.7805 45.5618 55.3351 45.4895 55.2631C45.2808 55.0554 45.1112 55.33 44.8784 56.2529C44.6911 56.9962 44.7555 57.1118 45.358 57.1118C45.9605 57.1118 46.025 56.9963 45.8375 56.2529ZM64.3564 61.6715C62.4882 60.8451 61.8647 59.8037 61.7544 57.3264C61.6724 55.4797 61.7718 54.8957 62.3072 54.0431C63.2308 52.5758 65.4127 51.66 67.3082 51.9439C68.1027 52.0629 69.2826 52.1457 69.9303 52.128L71.1079 52.0956V54.1556C71.1079 56.2082 71.1054 56.2152 70.2624 56.1166C69.6079 56.0401 69.3581 55.79 69.1563 55.0091C68.6553 53.0716 66.4375 52.8382 65.8009 54.6559C65.135 56.5572 65.5199 59.6867 66.4957 60.3043C67.5558 60.9752 69.5378 59.8493 69.5378 58.5762C69.5378 58.1985 69.806 58.0493 70.4858 58.0493C71.3622 58.0493 71.4178 58.1142 71.2212 58.9089C70.8934 60.2334 70.2286 61.074 69.0794 61.6168C67.8121 62.2154 65.6427 62.2406 64.3564 61.6715ZM102.935 61.8022C102.024 61.4366 101.839 61.072 101.608 59.1899C101.429 57.7238 101.334 57.5718 100.548 57.4817C99.717 57.3867 99.6839 57.4373 99.6839 58.8101C99.6839 60.029 99.7756 60.2373 100.312 60.2373C100.773 60.2373 100.94 60.4458 100.94 61.0187C100.94 61.7974 100.93 61.8002 97.9568 61.8002C95.1385 61.8002 94.9736 61.7641 94.9736 61.1457C94.9736 60.7542 95.2259 60.4257 95.6016 60.3279C96.1782 60.1779 96.2297 59.9016 96.2297 56.9555C96.2297 54.0094 96.1784 53.7331 95.6016 53.5831C95.2259 53.4854 94.9736 53.1567 94.9736 52.7652C94.9736 52.1359 95.1243 52.1109 98.909 52.1109C103.604 52.1109 104.847 52.4796 105.176 53.9699C105.407 55.0165 104.72 56.4824 103.995 56.4915C103.749 56.4939 103.78 56.6032 104.08 56.7912C104.339 56.9535 104.714 57.8303 104.912 58.7399C105.208 60.0976 105.313 60.2677 105.498 59.6904C105.83 58.6552 106.592 58.8026 106.592 59.9021C106.592 61.5281 104.7 62.5112 102.935 61.8022ZM101.381 55.7659C101.726 55.515 101.9 55.0634 101.833 54.5938C101.747 53.9882 101.514 53.8096 100.705 53.732C99.7044 53.636 99.6839 53.6594 99.6839 54.904C99.6839 55.921 99.7972 56.1741 100.252 56.1741C100.564 56.1741 101.072 55.9903 101.381 55.7659ZM109.74 61.4322C107.942 60.5038 107.086 59.0596 107.086 56.9555C107.086 54.8468 107.943 53.4021 109.728 52.5015C112.183 51.2628 115.174 51.6883 116.969 53.5317C118.002 54.5927 118.054 54.7536 118.054 56.8947C118.054 58.6573 117.918 59.3235 117.426 59.9765C116.455 61.2648 115.175 61.8651 113.072 62.0181C111.49 62.1333 110.895 62.028 109.74 61.4322ZM113.375 60.3107C114.07 59.8494 114.443 58.6756 114.443 56.9555C114.443 53.8786 113.121 52.4893 111.617 53.9862C111.104 54.4968 110.989 55.028 110.989 56.8859C110.989 59.8793 111.95 61.2582 113.375 60.3107ZM71.9452 61.5918C71.5018 61.1504 71.769 60.5219 72.521 60.2373C73.2827 59.9491 73.306 59.8517 73.306 56.9555C73.306 54.0368 73.2887 53.964 72.4981 53.665C71.9754 53.4671 71.7272 53.1665 71.7951 52.8132C71.8838 52.3517 72.3249 52.2531 74.6441 52.1768L77.3883 52.0865V52.8801C77.3883 53.3907 77.2136 53.6736 76.8983 53.6736C76.5241 53.6736 76.4313 53.9507 76.5058 54.8457C76.598 55.9542 76.6671 56.0231 77.7808 56.1148C78.947 56.2108 78.9584 56.2007 78.9584 55.0554C78.9584 54.3379 78.7601 53.7546 78.4364 53.5189C78.1271 53.2939 77.9951 52.9294 78.1125 52.6249C78.2751 52.2035 78.7933 52.1109 80.9897 52.1109C83.638 52.1109 83.6688 52.1207 83.6688 52.8922C83.6688 53.4653 83.5012 53.6736 83.0407 53.6736C82.453 53.6736 82.4127 53.8821 82.4127 56.9191C82.4127 59.9016 82.4635 60.1777 83.0407 60.3279C83.4165 60.4256 83.6688 60.7543 83.6688 61.1458C83.6688 61.7588 83.4992 61.8002 80.9897 61.8002C78.7933 61.8002 78.275 61.7076 78.1125 61.2861C77.995 60.9816 78.1273 60.6172 78.4364 60.3922C78.7775 60.1438 78.9584 59.5639 78.9584 58.7182V57.4243H77.7023H76.4462V58.7974C76.4462 59.7296 76.5974 60.2283 76.9173 60.3504C77.1763 60.4493 77.3883 60.816 77.3883 61.1652C77.3883 61.7526 77.1925 61.8002 74.7715 61.8002C73.3322 61.8002 72.0604 61.7065 71.9452 61.5918ZM83.9828 61.1457C83.9828 60.7542 84.2351 60.4257 84.6108 60.3279C85.188 60.1777 85.2389 59.9016 85.2389 56.919C85.2389 53.882 85.1985 53.6736 84.6108 53.6736C84.1503 53.6736 83.9828 53.4652 83.9828 52.8922V52.1109H89.1642H94.3455V53.9862C94.3455 55.7844 94.3128 55.8615 93.5507 55.8615C93.0772 55.8615 92.6769 55.6402 92.5608 55.3145C92.1404 54.1346 91.4372 53.6736 90.0576 53.6736H88.6931V54.9499C88.6931 56.3432 89.2349 56.5136 89.7882 55.2944C89.9587 54.9187 90.3473 54.6113 90.6518 54.6113C91.1278 54.6113 91.2053 54.9178 91.2053 56.7992C91.2053 58.7788 91.1456 58.9871 90.5773 58.9871C90.1704 58.9871 89.9492 58.7787 89.9492 58.3955C89.9492 57.9054 89.3921 57.4243 88.8245 57.4243C88.7521 57.4243 88.6931 58.0573 88.6931 58.8308V60.2373H90.2522C91.9048 60.2373 92.4614 59.7701 92.4614 58.3826C92.4614 57.8735 92.6606 57.7369 93.4034 57.7369H94.3455V59.7685V61.8002H89.1641C84.1149 61.8002 83.9828 61.7829 83.9828 61.1457ZM118.839 61.1457C118.839 60.7542 119.092 60.4257 119.467 60.3279C120.044 60.1779 120.095 59.9016 120.095 56.9555C120.095 54.0094 120.044 53.7331 119.467 53.5831C119.092 53.4854 118.839 53.1567 118.839 52.7652C118.839 52.1561 119.012 52.1109 121.33 52.1109H123.821L125.434 55.0801C126.321 56.7133 127.108 58.0495 127.182 58.0495C127.257 58.0495 127.318 57.0649 127.318 55.8615C127.318 53.882 127.258 53.6736 126.69 53.6736C126.229 53.6736 126.062 53.4652 126.062 52.8922C126.062 52.1389 126.135 52.1109 128.103 52.1109C130.071 52.1109 130.144 52.1387 130.144 52.8922C130.144 53.3784 129.966 53.6736 129.673 53.6736C129.278 53.6736 129.202 54.3352 129.202 57.7525V61.8314L127.407 61.7376L125.611 61.6439L124.159 58.8961C122.168 55.1282 121.98 54.9931 121.98 57.3362C121.98 59.5303 122.179 60.2373 122.798 60.2373C123.055 60.2373 123.236 60.5592 123.236 61.0187C123.236 61.7778 123.173 61.8002 121.037 61.8002C119.016 61.8002 118.839 61.7476 118.839 61.1457ZM130.577 61.3463C130.359 60.7789 130.676 60.2374 131.228 60.2374C131.855 60.2374 132.029 59.4986 132.023 56.8518C132.019 54.305 131.892 53.9077 130.984 53.5737C130.658 53.4536 130.457 53.1279 130.517 52.8151C130.607 52.3481 131.051 52.2539 133.523 52.1773L136.425 52.0875V52.8806C136.425 53.4654 136.26 53.6738 135.797 53.6738C135.208 53.6738 135.168 53.8822 135.168 56.9556C135.168 60.0291 135.208 60.2375 135.797 60.2375C136.257 60.2375 136.425 60.4459 136.425 61.0189C136.425 61.7947 136.405 61.8003 133.589 61.8003C131.399 61.8003 130.713 61.6968 130.577 61.3463ZM158.927 60.6774C157.991 59.3986 155.97 58.1158 154.548 57.8972C150.061 57.2077 147.558 55.1745 146.326 51.22L146.097 50.4854L147.598 51.3609C148.86 52.0971 149.543 52.2575 151.892 52.3693C154.382 52.4877 154.845 52.6083 156.151 53.4786C157.849 54.6106 159.507 57.5387 159.845 60.003C160.071 61.656 159.793 61.8604 158.927 60.6774ZM14.6433 54.8944C14.5303 53.4179 13.847 52.3615 11.9762 50.7706C9.72187 48.8537 9.12214 47.5717 9.32176 45.0966C9.47443 43.2027 10.2365 41.304 11.5635 39.5103L12.2286 38.6115L12.3989 40.9489C12.5429 42.925 12.7127 43.4664 13.4979 44.4519C15.2776 46.6855 15.8686 47.7733 16.2032 49.4319C16.4954 50.8802 16.4461 51.4167 15.8302 53.4815C15.4397 54.7905 15.0296 55.8616 14.9188 55.8616C14.808 55.8616 14.6841 55.4264 14.6433 54.8944ZM155.514 49.6579C154.259 48.3267 152.686 47.7095 150.219 47.5795C147.745 47.449 146.101 46.9989 144.812 46.0988C143.912 45.4699 141.723 42.6928 141.358 41.7173C141.167 41.2056 141.205 41.2025 141.922 41.6704C143.201 42.5045 144.897 42.7355 147.102 42.376C149.88 41.923 151.448 42.371 153.378 44.1675C154.944 45.625 156.645 48.8044 156.464 49.936C156.373 50.5098 156.297 50.4877 155.514 49.6579ZM18.6869 44.4237C18.395 43.1258 17.9618 42.2988 17.068 41.3337C14.9724 39.0708 14.3883 36.5732 15.3365 33.9305C15.8301 32.5552 17.871 29.7177 18.6746 29.2896C19.2002 29.0096 19.2246 29.0705 18.9579 29.9962C18.4962 31.5986 18.6436 33.7306 19.2983 34.9202C21.6646 39.2195 21.9132 41.1149 20.4666 43.8281C19.119 46.3556 19.1211 46.3549 18.6869 44.4237ZM105.868 44.7221C105.758 44.6121 103.685 44.5492 101.263 44.5822C97.0101 44.6402 96.8577 44.62 96.8577 44.0008C96.8577 43.648 97.0612 43.3594 97.3102 43.3594C97.9791 43.3594 98.1883 42.8317 97.8033 42.1156C97.3013 41.182 95.3641 41.2315 94.9981 42.1874C94.7887 42.7347 94.8605 42.9532 95.3222 43.1728C95.6486 43.328 95.9157 43.7148 95.9157 44.0323C95.9157 44.5697 95.5678 44.6097 90.8913 44.6097C86.18 44.6097 85.8669 44.5732 85.8669 44.021C85.8669 43.6952 86.1474 43.3593 86.495 43.2689C87.0732 43.1184 87.123 42.8426 87.123 39.7943C87.123 36.6544 87.0896 36.4832 86.4731 36.4832C85.9788 36.4832 85.8473 36.3149 85.9236 35.7799C86.019 35.1101 86.1583 35.0767 88.8502 35.0767C91.542 35.0767 91.6811 35.1102 91.7767 35.7799C91.853 36.3149 91.7214 36.4832 91.2272 36.4832C90.6115 36.4832 90.5773 36.6549 90.5773 39.7466C90.5773 43.1802 90.7242 43.5474 91.9746 43.235C92.5932 43.0806 92.9229 42.4263 94.0764 39.0642L95.4446 35.0767L97.205 34.9844L98.9654 34.8919L100.345 39.0475C101.3 41.9227 101.87 43.2032 102.196 43.2032C102.498 43.2032 102.702 42.8384 102.766 42.1874C102.847 41.3461 102.995 41.1716 103.629 41.1716C104.05 41.1716 104.394 41.3186 104.394 41.4983C104.394 41.6782 104.741 42.1704 105.165 42.5923C106.093 43.5158 108.062 43.6708 108.38 42.8454C108.642 42.1666 107.856 41.6215 105.726 41.0052C103.571 40.3817 102.51 39.3734 102.51 37.9496C102.51 35.7991 105.159 34.2842 107.862 34.8887C108.584 35.0501 109.654 35.1048 110.239 35.0103L111.303 34.8384V36.5984C111.303 38.3455 111.295 38.3584 110.361 38.3584C109.739 38.3584 109.419 38.2012 109.419 37.8967C109.419 37.1755 108.006 36.4293 106.85 36.5397C106.053 36.6157 105.807 36.7854 105.807 37.2597C105.807 37.7586 106.207 37.9874 107.847 38.428C110.269 39.0786 111.341 39.8017 111.663 41.0037C111.993 42.2287 111.256 43.8308 110.087 44.4325C109.151 44.9144 106.261 45.1128 105.868 44.7221ZM97.1717 39.9678C97.1717 39.8215 97.0069 39.2309 96.8052 38.6554C96.485 37.7411 96.4085 37.6859 96.1993 38.2181C95.7337 39.4024 95.8757 40.2337 96.5437 40.2337C96.8891 40.2337 97.1717 40.114 97.1717 39.9678ZM50.6964 44.0209C50.6964 43.695 50.9768 43.3592 51.3244 43.2687C51.902 43.1185 51.9524 42.8424 51.9524 39.8306C51.9524 36.7733 51.9091 36.5446 51.2971 36.3853C50.8728 36.2748 50.6803 36.014 50.751 35.6456C50.8442 35.1603 51.2344 35.0632 53.3992 34.9865C55.1879 34.9231 56.032 35.0154 56.2558 35.299C56.4305 35.5206 56.8265 36.651 57.1358 37.8114C57.445 38.9717 57.793 39.9211 57.909 39.9211C58.025 39.9211 58.4632 38.8311 58.883 37.4988L59.646 35.0765L62.3937 34.9862L65.1414 34.8959V35.6895C65.1414 36.1865 64.9655 36.4831 64.6704 36.4831C64.2818 36.4831 64.1994 37.054 64.1994 39.7464C64.1994 41.6042 64.3359 43.0938 64.5162 43.2048C65.457 43.7836 66.0463 42.9417 67.4234 39.0512L68.8304 35.0765L70.601 34.9828C71.8425 34.9169 72.4126 35.0104 72.5091 35.2954C72.585 35.5189 73.1596 37.3485 73.7864 39.3611C74.6363 42.0902 75.0794 43.069 75.5291 43.211C75.8608 43.3159 76.1322 43.6734 76.1322 44.0056C76.1322 44.5603 75.8881 44.6097 73.149 44.6097C70.4367 44.6097 70.1658 44.5561 70.1658 44.021C70.1658 43.6952 70.4462 43.3594 70.7938 43.2689C72.1647 42.9121 71.1555 41.3634 69.6669 41.5397C68.5061 41.6771 67.9304 42.6271 68.6742 43.1778C68.9764 43.4015 69.2237 43.8153 69.2237 44.0972C69.2237 44.5494 68.6694 44.6097 64.5134 44.6097C60.0671 44.6097 59.803 44.5759 59.803 44.0056C59.803 43.6734 60.0857 43.3123 60.4311 43.2032C61.001 43.0231 61.0573 42.7394 61.0396 40.1346L61.0198 37.2646L59.8927 40.9371L58.7656 44.6097H57.5671H56.3687L55.5519 41.8748C54.1896 37.3134 54.2022 37.3279 54.1751 40.2909C54.1528 42.7418 54.2113 43.024 54.7784 43.2032C55.1238 43.3122 55.4064 43.6734 55.4064 44.0056C55.4064 44.5489 55.1697 44.6097 53.0513 44.6097C50.9541 44.6097 50.6964 44.5451 50.6964 44.0209ZM70.4798 39.9415C70.4798 39.7809 70.3229 39.2533 70.1312 38.7694C69.8073 37.9519 69.7644 37.9338 69.5252 38.5146C69.0684 39.6241 69.1842 40.2337 69.8518 40.2337C70.1972 40.2337 70.4798 40.1022 70.4798 39.9415ZM77.0743 44.0061C77.0743 43.6184 77.3268 43.367 77.7808 43.3029C78.4542 43.2076 78.4916 43.0525 78.5769 39.9993C78.6631 36.9146 78.6416 36.7956 78.0001 36.7956C77.5481 36.7956 77.2194 37.0972 76.9782 37.7332C76.7232 38.4056 76.4155 38.6709 75.8907 38.6709C75.1981 38.6709 75.1638 38.5744 75.253 36.8737L75.3472 35.0765H80.3715H85.3959L85.4901 36.8737C85.5803 38.5984 85.5533 38.6709 84.8142 38.6709C84.241 38.6709 83.9603 38.4314 83.7158 37.7332C83.4925 37.0953 83.1779 36.7956 82.7321 36.7956C82.1044 36.7956 82.0805 36.931 82.1662 39.9993C82.2514 43.0525 82.2889 43.2077 82.9622 43.3029C83.4163 43.367 83.6688 43.6184 83.6688 44.0061C83.6688 44.5639 83.4198 44.6095 80.3715 44.6095C77.3233 44.6095 77.0743 44.5639 77.0743 44.0061ZM150.51 39.2719C148.846 38.0591 147.205 37.7134 144.132 37.9284C141.592 38.106 141.078 38.05 139.705 37.4455C138.833 37.0616 137.497 36.068 136.66 35.1803C135.094 33.5202 134.746 32.7978 135.776 33.3464C136.671 33.823 139.915 33.7399 141.449 33.2011C143.297 32.5523 144.486 32.6174 146.316 33.4677C148.062 34.2788 149.873 36.1005 150.874 38.055C151.699 39.6637 151.582 40.0536 150.51 39.2719ZM24.5308 36.3605C24.7499 35.0168 24.1836 33.279 22.9411 31.4821C22.109 30.2787 21.9713 29.8039 21.9878 28.1951C22.0052 26.5917 22.172 26.058 23.1263 24.5732C24.1073 23.0469 26.6754 20.5425 27.2597 20.5425C27.3737 20.5425 27.2399 21.07 26.9599 21.7146C26.2463 23.3637 26.3162 25.6966 27.1401 27.7314C27.6929 29.0964 27.8067 29.8748 27.6929 31.5107C27.569 33.2929 27.3723 33.8307 26.2363 35.4958C25.514 36.5545 24.7958 37.4207 24.6404 37.4207C24.485 37.4207 24.4359 36.9436 24.5308 36.3605ZM87.437 34.0476C87.437 33.6883 90.072 31.1695 90.4478 31.1695C90.9802 31.1695 91.4806 31.8439 91.2986 32.316C91.2042 32.561 90.4427 33.1064 89.6065 33.5282C88.0232 34.3267 87.437 34.4671 87.437 34.0476ZM143.49 29.5704C141.953 28.8697 139.29 28.8165 136.891 29.4387C133.952 30.2006 130.604 29.1207 128.283 26.6623L127.558 25.8937L129.262 26.0688C130.714 26.2181 131.296 26.0997 133.198 25.2687C137.03 23.5948 140.176 24.2111 142.905 27.1703C144.155 28.5252 145.068 29.8803 144.85 30.058C144.793 30.1049 144.181 29.8852 143.49 29.5704ZM31.5759 28.3565C31.8787 27.0153 31.6808 25.9087 30.6254 23.043C29.8853 21.0334 30.004 19.7474 31.1068 17.8271C31.8953 16.4542 33.8283 14.7208 35.5292 13.8615C36.0819 13.5822 36.5877 13.3537 36.6531 13.3537C36.7185 13.3537 36.3754 14.1624 35.8907 15.1509C34.9652 17.0381 34.7559 18.8884 35.3443 19.9825C35.8777 20.9746 35.7543 24.3847 35.1423 25.5626C34.5828 26.6394 31.9334 29.6067 31.5313 29.6067C31.4007 29.6067 31.4208 29.0441 31.5759 28.3565ZM53.7245 28.1221C54.0743 27.411 54.0743 21.4881 53.7245 20.777C53.4776 20.2754 53.7071 20.23 56.4722 20.23H59.489V21.1677C59.489 22.1736 58.6813 22.5051 58.3465 21.6365C58.2349 21.3473 57.7577 21.1677 57.1002 21.1677C56.0468 21.1677 56.0347 21.1825 56.0347 22.5742C56.0347 24.0883 56.2065 24.2339 57.1523 23.5218C58.2109 22.7249 58.6144 22.9231 58.4473 24.1575C58.2569 25.5628 57.9766 25.8472 57.4661 25.1523C57.2452 24.8518 56.8329 24.6058 56.5497 24.6058C56.1411 24.6058 56.0347 24.9286 56.0347 26.1686C56.0347 27.694 56.0571 27.7314 56.9696 27.7314C57.6202 27.7314 58.0608 27.4939 58.4188 26.95C59.1531 25.8345 59.489 25.9816 59.489 27.4188V28.6691H56.4722C53.7059 28.6691 53.4777 28.6237 53.7245 28.1221ZM60.8236 28.4621C60.343 28.2689 60.3051 27.2207 60.7683 26.9357C60.9537 26.8215 61.4265 27.0282 61.8186 27.3949C62.5625 28.0905 63.5713 28.007 63.5713 27.2499C63.5713 27.0217 62.9707 26.4348 62.2367 25.9454C59.7122 24.2622 60.596 22.2759 63.7797 22.4779C65.0803 22.5606 65.3128 22.6753 65.3988 23.2776C65.5205 24.1305 64.6247 24.2519 64.0439 23.4611C63.6003 22.8574 62.6292 23.0957 62.6292 23.8083C62.6292 24.0681 63.177 24.5588 63.8466 24.8987C66.4999 26.246 65.7553 28.6949 62.7078 28.6444C61.8874 28.6321 61.0395 28.5489 60.8236 28.4621ZM67.1683 27.9019C65.9986 26.7376 66.0765 24.5647 67.3329 23.3142C68.1503 22.5006 68.4573 22.3952 69.7666 22.4787C71.1397 22.5663 71.2731 22.6459 71.3642 23.4337C71.4432 24.1177 71.3354 24.2933 70.8358 24.2933C70.4839 24.2933 70.1205 24.0186 70.0087 23.6681C69.8989 23.3243 69.7129 23.0452 69.595 23.0478C68.397 23.0745 67.846 25.8765 68.8066 27.0572C69.3351 27.7069 69.4854 27.7418 70.2534 27.3934C71.3913 26.8774 71.7709 27.3177 70.8375 28.0709C69.7806 28.9237 68.118 28.8472 67.1683 27.9019ZM72.6307 25.8562C72.7051 23.9532 72.6283 23.0431 72.3953 23.0431C72.2054 23.0431 72.05 22.9025 72.05 22.7305C72.05 22.2719 74.4829 22.3449 74.6538 22.8087C74.7688 23.1213 74.8808 23.1213 75.2138 22.8087C75.4425 22.5938 76.0255 22.418 76.5091 22.418C77.2767 22.418 77.3884 22.5372 77.3884 23.3557C77.3884 24.085 77.2488 24.2933 76.7603 24.2933C76.4149 24.2933 76.1323 24.1527 76.1323 23.9808C76.1323 23.471 74.9598 23.6255 74.7528 24.1626C74.4445 24.9621 74.5344 27.6776 74.8762 27.8877C75.5746 28.3174 75.1151 28.6692 73.8556 28.6693L72.521 28.6695L72.6307 25.8562ZM78.1734 25.5435V22.4179H79.351H80.5285V25.0491C80.5285 26.4963 80.6143 27.9028 80.7191 28.1747C80.875 28.5789 80.6602 28.6691 79.5415 28.6691H78.1733L78.1734 25.5435ZM82.9061 28.1779C82.5525 27.826 82.4127 27.0732 82.4127 25.5212C82.4127 23.7602 82.3205 23.3556 81.9188 23.3556C81.5095 23.3556 81.5363 23.2148 82.076 22.5321C82.4339 22.0791 82.7268 21.5165 82.7268 21.2818C82.7268 21.0351 83.0579 20.8552 83.5119 20.8552C84.1399 20.8552 84.2969 21.0115 84.2969 21.6365C84.2969 22.2617 84.4541 22.4179 85.082 22.4179C85.5705 22.4179 85.8671 22.5951 85.8671 22.8868C85.8671 23.1785 85.5705 23.3556 85.082 23.3556C84.3251 23.3556 84.2969 23.4284 84.2969 25.3872V27.4188H85.239C86.311 27.4188 86.4727 27.8667 85.5737 28.3456C84.6874 28.8176 83.4721 28.7412 82.9061 28.1779ZM87.2658 27.9019C86.6493 27.2883 86.495 26.8162 86.495 25.5435C86.495 23.3844 87.4174 22.4179 89.4782 22.4179C91.3996 22.4179 92.4614 23.4088 92.4614 25.202C92.4614 27.5896 91.4257 28.6691 89.1351 28.6691C88.3874 28.6691 87.7903 28.4241 87.2658 27.9019ZM90.0838 27.5528C90.8065 26.8336 90.728 24.5397 89.9495 23.6247C89.3333 22.9006 89.3128 22.8981 88.8504 23.4934C88.2166 24.3093 88.2309 26.914 88.8727 27.5528C89.1441 27.8229 89.4166 28.0439 89.4783 28.0439C89.54 28.0439 89.8124 27.823 90.0838 27.5528ZM93.4035 28.375C93.4035 28.2132 93.5448 27.994 93.7175 27.8877C93.8903 27.7816 94.0315 26.7266 94.0315 25.5435C94.0315 24.3605 93.8903 23.3056 93.7175 23.1994C93.033 22.7782 93.4674 22.4179 94.6596 22.4179C95.3504 22.4179 95.9157 22.5635 95.9157 22.7415C95.9157 22.9645 96.1043 22.9645 96.523 22.7415C96.8571 22.5636 97.4224 22.4179 97.7791 22.4179C98.2906 22.4179 98.4279 22.6163 98.4279 23.3556C98.4279 24.0713 98.2853 24.2933 97.826 24.2933C97.4949 24.2933 97.1685 24.1273 97.1006 23.9245C97.0317 23.7185 96.7427 23.6453 96.4464 23.7585C96.0231 23.9201 95.9157 24.3743 95.9157 26.0026C95.9157 27.1552 96.0525 28.0441 96.2297 28.0441C96.4024 28.0441 96.5437 28.1847 96.5437 28.3566C96.5437 28.5285 95.8372 28.6692 94.9736 28.6692C94.11 28.6692 93.4035 28.5366 93.4035 28.375ZM99.6367 25.8562C99.711 23.9532 99.6343 23.0431 99.4012 23.0431C99.2114 23.0431 99.0559 22.9025 99.0559 22.7305C99.0559 22.5585 99.6108 22.4179 100.289 22.4179H101.522L101.636 24.9965C101.698 26.4148 101.865 27.8213 102.006 28.1221C102.23 28.5985 102.087 28.6691 100.895 28.6692L99.5271 28.6694L99.6367 25.8562ZM104.466 28.4767C103.861 28.2089 103.138 26.6287 103.138 25.5737C103.138 23.5063 104.285 22.4179 106.464 22.4179C108.139 22.4179 109.105 23.5429 109.105 25.4947C109.105 27.6343 108.425 28.4051 106.415 28.5452C105.563 28.6047 104.686 28.5739 104.466 28.4767ZM106.895 27.4394C107.348 26.597 107.302 24.211 106.82 23.5546C105.872 22.264 104.656 24.3603 105.17 26.3993C105.579 28.0191 106.338 28.4767 106.895 27.4394ZM39.5897 22.1834C39.8869 21.5706 39.8616 18.114 39.5418 15.6238C39.3701 14.2872 39.459 13.7252 40.026 12.5592C40.9249 10.7109 43.9997 8.36908 46.5609 7.58191C47.2438 7.37197 47.2176 7.4657 46.1684 8.98389C44.9457 10.7531 44.9524 10.7232 44.9036 14.6039C44.8602 18.0435 43.9489 19.8002 41.1501 21.8385C39.7437 22.8628 39.2021 22.9825 39.5897 22.1834ZM121.646 21.4898C120.685 20.996 119.696 20.3465 119.448 20.0465C119.033 19.5458 119.066 19.5185 119.851 19.7129C121.194 20.0458 123.036 19.4763 125.139 18.079C126.87 16.9285 127.276 16.7918 128.958 16.7918C130.457 16.7918 131.21 16.9872 132.644 17.7481C134.737 18.8585 137.757 21.7238 136.425 21.3349C135.993 21.2088 134.759 21.0331 133.684 20.9444C132.062 20.8107 131.378 20.9222 129.677 21.6005C126.776 22.7565 124.036 22.7188 121.646 21.4898ZM78.6444 20.6987C78.6444 20.0737 78.8013 19.9174 79.4295 19.9174C80.0575 19.9174 80.2145 20.0738 80.2145 20.6987C80.2145 21.3239 80.0576 21.4802 79.4295 21.4802C78.8014 21.4802 78.6444 21.324 78.6444 20.6987ZM99.998 20.6987C99.998 20.0737 100.155 19.9174 100.783 19.9174C101.411 19.9174 101.568 20.0738 101.568 20.6987C101.568 21.3239 101.411 21.4802 100.783 21.4802C100.155 21.4802 99.998 21.324 99.998 20.6987ZM48.8899 16.2622C49.4749 15.2753 49.576 14.6246 49.5858 11.7842C49.5958 8.64024 49.6446 8.39939 50.4703 7.32143C52.025 5.29212 55.5998 3.3518 57.7838 3.3518C58.5546 3.3518 58.5492 3.36906 57.4802 4.30321C56.0133 5.58514 55.0943 7.5671 55.0858 9.46721C55.0734 12.389 53.3065 15.01 50.3494 16.4958C49.3411 17.0024 48.4462 17.4169 48.3608 17.4169C48.2753 17.4169 48.5135 16.8973 48.8899 16.2622ZM111.46 15.8655C109.861 15.1056 109.708 14.966 110.449 14.9433C111.82 14.9013 113.475 14.0827 114.981 12.7009C115.742 12.0023 116.847 11.2304 117.435 10.9856C119.828 9.9903 123.751 10.7829 126.14 12.745C126.788 13.2767 127.317 13.807 127.317 13.9234C127.316 14.0398 126.15 14.136 124.726 14.137C122.349 14.1382 122.021 14.2182 120.723 15.1033C117.787 17.1069 114.62 17.3675 111.46 15.8655ZM58.9205 11.9114C59.7886 10.7082 59.9727 10.129 60.154 8.02876C60.298 6.36068 60.5807 5.21637 61.0258 4.49951C62.3159 2.42173 65.6572 0.837408 68.6852 0.867726C70.3185 0.884995 70.3207 0.88499 69.5378 1.4027C67.722 2.60213 66.4605 4.23901 66.1145 5.84443C65.5196 8.60544 63.9636 10.939 62.0697 11.9103C61.6002 12.1511 60.4701 12.568 59.5582 12.8368L57.9002 13.3255L58.9205 11.9114ZM101.254 12.1285C99.518 11.5637 99.5379 11.4223 101.411 11.0111C102.015 10.8784 103.142 9.98392 104.551 8.51739C106.279 6.71943 107.051 6.14924 108.162 5.8503C110.065 5.33846 112.819 5.6606 114.894 6.63762C117.439 7.83602 117.558 8.19012 115.431 8.22868C113.394 8.26543 112.076 8.84367 110.108 10.5629C107.675 12.6882 104.63 13.2265 101.254 12.1285ZM69.3035 9.50264C70.3312 8.47973 71.0894 6.81923 71.113 5.53964C71.1328 4.44453 72.3984 2.39315 73.5782 1.54246C74.5822 0.818595 75.4191 0.553635 77.6673 0.247836C81.4501 -0.266712 82.0109 0.0519611 79.8532 1.48988C78.2983 2.52603 77.5471 3.55946 76.7421 5.76974C76.2934 7.00172 74.0398 9.23363 72.6627 9.80995C72.1079 10.0421 70.8678 10.3241 69.907 10.4365L68.16 10.6408L69.3035 9.50264ZM89.8184 10.0025C89.3427 9.88164 89.5073 9.70605 90.6035 9.16506C91.6089 8.66887 92.3516 7.93749 93.3036 6.50599C94.0258 5.41998 94.9268 4.20283 95.3059 3.80121C96.1869 2.86783 98.4435 2.10148 100.311 2.10148C101.959 2.10148 104.97 2.89233 105.593 3.48878C105.93 3.81121 105.721 3.9185 104.469 4.06603C102.496 4.29865 101.041 5.16628 99.4243 7.07419C97.5634 9.27088 95.4574 10.2379 92.6353 10.1917C91.417 10.172 90.1494 10.0866 89.8184 10.0025ZM78.9585 9.31145C78.9585 9.1511 79.2324 8.93343 79.5672 8.82767C80.4169 8.55923 82.0484 6.63651 82.2957 5.6121C82.7008 3.93418 83.6419 2.5177 84.9523 1.61353C86.117 0.809933 86.6132 0.681166 88.9194 0.584093C91.7813 0.463708 94.5856 0.759748 94.1479 1.136C93.9975 1.26527 93.2716 1.54177 92.5347 1.7504C90.9123 2.20978 89.1818 3.66112 88.3715 5.24211C87.5773 6.79156 85.6478 8.39583 83.7748 9.06407C82.1659 9.63807 78.9585 9.80284 78.9585 9.31145Z" fill="#0E4056"/>
</svg>
