<svg width="181" height="79" viewBox="0 0 181 79" fill="none" xmlns="http://www.w3.org/2000/svg">
<path d="M171.275 45.3272C171.181 45.2346 170.363 45.0727 169.457 44.9673C166.691 44.6453 162.213 42.8971 157.223 40.1914C149.807 36.17 148.963 35.8751 147.476 36.7843C146.815 37.1887 146.615 37.1017 145.725 36.0204C144.998 35.1366 144.272 34.7124 143.092 34.4823C142.196 34.3077 140.393 33.9256 139.084 33.6334C137.776 33.3411 134.318 32.594 131.4 31.973C125.573 30.7332 122.725 29.7588 120.816 28.3518C119.389 27.3005 116.19 26.9869 115.852 27.8653C115.541 28.6728 115.637 29.0235 116.169 29.0235C116.446 29.0235 116.886 29.2806 117.148 29.5949C117.542 30.0691 117.484 30.6126 116.804 32.7905C115.474 37.0489 115.282 37.4236 114.431 37.4211C113.801 37.4197 108.158 35.9115 105.784 35.1108C105.482 35.0091 103.794 34.4823 102.033 33.9403C100.272 33.3983 98.8312 32.7814 98.8312 32.5693C98.8312 32.3572 99.3664 30.4808 100.02 28.3995C101.018 25.2245 101.316 24.642 101.87 24.7816C102.668 24.9828 103.091 24.1071 104.672 18.9802C105.662 15.7688 105.731 15.2792 105.242 14.9226C104.936 14.6994 104.686 14.309 104.686 14.0548C104.686 13.6521 106.855 6.72937 107.065 6.46268C107.177 6.31942 110.625 7.26424 113.835 8.31799C115.344 8.81352 117.156 9.33879 117.86 9.48522C118.564 9.63165 119.305 9.87544 119.507 10.0269C119.708 10.1785 120.474 10.4103 121.208 10.5422C123.392 10.9346 123.528 11.3952 122.454 14.7864C121.187 18.7901 120.99 19.0969 119.601 19.2309C117.882 19.3967 117.817 20.4432 119.483 21.1379C120.2 21.4371 120.787 21.8136 120.787 21.9745C120.787 22.1353 121.981 22.2774 123.44 22.29C125.249 22.3045 126.85 22.5846 128.472 23.1661C130.627 23.9389 139.673 27.4906 141.463 28.2665C141.865 28.4409 142.771 28.8344 143.476 29.1406C145.639 30.0811 146.723 30.2268 147.91 29.7361C148.976 29.2955 149.084 29.331 149.92 30.3972C150.826 31.5532 151.464 31.7866 154.637 32.1233C166.629 33.3961 171.63 34.5421 174.854 36.7556C179.113 39.6793 178.036 44.4117 172.922 45.2527C172.11 45.3861 171.37 45.4197 171.275 45.3272ZM36.8743 54.5757C36.7449 54.4465 34.2089 54.3235 31.2386 54.3018C26.324 54.2661 25.8264 54.2027 25.7089 53.5976C25.6251 53.1663 25.8481 52.8626 26.3434 52.7333C27.1529 52.522 27.2418 52.2986 26.885 51.3707C26.5788 50.5743 23.9761 50.5743 23.6699 51.3707C23.3185 52.2846 23.4062 52.6191 23.9966 52.6191C24.3397 52.6191 24.5455 52.9651 24.5455 53.5419V54.4647L19.1526 54.3635C14.2726 54.2722 13.7473 54.1993 13.6316 53.5975C13.5487 53.1667 13.7728 52.8623 14.2674 52.7332C14.9738 52.5487 15.0293 52.2834 15.0068 49.1982L14.9837 45.8626L13.6598 50.1538L12.3358 54.4451H10.955H9.57425L8.85167 51.9799C8.45425 50.6241 7.88236 48.693 7.58086 47.6887L7.03268 45.8626L7.00668 49.1982C6.98358 52.238 7.04595 52.5508 7.71305 52.7249C8.15093 52.839 8.44493 53.223 8.44493 53.6805C8.44493 54.3837 8.23929 54.4451 5.88336 54.4451C3.39498 54.4451 3.32178 54.4191 3.32178 53.5321C3.32178 52.9951 3.53177 52.619 3.83157 52.619C4.5776 52.619 4.78555 51.7831 4.78555 48.7843C4.78555 45.7855 4.57759 44.9496 3.83153 44.9496C3.53176 44.9496 3.32178 44.5735 3.32178 44.0365C3.32178 43.1346 3.35935 43.1235 6.41677 43.1235H9.51176L10.2591 45.6281C10.6702 47.0056 11.0065 48.3203 11.0065 48.5497C11.0065 48.7792 11.1472 48.9669 11.3192 48.9669C11.491 48.9669 12.0263 47.6478 12.5085 46.0355L13.3851 43.104L16.6743 43.2053C19.519 43.2926 19.9809 43.3961 20.0912 43.9712C20.1738 44.4018 19.9494 44.7065 19.4549 44.8356C18.7425 45.0215 18.6912 45.2894 18.6912 48.8271V52.6192H19.7891C20.3929 52.6192 20.887 52.578 20.8872 52.5278C20.8874 52.4777 21.6085 50.3822 22.4896 47.8713L24.0917 43.3062H26.2149H28.3381L29.7962 47.9626C31.1175 52.1824 31.3344 52.6191 32.1086 52.6191C32.8409 52.6191 32.9628 52.4366 32.9628 51.3408C32.9628 50.3015 33.1012 50.0626 33.7026 50.0626C34.1422 50.0626 34.6164 50.4441 34.8716 51.003C35.642 52.6904 38.2606 53.5467 39.199 52.4182C39.8762 51.6039 39.1586 51.0501 36.1646 50.0761C33.4552 49.1947 32.5969 48.3491 32.5969 46.5611C32.5969 44.1194 35.0441 42.4758 38.0006 42.9319C38.9533 43.0789 40.4326 43.1807 41.288 43.1579L42.8432 43.1167V45.1288C42.8432 47.121 42.8317 47.1409 41.7454 47.1409C41.0697 47.1409 40.6476 46.9522 40.6476 46.6497C40.6476 45.4619 38.1376 44.3357 36.929 44.9813C35.6018 45.6902 36.2009 46.3632 38.8636 47.1546C42.082 48.1111 43.2091 49.1324 43.2091 51.0919C43.2091 53.4291 41.3117 54.8104 38.1012 54.8104C37.5562 54.8104 37.0036 54.7048 36.8743 54.5757ZM25.8363 47.9633C25.6973 47.4113 25.5149 46.891 25.4306 46.8068C25.1874 46.5641 24.9898 46.8849 24.7186 47.9633C24.5002 48.8319 24.5753 48.9669 25.2774 48.9669C25.9795 48.9669 26.0547 48.832 25.8363 47.9633ZM47.4167 54.2948C45.2397 53.3292 44.5131 52.1124 44.3846 49.2178C44.289 47.0599 44.4048 46.3775 45.0288 45.3813C46.105 43.6668 48.6476 42.5967 50.8565 42.9285C51.7824 43.0674 53.1574 43.1643 53.9121 43.1435L55.2844 43.1058V45.5128C55.2844 47.9111 55.2815 47.9193 54.2992 47.8041C53.5365 47.7148 53.2454 47.4224 53.0102 46.51C52.4264 44.2462 49.8419 43.9734 49.1 46.0974C48.324 48.319 48.7726 51.9757 49.9097 52.6972C51.1451 53.4812 53.4547 52.1657 53.4547 50.6781C53.4547 50.2367 53.7673 50.0625 54.5595 50.0625C55.5808 50.0625 55.6455 50.1383 55.4164 51.0668C55.0345 52.6145 54.2598 53.5967 52.9206 54.2309C51.4437 54.9304 48.9157 54.9598 47.4167 54.2948ZM92.3731 54.4476C91.3121 54.0203 91.0965 53.5943 90.8275 51.3952C90.6181 49.6821 90.508 49.5045 89.5912 49.3992C88.6234 49.2882 88.5849 49.3473 88.5849 50.9513C88.5849 52.3756 88.6917 52.619 89.3167 52.619C89.8534 52.619 90.0486 52.8626 90.0486 53.5321C90.0486 54.4419 90.037 54.4451 86.5722 54.4451C83.2879 54.4451 83.0957 54.403 83.0957 53.6805C83.0957 53.223 83.3897 52.8392 83.8276 52.7249C84.4995 52.5496 84.5595 52.2267 84.5595 48.7843C84.5595 45.342 84.4997 45.0191 83.8276 44.8438C83.3897 44.7296 83.0957 44.3456 83.0957 43.8881C83.0957 43.1528 83.2713 43.1235 87.6818 43.1235C93.1527 43.1235 94.6014 43.5544 94.9846 45.2958C95.2538 46.5187 94.4534 48.2316 93.608 48.2421C93.3218 48.245 93.3579 48.3727 93.708 48.5923C94.0099 48.782 94.4459 49.8065 94.6769 50.8693C95.0218 52.4557 95.1441 52.6546 95.36 51.98C95.7472 50.7704 96.6355 50.9426 96.6355 52.2273C96.6355 54.1273 94.4304 55.276 92.3731 54.4476ZM90.5623 47.3943C90.9641 47.1011 91.1673 46.5734 91.0897 46.0248C90.9895 45.3171 90.7171 45.1085 89.7742 45.0178C88.6087 44.9056 88.5849 44.933 88.5849 46.3873C88.5849 47.5755 88.7169 47.8713 89.2468 47.8713C89.6109 47.8713 90.2029 47.6566 90.5623 47.3943ZM100.303 54.0152C98.2083 52.9305 97.2105 51.2429 97.2105 48.7843C97.2105 46.3204 98.2091 44.6323 100.289 43.58C103.15 42.1327 106.636 42.6298 108.728 44.7837C109.932 46.0235 109.992 46.2115 109.992 48.7133C109.992 50.7728 109.834 51.5513 109.26 52.3143C108.129 53.8196 106.637 54.521 104.187 54.6998C102.343 54.8344 101.649 54.7113 100.303 54.0152ZM104.54 52.7048C105.349 52.1657 105.784 50.7943 105.784 48.7843C105.784 45.1892 104.243 43.5658 102.491 45.3148C101.893 45.9114 101.759 46.5322 101.759 48.7031C101.759 52.2007 102.878 53.8119 104.54 52.7048ZM56.2602 54.2016C55.7435 53.6859 56.0548 52.9516 56.9311 52.619C57.8188 52.2822 57.846 52.1684 57.846 48.7843C57.846 45.374 57.8257 45.2888 56.9045 44.9395C56.2954 44.7083 56.0062 44.357 56.0852 43.9442C56.1886 43.4049 56.7026 43.2898 59.4053 43.2006L62.6032 43.0951V44.0223C62.6032 44.619 62.3995 44.9496 62.0322 44.9496C61.5961 44.9496 61.488 45.2733 61.5747 46.3192C61.6822 47.6144 61.7627 47.6949 63.0606 47.8021C64.4195 47.9142 64.4329 47.9024 64.4329 46.5641C64.4329 45.7257 64.2018 45.0442 63.8245 44.7688C63.4641 44.5059 63.3103 44.08 63.4471 43.7242C63.6365 43.2318 64.2405 43.1235 66.8 43.1235C69.8861 43.1235 69.922 43.135 69.922 44.0365C69.922 44.7061 69.7267 44.9496 69.1901 44.9496C68.5052 44.9496 68.4582 45.1932 68.4582 48.7418C68.4582 52.2268 68.5174 52.5494 69.1901 52.7249C69.628 52.839 69.922 53.2231 69.922 53.6805C69.922 54.3968 69.7244 54.4451 66.8 54.4451C64.2405 54.4451 63.6364 54.337 63.4471 53.8445C63.3102 53.4887 63.4644 53.0629 63.8245 52.7999C64.2221 52.5098 64.4329 51.8321 64.4329 50.844V49.3322H62.9691H61.5054V50.9365C61.5054 52.0258 61.6815 52.6084 62.0543 52.7512C62.3561 52.8667 62.6032 53.2952 62.6032 53.7033C62.6032 54.3896 62.375 54.4451 59.5537 54.4451C57.8764 54.4451 56.3944 54.3357 56.2602 54.2016ZM70.2879 53.6805C70.2879 53.223 70.5819 52.8392 71.0198 52.7249C71.6923 52.5494 71.7516 52.2267 71.7516 48.7417C71.7516 45.1931 71.7046 44.9496 71.0198 44.9496C70.483 44.9496 70.2879 44.706 70.2879 44.0365V43.1235H76.3259H82.3639V45.3148C82.3639 47.4159 82.3257 47.5061 81.4376 47.5061C80.8858 47.5061 80.4193 47.2475 80.2841 46.8669C79.7941 45.4882 78.9747 44.9496 77.367 44.9496H75.777V46.4409C75.777 48.0689 76.4083 48.268 77.053 46.8434C77.2518 46.4044 77.7046 46.0452 78.0594 46.0452C78.6141 46.0452 78.7045 46.4033 78.7045 48.6017C78.7045 50.9148 78.6349 51.1582 77.9726 51.1582C77.4985 51.1582 77.2407 50.9146 77.2407 50.4669C77.2407 49.8942 76.5915 49.3322 75.93 49.3322C75.8457 49.3322 75.7769 50.0717 75.7769 50.9756V52.619H77.5937C79.5196 52.619 80.1682 52.0731 80.1682 50.4518C80.1682 49.857 80.4004 49.6973 81.266 49.6973H82.3639V52.0712V54.4451H76.3258C70.4418 54.4451 70.2879 54.4249 70.2879 53.6805ZM110.907 53.6805C110.907 53.223 111.201 52.8392 111.639 52.7249C112.311 52.5496 112.371 52.2267 112.371 48.7843C112.371 45.342 112.311 45.0191 111.639 44.8438C111.201 44.7296 110.907 44.3456 110.907 43.8881C110.907 43.1764 111.108 43.1235 113.81 43.1235H116.712L118.592 46.593C119.626 48.5013 120.542 50.0626 120.629 50.0626C120.716 50.0626 120.787 48.9122 120.787 47.5061C120.787 45.1931 120.718 44.9496 120.056 44.9496C119.519 44.9496 119.324 44.706 119.324 44.0365C119.324 43.1563 119.409 43.1235 121.702 43.1235C123.995 43.1235 124.081 43.1561 124.081 44.0365C124.081 44.6046 123.873 44.9496 123.532 44.9496C123.072 44.9496 122.983 45.7226 122.983 49.7156V54.4816L120.891 54.372L118.799 54.2625L117.107 51.0519C114.786 46.6492 114.566 46.4913 114.566 49.2292C114.566 51.7929 114.799 52.619 115.52 52.619C115.82 52.619 116.03 52.9951 116.03 53.5321C116.03 54.419 115.957 54.4451 113.469 54.4451C111.113 54.4451 110.907 54.3837 110.907 53.6805ZM124.586 53.9149C124.331 53.2519 124.701 52.6191 125.344 52.6191C126.075 52.6191 126.277 51.7558 126.271 48.6632C126.265 45.6873 126.118 45.2231 125.06 44.8328C124.679 44.6924 124.445 44.3119 124.515 43.9464C124.62 43.4007 125.137 43.2907 128.019 43.2012L131.4 43.0963V44.023C131.4 44.7063 131.207 44.9497 130.668 44.9497C129.982 44.9497 129.936 45.1933 129.936 48.7845C129.936 52.3757 129.982 52.6192 130.668 52.6192C131.204 52.6192 131.4 52.8628 131.4 53.5322C131.4 54.4387 131.377 54.4453 128.095 54.4453C125.543 54.4453 124.743 54.3244 124.586 53.9149ZM77.9105 36.6932C77.7817 36.5646 75.3666 36.4911 72.5435 36.5298C67.5881 36.5975 67.4104 36.5739 67.4104 35.8503C67.4104 35.4381 67.6476 35.1009 67.9378 35.1009C68.7172 35.1009 68.961 34.4843 68.5123 33.6476C67.9273 32.5567 65.6699 32.6145 65.2434 33.7314C64.9993 34.3709 65.0831 34.6263 65.6211 34.8829C66.0014 35.0642 66.3126 35.5162 66.3126 35.8872C66.3126 36.5151 65.9072 36.5618 60.4576 36.5618C54.9674 36.5618 54.6025 36.5192 54.6025 35.874C54.6025 35.4933 54.9294 35.1008 55.3344 34.9951C56.0082 34.8193 56.0663 34.4971 56.0663 30.9353C56.0663 27.2665 56.0273 27.0664 55.309 27.0664C54.7329 27.0664 54.5797 26.8698 54.6686 26.2447C54.7798 25.462 54.9421 25.423 58.079 25.423C61.2158 25.423 61.378 25.4621 61.4894 26.2447C61.5783 26.8697 61.425 27.0664 60.849 27.0664C60.1315 27.0664 60.0916 27.267 60.0916 30.8796C60.0916 34.8916 60.2629 35.3206 61.72 34.9556C62.4409 34.7751 62.8251 34.0107 64.1693 30.0822L65.7637 25.423L67.8151 25.3152L69.8666 25.207L71.4745 30.0628C72.5871 33.4223 73.2517 34.9184 73.6314 34.9184C73.9832 34.9184 74.2215 34.4922 74.295 33.7314C74.39 32.7484 74.5627 32.5446 75.3013 32.5446C75.7917 32.5446 76.193 32.7163 76.193 32.9264C76.193 33.1365 76.5971 33.7115 77.0912 34.2046C78.1724 35.2837 80.4673 35.4648 80.8381 34.5004C81.1431 33.7071 80.2269 33.0703 77.7447 32.3501C75.234 31.6217 73.9974 30.4435 73.9974 28.7798C73.9974 26.2671 77.0843 24.4969 80.2345 25.2034C81.0758 25.3919 82.3221 25.4559 83.0039 25.3455L84.2436 25.1445V27.201C84.2436 29.2425 84.2349 29.2575 83.1458 29.2575C82.4215 29.2575 82.048 29.0738 82.048 28.7181C82.048 27.8753 80.4021 27.0034 79.0549 27.1325C78.1259 27.2212 77.8397 27.4195 77.8397 27.9737C77.8397 28.5567 78.3051 28.824 80.2166 29.3388C83.0389 30.099 84.2876 30.944 84.6639 32.3484C85.0475 33.7798 84.1891 35.6517 82.8269 36.3547C81.7358 36.9178 78.3679 37.1497 77.9105 36.6932ZM67.7764 31.138C67.7764 30.9671 67.5843 30.2771 67.3493 29.6045C66.9761 28.5363 66.8869 28.4717 66.6431 29.0935C66.1006 30.4774 66.2661 31.4487 67.0445 31.4487C67.4471 31.4487 67.7764 31.3089 67.7764 31.138ZM13.6174 35.8738C13.6174 35.4931 13.9442 35.1007 14.3493 34.995C15.0224 34.8194 15.0812 34.4969 15.0812 30.9777C15.0812 27.4054 15.0306 27.1381 14.3175 26.9521C13.8231 26.8229 13.5987 26.5182 13.6811 26.0877C13.7897 25.5207 14.2444 25.4072 16.7671 25.3176C18.8515 25.2435 19.8351 25.3513 20.0959 25.6828C20.2995 25.9416 20.761 27.2625 21.1214 28.6183C21.4818 29.9742 21.8873 31.0835 22.0225 31.0835C22.1577 31.0835 22.6684 29.8098 23.1575 28.2532L24.0467 25.4227L27.2486 25.3173L30.4506 25.2117V26.139C30.4506 26.7198 30.2456 27.0663 29.9017 27.0663C29.4488 27.0663 29.3528 27.7334 29.3528 30.8794C29.3528 33.0501 29.5119 34.7906 29.722 34.9203C30.8184 35.5965 31.5051 34.6129 33.1099 30.067L34.7494 25.4228L36.8128 25.3133C38.2595 25.2363 38.9239 25.3456 39.0364 25.6785C39.1248 25.9397 39.7944 28.0774 40.5248 30.4292C41.5153 33.618 42.0315 34.7615 42.5557 34.9275C42.9422 35.05 43.2585 35.4678 43.2585 35.856C43.2585 36.5041 42.974 36.5618 39.782 36.5618C36.6213 36.5618 36.3056 36.4992 36.3056 35.874C36.3056 35.4933 36.6324 35.1009 37.0375 34.9951C38.635 34.5782 37.459 32.7687 35.7243 32.9746C34.3716 33.1352 33.7006 34.2453 34.5674 34.8887C34.9196 35.1501 35.2078 35.6336 35.2078 35.9629C35.2078 36.4913 34.5619 36.5618 29.7187 36.5618C24.5374 36.5618 24.2296 36.5223 24.2296 35.856C24.2296 35.4678 24.559 35.0458 24.9615 34.9183C25.6257 34.7079 25.6913 34.3765 25.6706 31.333L25.6475 27.9794L24.3341 32.2706L23.0207 36.5618H21.6241H20.2275L19.2757 33.3662C17.6882 28.0364 17.7028 28.0534 17.6713 31.5156C17.6453 34.3794 17.7135 34.709 18.3743 34.9183C18.7768 35.0457 19.1062 35.4678 19.1062 35.856C19.1062 36.4908 18.8304 36.5618 16.3617 36.5618C13.9177 36.5618 13.6174 36.4864 13.6174 35.8738ZM36.6716 31.1073C36.6716 30.9197 36.4888 30.3032 36.2653 29.7378C35.8879 28.7825 35.8378 28.7614 35.5592 29.4401C35.0268 30.7365 35.1618 31.4487 35.9397 31.4487C36.3422 31.4487 36.6716 31.2951 36.6716 31.1073ZM44.3563 35.8566C44.3563 35.4035 44.6505 35.1098 45.1796 35.0348C45.9643 34.9236 46.0079 34.7424 46.1073 31.1748C46.2078 27.5705 46.1827 27.4314 45.4351 27.4314C44.9084 27.4314 44.5253 27.7838 44.2443 28.527C43.9471 29.3127 43.5886 29.6227 42.977 29.6227C42.17 29.6227 42.13 29.51 42.2339 27.5227L42.3436 25.4227H48.1986H54.0537L54.1634 27.5227C54.2685 29.538 54.237 29.6227 53.3758 29.6227C52.7078 29.6227 52.3808 29.3428 52.0959 28.527C51.8356 27.7817 51.469 27.4314 50.9495 27.4314C50.218 27.4314 50.1901 27.5897 50.29 31.1748C50.3894 34.7424 50.433 34.9236 51.2177 35.0348C51.7468 35.1098 52.041 35.4035 52.041 35.8566C52.041 36.5084 51.7509 36.5616 48.1986 36.5616C44.6464 36.5616 44.3563 36.5083 44.3563 35.8566ZM56.4323 24.2205C56.4323 23.8007 59.5028 20.8575 59.9408 20.8575C60.5612 20.8575 61.1443 21.6456 60.9322 22.1972C60.8222 22.4834 59.9349 23.1207 58.9603 23.6136C57.1154 24.5466 56.4323 24.7106 56.4323 24.2205ZM22.4895 16.7571C22.8972 15.9262 22.8972 9.00536 22.4895 8.17451C22.2018 7.58844 22.4693 7.53539 25.6915 7.53539H29.207V8.63106C29.207 9.80643 28.2658 10.1937 27.8756 9.17883C27.7456 8.84083 27.1894 8.63106 26.4233 8.63106C25.1957 8.63106 25.1817 8.64833 25.1817 10.2745C25.1817 12.0437 25.3819 12.2138 26.484 11.3817C27.7176 10.4506 28.1879 10.6821 27.9931 12.1245C27.7713 13.7666 27.4445 14.0989 26.8496 13.287C26.5923 12.9358 26.1118 12.6484 25.7818 12.6484C25.3057 12.6484 25.1817 13.0256 25.1817 14.4745C25.1817 16.2568 25.2077 16.3006 26.2711 16.3006C27.0293 16.3006 27.5427 16.023 27.9599 15.3876C28.8156 14.0841 29.207 14.256 29.207 15.9353V17.3962H25.6915C22.4678 17.3962 22.2019 17.3432 22.4895 16.7571ZM30.7623 17.1543C30.2022 16.9286 30.158 15.7038 30.6978 15.3708C30.9139 15.2374 31.4648 15.4789 31.9217 15.9074C32.7886 16.7202 33.9642 16.6225 33.9642 15.7379C33.9642 15.4713 33.2644 14.7855 32.4089 14.2136C29.4671 12.2469 30.497 9.92595 34.207 10.162C35.7227 10.2586 35.9936 10.3926 36.0938 11.0963C36.2356 12.0929 35.1918 12.2348 34.5149 11.3108C33.9981 10.6054 32.8664 10.8839 32.8664 11.7165C32.8664 12.02 33.5048 12.5934 34.285 12.9907C37.3769 14.5649 36.5093 17.4263 32.9579 17.3674C32.0019 17.353 31.0138 17.2558 30.7623 17.1543ZM38.1559 16.4998C36.7928 15.1394 36.8836 12.6003 38.3477 11.1391C39.3002 10.1885 39.6579 10.0653 41.1837 10.1629C42.7839 10.2652 42.9394 10.3583 43.0455 11.2788C43.1376 12.0781 43.012 12.2832 42.4298 12.2832C42.0196 12.2832 41.5961 11.9623 41.4659 11.5527C41.338 11.151 41.1212 10.8248 40.9838 10.8279C39.5877 10.859 38.9456 14.1331 40.065 15.5128C40.6809 16.2719 40.856 16.3127 41.7511 15.9056C43.077 15.3027 43.5194 15.8172 42.4317 16.6972C41.2001 17.6938 39.2626 17.6043 38.1559 16.4998ZM44.5214 14.1095C44.608 11.8858 44.5186 10.8223 44.247 10.8223C44.0258 10.8223 43.8446 10.658 43.8446 10.4571C43.8446 9.9212 46.6798 10.0065 46.8789 10.5485C47.0129 10.9137 47.1435 10.9137 47.5315 10.5485C47.7981 10.2974 48.4774 10.092 49.041 10.092C49.9355 10.092 50.0656 10.2312 50.0656 11.1876C50.0656 12.0398 49.903 12.2832 49.3337 12.2832C48.9312 12.2832 48.6019 12.1189 48.6019 11.918C48.6019 11.3223 47.2356 11.5029 46.9943 12.1305C46.6351 13.0646 46.7398 16.2377 47.1381 16.4832C47.952 16.9852 47.4165 17.3963 45.9488 17.3964L44.3936 17.3966L44.5214 14.1095ZM50.9804 13.7441V10.0919H52.3527H53.7249V13.1664C53.7249 14.8573 53.8249 16.5008 53.947 16.8185C54.1287 17.2909 53.8783 17.3962 52.5747 17.3962H50.9804L50.9804 13.7441ZM56.4956 16.8223C56.0835 16.411 55.9206 15.5314 55.9206 13.718C55.9206 11.6603 55.8131 11.1876 55.3451 11.1876C54.8681 11.1876 54.8993 11.023 55.5282 10.2252C55.9453 9.69599 56.2867 9.03859 56.2867 8.76438C56.2867 8.47604 56.6724 8.26582 57.2015 8.26582C57.9334 8.26582 58.1163 8.44855 58.1163 9.17883C58.1163 9.90929 58.2994 10.0919 59.0312 10.0919C59.6004 10.0919 59.946 10.2988 59.946 10.6397C59.946 10.9806 59.6004 11.1876 59.0312 11.1876C58.1492 11.1876 58.1163 11.2726 58.1163 13.5614V15.9353H59.2141C60.4634 15.9353 60.6518 16.4586 59.6041 17.0182C58.5714 17.5698 57.1552 17.4804 56.4956 16.8223ZM61.576 16.4998C60.8575 15.7828 60.6778 15.2312 60.6778 13.7441C60.6778 11.2212 61.7527 10.0919 64.1542 10.0919C66.3933 10.0919 67.6306 11.2497 67.6306 13.345C67.6306 16.1348 66.4237 17.3962 63.7544 17.3962C62.8831 17.3962 62.1873 17.11 61.576 16.4998ZM64.8599 16.0919C65.702 15.2515 65.6106 12.5711 64.7034 11.5019C63.9854 10.6558 63.9615 10.6529 63.4226 11.3485C62.684 12.3019 62.7007 15.3455 63.4486 16.0918C63.7648 16.4075 64.0825 16.6657 64.1543 16.6657C64.2263 16.6657 64.5436 16.4075 64.8599 16.0919ZM68.7284 17.0526C68.7284 16.8635 68.8931 16.6073 69.0944 16.4832C69.2957 16.3592 69.4603 15.1264 69.4603 13.7441C69.4603 12.3617 69.2957 11.1291 69.0944 11.0049C68.2967 10.5129 68.8029 10.0919 70.1922 10.0919C70.9972 10.0919 71.656 10.262 71.656 10.4699C71.656 10.7305 71.8758 10.7305 72.3637 10.4699C72.7531 10.2621 73.4117 10.0919 73.8275 10.0919C74.4235 10.0919 74.5835 10.3237 74.5835 11.1876C74.5835 12.0238 74.4174 12.2832 73.8821 12.2832C73.4963 12.2832 73.1159 12.0892 73.0367 11.8522C72.9564 11.6116 72.6197 11.526 72.2744 11.6583C71.7811 11.8471 71.656 12.378 71.656 14.2805C71.656 15.6273 71.8154 16.6659 72.0219 16.6659C72.2232 16.6659 72.3878 16.8302 72.3878 17.0311C72.3878 17.232 71.5645 17.3963 70.5581 17.3963C69.5518 17.3963 68.7284 17.2415 68.7284 17.0526ZM75.9921 14.1095C76.0788 11.8858 75.9894 10.8223 75.7177 10.8223C75.4965 10.8223 75.3154 10.658 75.3154 10.4571C75.3154 10.2562 75.962 10.0919 76.7523 10.0919H78.1891L78.3217 13.1049C78.3945 14.7621 78.5889 16.4056 78.7537 16.7571C79.0145 17.3137 78.8473 17.3962 77.4588 17.3964L75.8644 17.3966L75.9921 14.1095ZM81.6201 17.1714C80.9149 16.8585 80.0725 15.0121 80.0725 13.7794C80.0725 11.3636 81.4093 10.0919 83.9487 10.0919C85.9005 10.0919 87.0254 11.4064 87.0254 13.687C87.0254 16.1871 86.2336 17.0877 83.8916 17.2515C82.8981 17.3209 81.8759 17.285 81.6201 17.1714ZM84.4509 15.9594C84.9788 14.975 84.9245 12.187 84.3628 11.4201C83.2579 9.91202 81.8413 12.3616 82.4404 14.744C82.9164 16.6367 83.8009 17.1715 84.4509 15.9594ZM51.5293 8.08307C51.5293 7.35268 51.7121 7.17006 52.4442 7.17006C53.176 7.17006 53.359 7.35279 53.359 8.08307C53.359 8.81352 53.1762 8.99613 52.4442 8.99613C51.7123 8.99613 51.5293 8.81364 51.5293 8.08307ZM76.4132 8.08307C76.4132 7.35268 76.596 7.17006 77.328 7.17006C78.0599 7.17006 78.2429 7.35279 78.2429 8.08307C78.2429 8.81352 78.06 8.99613 77.328 8.99613C76.5961 8.99613 76.4132 8.81364 76.4132 8.08307Z" fill="#0E4056"/>
<path d="M93.7112 73.3785C93.0889 73.1396 92.7789 72.5276 92.7711 71.5225C92.7655 70.7407 92.8882 70.4488 93.3878 70.0609C93.7311 69.7943 94.2641 69.5762 94.5723 69.5762C95.1234 69.5762 96.0802 70.306 96.0802 70.7264C96.0802 70.8445 96.1449 71.1076 96.2239 71.311C96.3455 71.6235 96.143 71.6809 94.921 71.6809C93.8919 71.6809 93.4743 71.7688 93.4743 71.985C93.4743 72.7731 95.0079 73.2092 95.2838 72.4995C95.4581 72.051 96.0802 72.0406 96.0802 72.4865C96.0802 73.2217 94.6778 73.7496 93.7112 73.3785ZM95.3252 70.804C95.2296 70.309 94.2909 70.1337 93.8166 70.5223C93.2372 70.997 93.432 71.2132 94.4393 71.2132C95.2304 71.2132 95.39 71.1396 95.3252 70.804ZM99.0808 73.3959C98.9941 73.3101 98.9228 72.4683 98.9228 71.525C98.9228 70.1565 98.9946 69.81 99.2782 69.81C99.5644 69.81 99.6335 70.1738 99.6335 71.6809C99.6335 73.3997 99.501 73.8108 99.0808 73.3959ZM100.581 71.6809C100.581 70.3415 100.665 69.8093 100.877 69.8075C101.04 69.8057 101.555 69.7427 102.021 69.6666C103.308 69.4565 103.661 69.9444 103.661 71.9316C103.661 73.216 103.587 73.552 103.305 73.552C103.026 73.552 102.95 73.2263 102.95 72.0245C102.95 70.8261 102.867 70.4654 102.563 70.3502C101.792 70.0584 101.414 70.6044 101.34 72.1146C101.287 73.1834 101.181 73.552 100.925 73.552C100.653 73.552 100.581 73.1607 100.581 71.6809ZM104.608 71.7304V69.8699L105.564 69.7191C106.09 69.6361 106.715 69.6715 106.954 69.7977C107.248 69.9533 107.633 69.9358 108.151 69.7433C108.849 69.4838 108.954 69.5078 109.377 70.0241C109.745 70.4723 109.826 70.8785 109.771 71.9934C109.683 73.7646 109.111 74.1669 109.106 72.4607C109.102 70.9329 108.895 70.278 108.419 70.278C107.715 70.278 107.451 70.8058 107.451 72.2152C107.451 73.2115 107.369 73.5645 107.155 73.4946C106.971 73.4346 106.832 72.8459 106.788 71.9432C106.739 70.9307 106.612 70.4484 106.37 70.357C105.739 70.1176 105.344 70.7401 105.271 72.0914C105.229 72.8756 105.082 73.4368 104.905 73.4946C104.684 73.5663 104.608 73.1143 104.608 71.7304ZM110.918 73.0673C109.63 72.0669 110.452 69.5763 112.071 69.5763C113.649 69.5763 114.437 71.8213 113.266 72.9779C112.555 73.6794 111.746 73.7102 110.918 73.0673ZM112.947 72.2563C113.332 71.422 112.945 70.4191 112.198 70.3141C111.515 70.2181 111.005 70.8017 111.005 71.679C111.005 72.9143 112.446 73.3426 112.947 72.2563ZM114.558 70.9409C114.558 68.8444 114.619 68.407 114.913 68.407C115.15 68.407 115.269 68.6402 115.269 69.1027C115.269 69.7392 115.325 69.7873 115.929 69.6681C117.002 69.4562 117.756 70.2268 117.756 71.5351C117.756 72.9615 117.27 73.4226 115.737 73.4522L114.558 73.4749V70.9409ZM116.918 72.288C117.392 71.0578 116.474 69.8153 115.613 70.521C115.268 70.8038 115.131 72.4023 115.427 72.6944C115.812 73.075 116.709 72.8305 116.918 72.288ZM118.585 71.7005C118.585 70.1532 118.651 69.8101 118.951 69.8101C119.254 69.8101 119.304 70.1141 119.247 71.6038C119.201 72.7795 119.075 73.4308 118.881 73.4942C118.661 73.5662 118.585 73.1085 118.585 71.7005ZM120.116 73.2624C120.046 73.0817 120.019 71.8891 120.057 70.612C120.11 68.8228 120.2 68.29 120.453 68.29C120.713 68.29 120.777 68.8183 120.763 70.858C120.752 72.4407 120.649 73.4575 120.495 73.5083C120.357 73.5538 120.186 73.443 120.116 73.2624ZM121.823 73.3961C121.736 73.3104 121.665 72.4684 121.665 71.5251C121.665 70.1566 121.737 69.8102 122.02 69.8102C122.306 69.8102 122.376 70.174 122.376 71.6811C122.376 73.3998 122.243 73.8109 121.823 73.3961ZM123.459 73.1845C122.626 72.3629 123.192 71.4707 124.698 71.229C125.25 71.1404 125.574 70.9603 125.574 70.7416C125.574 70.2224 124.473 70.1555 124.105 70.6523C123.855 70.9899 123.738 71.0137 123.5 70.7749C123.264 70.5376 123.316 70.3886 123.764 70.0274C124.403 69.5123 125.424 69.4391 125.981 69.8687C126.479 70.252 126.704 73.552 126.233 73.552C126.066 73.552 125.929 73.4493 125.929 73.3239C125.929 73.1757 125.716 73.1757 125.321 73.3239C124.454 73.6493 123.886 73.6066 123.459 73.1845ZM125.541 72.3354C125.875 71.8093 125.728 71.7132 124.804 71.8523C124.238 71.9374 124.034 72.0891 124.034 72.4247C124.034 72.7815 124.171 72.8653 124.661 72.8074C125.007 72.7668 125.403 72.5543 125.541 72.3354ZM127.35 71.7117V69.8714L128.217 69.7326C129.219 69.572 129.515 69.6875 129.329 70.1671C129.256 70.3551 129.096 70.448 128.973 70.3733C128.451 70.0544 128.061 70.8249 128.061 72.1774C128.061 73.2433 127.981 73.5519 127.706 73.5519C127.42 73.5519 127.35 73.1916 127.35 71.7117ZM129.719 71.681C129.719 70.1739 129.789 69.8101 130.075 69.8101C130.361 69.8101 130.43 70.1739 130.43 71.681C130.43 73.1881 130.361 73.5519 130.075 73.5519C129.788 73.5519 129.719 73.1881 129.719 71.681ZM131.765 73.0672C131.261 72.6762 131.141 72.3858 131.141 71.5641C131.141 70.7424 131.261 70.452 131.765 70.061C132.593 69.418 133.402 69.4488 134.113 70.1503C135.267 71.2894 134.5 73.552 132.96 73.552C132.646 73.552 132.108 73.3338 131.765 73.0672ZM133.794 72.2563C134.367 71.0152 133.172 69.7208 132.194 70.5224C131.779 70.8621 131.742 72.1808 132.136 72.5697C132.635 73.0629 133.497 72.9 133.794 72.2563ZM135.56 73.1242C135.344 72.889 135.168 72.5733 135.168 72.4227C135.168 72.0169 135.805 72.0904 135.97 72.5151C136.062 72.7515 136.338 72.8553 136.747 72.8074C137.747 72.6906 137.654 72.2263 136.559 71.8658C135.458 71.5036 135.012 71.0156 135.242 70.4245C135.59 69.5301 137.608 69.3451 137.932 70.1779C138.141 70.7166 137.837 70.8581 137.197 70.5199C136.616 70.213 135.879 70.3181 135.879 70.7078C135.879 70.8237 136.36 71.0516 136.948 71.2142C137.774 71.4425 138.052 71.6446 138.168 72.1025C138.467 73.2761 136.43 74.0737 135.56 73.1242ZM98.9229 68.7577C98.9229 68.5648 99.0828 68.4069 99.2783 68.4069C99.4737 68.4069 99.6336 68.5648 99.6336 68.7577C99.6336 68.9507 99.4737 69.1085 99.2783 69.1085C99.0828 69.1085 98.9229 68.9507 98.9229 68.7577ZM118.585 68.7577C118.585 68.5648 118.745 68.4069 118.941 68.4069C119.136 68.4069 119.296 68.5648 119.296 68.7577C119.296 68.9507 119.136 69.1085 118.941 69.1085C118.745 69.1085 118.585 68.9507 118.585 68.7577ZM121.707 68.7186C121.822 68.1319 122.376 68.0514 122.376 68.6213C122.376 68.9086 122.223 69.1085 122.003 69.1085C121.782 69.1085 121.661 68.9494 121.707 68.7186ZM129.719 68.7577C129.719 68.5648 129.879 68.4069 130.075 68.4069C130.27 68.4069 130.43 68.5648 130.43 68.7577C130.43 68.9507 130.27 69.1085 130.075 69.1085C129.879 69.1085 129.719 68.9507 129.719 68.7577ZM46.107 74.7243C45.5998 74.4326 45.5595 73.8076 46.0478 73.8076C46.2432 73.8076 46.4031 73.9058 46.4031 74.0257C46.4031 74.3234 47.2011 74.5511 47.6493 74.3813C47.8503 74.3053 48.0672 74.0446 48.1314 73.8022C48.2303 73.4287 48.1483 73.3812 47.5915 73.4911C47.2303 73.5625 46.7171 73.5058 46.451 73.3652C45.7901 73.016 45.3741 71.7109 45.6747 70.9302C45.952 70.2103 46.9764 69.4866 47.3744 69.7294C47.5292 69.8239 47.9704 69.8922 48.3548 69.8815L49.0536 69.862L48.9721 72.0878C48.9033 73.9647 48.8184 74.3655 48.4307 74.6453C47.8983 75.0293 46.7078 75.0696 46.107 74.7243ZM48.0966 72.3047C48.6361 71.1356 47.6288 69.8204 46.7471 70.5428C46.402 70.8256 46.2652 72.4241 46.5611 72.7162C46.9415 73.0917 47.8451 72.8496 48.0966 72.3047ZM36.6904 71.0012C36.6904 67.7364 36.9857 67.6238 38.704 70.2339L39.8885 72.033L39.9577 70.2309C40.0194 68.6208 40.0762 68.4287 40.4907 68.4287C40.9231 68.4287 40.9545 68.603 40.9545 71.0012C40.9545 73.3601 40.9177 73.5737 40.5106 73.5737C40.2163 73.5737 39.6374 72.9275 38.7931 71.6566L37.5196 69.7396L37.4508 71.6566C37.3971 73.1501 37.3055 73.5737 37.0362 73.5737C36.754 73.5737 36.6904 73.1003 36.6904 71.0012ZM42.139 73.106C41.5357 72.5103 41.5035 71.0078 42.0798 70.3355C42.7419 69.563 43.6274 69.4741 44.3551 70.1071C44.6986 70.4059 45.0068 70.9135 45.0399 71.235C45.0972 71.7908 45.0325 71.8232 43.738 71.8898C42.3158 71.9629 42.1268 72.1251 42.7481 72.7384C43.2095 73.1939 43.2183 73.1937 44.0495 72.7091C44.877 72.2266 45.2184 72.4602 44.6277 73.1046C44.0598 73.7241 42.7659 73.7245 42.139 73.106ZM44.2175 70.9594C44.0436 70.4442 43.3554 70.1652 42.923 70.4345C42.1415 70.9212 42.2985 71.235 43.3235 71.235C43.976 71.235 44.279 71.1416 44.2175 70.9594ZM50.1302 73.1644C48.3993 71.2683 50.6781 68.6066 52.6217 70.2545C53.2678 70.8023 53.1946 72.7361 52.5097 73.2096C51.8081 73.6948 50.5933 73.6717 50.1302 73.1644ZM51.9658 72.7261C52.8513 71.8519 51.9621 69.8241 50.9634 70.4414C50.3688 70.8091 50.2674 72.4099 50.8138 72.8043C51.3547 73.1947 51.5012 73.1848 51.9658 72.7261ZM54.0851 73.0873C53.3691 72.3062 53.4846 70.849 54.3187 70.1408C54.8222 69.7131 55.158 69.6018 55.6162 69.7107C56.5298 69.9277 57.2621 71.0012 56.4966 71.0012C56.315 71.0012 56.1052 70.8434 56.0302 70.6504C55.8666 70.2295 55.1374 70.1897 54.7419 70.5802C54.5856 70.7345 54.4576 71.2571 54.4576 71.7414C54.4576 72.407 54.5838 72.6884 54.9747 72.895C55.4125 73.1263 55.5547 73.0916 55.9011 72.6694C56.3633 72.1059 56.8266 72.0136 56.8266 72.485C56.8266 73.5042 54.8629 73.9357 54.0851 73.0873ZM57.5373 71.7028C57.5373 70.1957 57.6064 69.8319 57.8926 69.8319C58.1788 69.8319 58.2479 70.1957 58.2479 71.7028C58.2479 73.2099 58.1788 73.5737 57.8926 73.5737C57.6063 73.5737 57.5373 73.2099 57.5373 71.7028ZM59.3362 73.1302C58.743 72.4831 58.774 70.8456 59.391 70.2366C60.0388 69.597 61.207 69.6089 61.8683 70.2618C62.5316 70.9166 62.5676 72.3994 61.937 73.0873C61.3528 73.7245 59.9029 73.7485 59.3362 73.1302ZM61.1811 72.8043C61.7275 72.4099 61.6261 70.8091 61.0316 70.4414C60.3789 70.0378 59.8008 70.5453 59.7113 71.6002C59.656 72.2546 59.7497 72.5856 60.0527 72.8043C60.2826 72.9703 60.5365 73.106 60.617 73.106C60.6974 73.106 60.9513 72.9701 61.1811 72.8043ZM63.1113 73.0475C62.7778 72.5799 62.7763 72.5129 63.0982 72.4458C63.297 72.4042 63.6273 72.5358 63.8323 72.7381C64.3009 73.2007 64.7394 73.2062 65.1193 72.7547C65.3706 72.4558 65.233 72.3285 64.2007 71.905C63.2287 71.5062 62.9866 71.2976 62.9866 70.8588C62.9866 70.1372 63.9243 69.5283 64.7285 69.7276C65.5539 69.9321 65.9932 70.4656 65.6307 70.8235C65.4241 71.0274 65.2809 70.9901 65.0446 70.6712C64.8726 70.439 64.5347 70.2868 64.2935 70.333C63.5084 70.4832 63.652 70.9507 64.5734 71.2437C65.7011 71.6025 66.0662 71.8845 66.0662 72.3971C66.0662 73.5415 63.8166 74.0366 63.1113 73.0475ZM68.6714 71.6881C68.6714 70.0225 68.7198 69.8103 69.0859 69.8698C69.3139 69.9069 69.6241 69.8606 69.7752 69.7668C70.1431 69.5387 70.8463 69.8218 70.7346 70.153C70.6856 70.2979 70.4413 70.455 70.1915 70.5021C69.5376 70.6252 69.3898 70.9634 69.3857 72.3459C69.3838 73.2798 69.2969 73.5737 69.0267 73.5737C68.7402 73.5737 68.6714 73.2082 68.6714 71.6881ZM71.2849 73.12C71.1504 72.872 71.0403 72.0306 71.0403 71.2504C71.0403 70.1661 71.1213 69.8319 71.3844 69.8319C71.6409 69.8319 71.7463 70.2035 71.7989 71.2935C71.869 72.7462 71.8737 72.7551 72.5801 72.7551C73.2865 72.7551 73.2913 72.7459 73.3614 71.2935C73.4139 70.2035 73.5193 69.8319 73.7759 69.8319C74.0476 69.8319 74.1199 70.2191 74.1199 71.672V73.5122L72.8247 73.5415C71.7692 73.5655 71.4841 73.4875 71.2849 73.12ZM75.0675 71.6881C75.0675 70.0225 75.1159 69.8103 75.4821 69.8698C75.7101 69.9069 76.0203 69.8606 76.1714 69.7668C76.5716 69.5187 77.1905 69.817 77.0462 70.1884C76.9783 70.3632 76.6918 70.5386 76.4097 70.5783C75.9552 70.6421 75.8886 70.8172 75.8261 72.112C75.7736 73.202 75.6681 73.5737 75.4116 73.5737C75.1392 73.5737 75.0675 73.1807 75.0675 71.6881ZM77.4768 73.286C77.1072 72.9211 77.1244 72.0556 77.5074 71.7417C77.6768 71.6029 78.2681 71.4179 78.8216 71.3306C79.5712 71.2123 79.8093 71.0755 79.7554 70.7942C79.6568 70.2802 78.427 70.1509 78.2389 70.6347C78.0422 71.1408 77.3814 71.1051 77.4812 70.5937C77.5947 70.0123 78.7366 69.5346 79.5772 69.7168C80.3568 69.8859 80.4625 70.1486 80.5675 72.1803L80.6345 73.4763L79.1941 73.518C78.3546 73.5424 77.6383 73.4454 77.4768 73.286ZM79.4332 72.7384C80.0285 72.1508 79.898 71.7512 79.154 71.8835C78.2067 72.0521 77.8399 72.3896 78.1733 72.7862C78.5276 73.2077 78.9751 73.1908 79.4332 72.7384ZM81.4637 71.0012C81.4637 68.8705 81.5249 68.4287 81.8191 68.4287C82.1134 68.4287 82.1744 68.8705 82.1744 71.0012C82.1744 73.132 82.1133 73.5737 81.8191 73.5737C81.5247 73.5737 81.4637 73.132 81.4637 71.0012ZM83.3589 73.106C82.7555 72.5103 82.7234 71.0078 83.2996 70.3355C83.5277 70.0695 84.0047 69.784 84.3597 69.7011C84.8792 69.5798 85.1485 69.6918 85.7394 70.275C86.8339 71.3556 86.6162 71.8042 84.9556 71.8898C83.5356 71.9631 83.3469 72.1252 83.968 72.7384C84.4279 73.1924 84.57 73.1953 85.1495 72.7626C86.0361 72.1006 86.5859 72.4594 85.8294 73.2062C85.3 73.7287 83.9336 73.6733 83.3589 73.106ZM85.491 71.048C85.491 70.72 84.9368 70.2996 84.5043 70.2996C84.2744 70.2996 83.9722 70.5101 83.8327 70.7673C83.5986 71.1991 83.6525 71.235 84.535 71.235C85.0608 71.235 85.491 71.1509 85.491 71.048ZM87.1966 73.293C86.8437 72.9447 86.8252 72.4044 87.1661 72.4044C87.3058 72.4044 87.5799 72.5622 87.7753 72.7551C88.2233 73.1974 88.6687 73.202 89.0336 72.7681C89.2689 72.4882 89.1212 72.3376 88.1742 71.8911C86.8172 71.2513 86.557 70.5402 87.465 69.9529C88.0999 69.5422 89.0761 69.6569 89.5288 70.1954C89.9627 70.7115 89.5438 71.0962 89.0385 70.6452C88.5711 70.2276 87.8368 70.2502 87.6896 70.6869C87.6395 70.8355 88.0037 71.086 88.4991 71.2435C90.0651 71.7416 90.4291 72.4092 89.5587 73.1868C89.0553 73.6366 87.6104 73.7016 87.1966 73.293ZM57.5373 68.7795C57.5373 68.5865 57.6971 68.4287 57.8926 68.4287C58.088 68.4287 58.2479 68.5865 58.2479 68.7795C58.2479 68.9724 58.0881 69.1303 57.8926 69.1303C57.6972 69.1303 57.5373 68.9724 57.5373 68.7795ZM36.6904 64.2246V61.6521H38.4617C40.0882 61.6521 40.2646 61.6997 40.6199 62.235C41.0947 62.9504 40.9035 63.901 40.2433 64.1078C39.6738 64.2863 39.6437 64.5315 40.1411 64.939C40.4878 65.2231 41.1914 66.3817 41.1914 66.6685C41.1914 66.7392 41.0415 66.797 40.8583 66.797C40.6751 66.797 40.1423 66.2708 39.6742 65.6277C38.9779 64.6708 38.6941 64.4584 38.1122 64.4584C37.4168 64.4584 37.4011 64.4842 37.4011 65.6277C37.4011 66.5112 37.3144 66.797 37.0458 66.797C36.7515 66.797 36.6904 66.3553 36.6904 64.2246ZM39.9621 63.1296C40.0545 62.4887 39.3159 62.0652 38.2785 62.1643C37.6108 62.228 37.5105 62.3297 37.4444 63.0096L37.3692 63.7824L38.6289 63.7112C39.7164 63.6497 39.8986 63.5701 39.9621 63.1296ZM42.139 66.3294C41.4406 65.6399 41.4958 64.1367 42.2467 63.3954C42.8786 62.7717 43.2218 62.7059 44.1082 63.0386C44.6826 63.2541 45.3396 64.5439 45.0834 64.9531C45.0122 65.0669 44.3738 65.16 43.6649 65.16C42.956 65.16 42.3759 65.2442 42.3759 65.3471C42.3759 66.038 43.938 66.3812 44.1854 65.7447C44.3548 65.3088 44.9818 65.2803 44.9818 65.7085C44.9818 66.7234 42.9808 67.1603 42.139 66.3294ZM44.2175 64.1828C44.0436 63.6677 43.3554 63.3886 42.923 63.6578C42.1415 64.1445 42.2985 64.4585 43.3235 64.4585C43.976 64.4585 44.279 64.365 44.2175 64.1828ZM45.8553 66.6461C45.7658 66.5576 45.6925 65.7069 45.6925 64.7556C45.6925 63.2444 45.7448 63.0324 46.107 63.0777C46.3351 63.1064 46.8162 63.0484 47.1762 62.9495C47.5819 62.8378 47.9545 62.8707 48.1564 63.0362C48.401 63.2366 48.6365 63.2337 49.101 63.0252C49.5681 62.8151 49.8649 62.8121 50.3119 63.0141C50.8673 63.2638 50.9042 63.3901 50.9042 65.0394C50.9042 66.4471 50.8331 66.7984 50.5488 66.7984C50.2692 66.7984 50.1935 66.4728 50.1935 65.271C50.1935 64.1233 50.1043 63.7098 49.8351 63.6078C49.1439 63.3459 48.7721 63.9811 48.7721 65.4239C48.7721 66.4898 48.6923 66.7984 48.4168 66.7984C48.1425 66.7984 48.0606 66.4915 48.0578 65.4537C48.0541 63.9177 47.8393 63.4427 47.2039 63.5619C46.8388 63.6304 46.7372 63.9158 46.6401 65.1452C46.5307 66.529 46.2601 67.0457 45.8553 66.6461ZM51.9757 66.4183C51.12 65.5736 51.9664 64.4585 53.4617 64.4585C54.0897 64.4585 54.239 64.373 54.1769 64.0492C54.0727 63.5065 52.8505 63.3532 52.6542 63.8581C52.4736 64.3227 51.8518 64.339 51.8518 63.8792C51.8518 63.2673 52.9446 62.7524 53.8768 62.925C54.8538 63.1059 54.8737 63.1462 54.9832 65.1699L55.0661 66.6999L53.7013 66.7372C52.7541 66.763 52.2262 66.6656 51.9757 66.4183ZM54.1784 65.31C54.2406 64.9999 54.1118 64.9576 53.4677 65.0766C52.3709 65.2792 52.1042 65.5843 52.6661 65.9937C53.056 66.2778 53.1987 66.28 53.6137 66.0085C53.8824 65.8327 54.1365 65.5184 54.1784 65.31ZM56.1633 66.5164C56.007 66.3621 55.879 65.6342 55.879 64.8989C55.879 64.0485 55.7713 63.5188 55.5829 63.4433C55.366 63.3564 55.3586 63.2732 55.5556 63.1316C55.7033 63.0253 55.8633 62.7366 55.9109 62.49C56.0336 61.8554 56.5898 61.7338 56.5898 62.3416C56.5898 62.6136 56.7497 62.8967 56.9451 62.9708C57.1406 63.0448 57.3005 63.1993 57.3005 63.3142C57.3005 63.429 57.1406 63.5231 56.9451 63.5231C56.6764 63.5231 56.5898 63.8097 56.5898 64.6997C56.5898 65.5299 56.6945 65.916 56.9451 66.011C57.1406 66.085 57.3005 66.2922 57.3005 66.4714C57.3005 66.8707 56.5522 66.9003 56.1633 66.5164ZM58.09 66.1946C57.5735 65.6848 57.4996 65.4462 57.6088 64.6424C57.7619 63.5148 58.111 63.1174 59.1238 62.9174C59.7319 62.7974 59.9905 62.8834 60.4828 63.3693C60.8171 63.6994 61.0907 64.2374 61.0907 64.5647C61.0907 65.1313 61.0272 65.16 59.7704 65.16C58.6408 65.16 58.4615 65.2191 58.5291 65.5693C58.6376 66.1312 59.609 66.2218 60.1683 65.7223C60.8617 65.1028 61.3048 65.6503 60.6406 66.3061C59.9467 66.9911 58.8481 66.943 58.09 66.1946ZM60.1431 63.9907C59.7805 63.3219 58.4849 63.4328 58.4849 64.1327C58.4849 64.3573 58.7816 64.4584 59.4408 64.4584C60.3233 64.4584 60.3772 64.4226 60.1431 63.9907ZM62.0146 66.306C61.6364 65.9325 61.5834 65.7504 61.7937 65.5459C62.0026 65.3428 62.1483 65.3813 62.3894 65.7037C62.5919 65.9744 62.9353 66.1027 63.3284 66.0545C63.9921 65.9731 64.1717 65.5992 63.6556 65.3732C61.9096 64.609 61.4927 64.1031 61.9895 63.3512C62.3522 62.8022 63.5506 62.7467 64.1792 63.2498C64.8403 63.7788 64.6301 64.2407 63.9259 63.8066C63.2922 63.4159 62.5121 63.4506 62.5121 63.8695C62.5121 64.06 62.8052 64.283 63.1635 64.3651C64.8028 64.7405 65.3723 65.7295 64.3546 66.4332C63.6189 66.9419 62.6027 66.8865 62.0146 66.306ZM73.1724 64.5895V62.3819L72.3024 62.3094C71.8238 62.2695 71.3885 62.1053 71.335 61.9445C71.2619 61.725 71.7742 61.6522 73.3896 61.6522C75.1443 61.6522 75.5414 61.7169 75.5414 62.0029C75.5414 62.2479 75.2913 62.3537 74.7122 62.3537H73.8831V64.5754C73.8831 66.3943 73.8186 66.7971 73.5277 66.7971C73.237 66.7971 73.1724 66.3959 73.1724 64.5895ZM75.3518 66.5164C74.9535 66.1232 74.9978 65.2745 75.4352 64.916C75.6375 64.7502 76.1972 64.5515 76.6789 64.4741C77.2312 64.3855 77.5549 64.2054 77.5549 63.9868C77.5549 63.5067 76.4027 63.4127 76.025 63.862C75.64 64.32 75.3044 64.328 75.3044 63.8786C75.3044 63.2796 76.3974 62.7518 77.2941 62.9179C78.2661 63.0978 78.384 63.3551 78.384 65.2955C78.384 66.7778 78.2507 67.039 77.7474 66.5422C77.562 66.3591 77.4453 66.3591 77.3307 66.5422C77.1163 66.8848 75.7066 66.8666 75.3518 66.5164ZM77.1469 65.9653C77.9668 65.3984 77.8321 64.9086 76.9035 65.0799C75.888 65.2672 75.6311 65.5218 76.0068 65.9687C76.3845 66.418 76.4927 66.418 77.1469 65.9653ZM79.4671 66.4296C79.2623 66.2275 79.0948 65.9117 79.0948 65.728C79.0948 65.2768 79.719 65.302 79.8972 65.7603C79.989 65.9967 80.2649 66.1004 80.6742 66.0526C81.5473 65.9505 81.6458 65.4451 80.8291 65.2577C79.1393 64.8699 78.5869 63.8622 79.6773 63.1569C80.349 62.7224 81.6512 62.8899 81.8643 63.4381C82.0682 63.9627 81.7577 64.0999 81.124 63.765C80.5398 63.4564 79.8054 63.5639 79.8054 63.958C79.8054 64.0767 80.0986 64.245 80.4569 64.3319C81.4295 64.568 82.1744 65.1166 82.1744 65.5968C82.1744 66.6334 80.2676 67.2199 79.4671 66.4296ZM83.0189 66.3461C82.2188 65.4733 83.1195 64.4585 84.6946 64.4585C85.1326 64.4585 85.2681 64.3509 85.2102 64.0492C85.1061 63.5066 83.8839 63.3532 83.6876 63.8582C83.5087 64.3184 82.8851 64.3409 82.8851 63.8872C82.8851 63.0471 84.7541 62.5024 85.5386 63.1138C86.0508 63.5131 86.297 66.7972 85.8147 66.7972C85.6367 66.7972 85.491 66.6883 85.491 66.5551C85.491 66.3882 85.3487 66.3882 85.0327 66.5551C84.3226 66.9303 83.4737 66.8422 83.0189 66.3461ZM84.7959 66.0873C85.363 65.7877 85.4397 64.8059 84.8795 65.0181C84.6734 65.0962 84.3502 65.1601 84.1613 65.1601C83.6814 65.1601 83.4572 65.8653 83.8575 66.1156C84.2734 66.3755 84.249 66.3762 84.7959 66.0873ZM87.4483 66.4396C86.2353 65.6008 86.6749 63.2467 88.1023 62.9372C88.9155 62.7609 89.992 63.2975 89.992 63.8792C89.992 64.3409 89.5213 64.3182 89.1666 63.8393C88.7283 63.2476 87.71 63.5932 87.5565 64.3857C87.3661 65.3689 87.7475 66.0955 88.4538 66.0955C88.7868 66.0955 89.1207 65.9377 89.1957 65.7447C89.3651 65.3088 89.992 65.2803 89.992 65.7085C89.992 66.1939 89.1904 66.7972 88.5455 66.7972C88.2264 66.7972 87.7327 66.6362 87.4483 66.4396ZM90.4658 64.9262C90.4658 63.4191 90.535 63.0553 90.8211 63.0553C91.1074 63.0553 91.1765 63.4191 91.1765 64.9262C91.1765 66.4333 91.1073 66.7971 90.8211 66.7971C90.5349 66.7971 90.4658 66.4333 90.4658 64.9262ZM92.3781 66.1809C91.6965 65.3255 91.7357 64.119 92.4686 63.3955C94.1677 61.7181 96.4573 64.2887 94.9496 66.1809C94.5935 66.6278 94.2403 66.7971 93.6639 66.7971C93.0875 66.7971 92.7342 66.6278 92.3781 66.1809ZM94.4457 65.8149C94.8213 65.4441 94.8078 64.4192 94.4204 63.8963C93.965 63.2815 93.0141 63.4948 92.7378 64.2737C92.2811 65.561 93.5463 66.7027 94.4457 65.8149ZM96.1513 64.9115C96.1513 63.2489 96.2003 63.033 96.5658 63.0854C96.7939 63.1181 97.2255 63.0635 97.5251 62.9638C97.8887 62.8429 98.2626 62.9073 98.6503 63.1582C99.1747 63.4974 99.2309 63.6918 99.2309 65.1655C99.2309 66.4599 99.1575 66.7971 98.8756 66.7971C98.596 66.7971 98.5203 66.4715 98.5203 65.2697C98.5203 64.0713 98.4369 63.7106 98.1327 63.5954C97.3624 63.3036 96.984 63.8496 96.9099 65.3598C96.8574 66.4285 96.7512 66.7971 96.4953 66.7971C96.223 66.7971 96.1513 66.4042 96.1513 64.9115ZM100.415 66.3294C99.717 65.6399 99.7722 64.1368 100.523 63.3955C101.154 62.773 101.499 62.7061 102.377 63.0356C102.983 63.2631 103.646 64.4963 103.385 64.9121C103.3 65.0485 102.641 65.1601 101.922 65.1601C100.535 65.1601 100.354 65.4147 101.299 66.0342C101.747 66.3277 101.856 66.3107 102.293 65.8788C102.857 65.3226 103.258 65.2517 103.258 65.7084C103.258 66.7232 101.257 67.1604 100.415 66.3294ZM102.494 64.1829C102.32 63.6677 101.632 63.3886 101.199 63.6579C100.418 64.1446 100.575 64.4585 101.6 64.4585C102.252 64.4585 102.555 64.3651 102.494 64.1829ZM104.383 66.5445C103.961 66.3018 103.798 65.3939 104.177 65.3939C104.291 65.3939 104.522 65.5571 104.689 65.7566C105.035 66.1677 106.134 66.125 106.277 65.6949C106.33 65.5371 106.075 65.3432 105.703 65.2578C104.013 64.87 103.461 63.8623 104.551 63.157C105.223 62.7225 106.525 62.89 106.738 63.4382C106.942 63.9629 106.632 64.1 105.998 63.7652C105.401 63.4496 104.68 63.5665 104.68 63.979C104.68 64.1093 104.973 64.2829 105.331 64.3649C106.31 64.5892 107.048 65.1189 107.048 65.597C107.048 66.5693 105.428 67.1453 104.383 66.5445ZM67.071 64.8677C67.1245 64.707 67.6132 64.543 68.1568 64.5035C68.9248 64.4476 69.1452 64.5127 69.1452 64.7958C69.1452 65.0726 68.8844 65.1601 68.0594 65.1601C67.2968 65.1601 67.0026 65.0731 67.071 64.8677ZM90.4658 62.0029C90.4658 61.81 90.6257 61.6521 90.8211 61.6521C91.0166 61.6521 91.1765 61.8099 91.1765 62.0029C91.1765 62.1959 91.0166 62.3537 90.8211 62.3537C90.6257 62.3537 90.4658 62.1959 90.4658 62.0029Z" fill="#0E4056"/>
</svg>
